<svg width="636" height="636" viewBox="0 0 636 636" fill="none" xmlns="http://www.w3.org/2000/svg">
<path d="M318 607.926C483.503 607.926 617.671 530.464 617.671 434.911C617.671 339.357 483.503 261.896 318 261.896C152.497 261.896 18.3296 339.357 18.3296 434.911C18.3296 530.464 152.497 607.926 318 607.926Z" fill="#F0F0F0"/>
<path d="M255.986 566.025C313.059 566.025 359.325 539.313 359.325 506.363C359.325 473.413 313.059 446.701 255.986 446.701C198.914 446.701 152.648 473.413 152.648 506.363C152.648 539.313 198.914 566.025 255.986 566.025Z" fill="#E0E0E0"/>
<path d="M549.855 431.721L537.738 424.725C537.738 424.725 534.769 398.773 536.745 378.676C539.519 350.435 557.758 316.453 579.517 324.434C601.274 332.414 569.541 361.176 562.477 385.13C555.412 409.083 549.855 431.721 549.855 431.721Z" fill="#3DA8FF"/>
<path opacity="0.15" d="M549.855 431.721L537.738 424.725C537.738 424.725 534.769 398.773 536.745 378.676C539.519 350.435 557.758 316.453 579.517 324.434C601.274 332.414 569.541 361.176 562.477 385.13C555.412 409.083 549.855 431.721 549.855 431.721Z" fill="black"/>
<path d="M543.482 428.776C543.49 428.776 543.499 428.776 543.508 428.776C543.912 428.762 544.23 428.424 544.216 428.018C542.088 365.266 573.326 333.7 573.641 333.39C573.93 333.105 573.934 332.641 573.649 332.353C573.362 332.065 572.897 332.061 572.611 332.346C572.29 332.662 540.6 364.681 542.748 428.07C542.762 428.464 543.088 428.776 543.482 428.776Z" fill="white"/>
<path d="M557.473 436.084L548.85 431.105C548.85 431.105 547.384 413.297 556.115 391.664C563.715 372.831 582.575 357.207 592.06 360.49C601.545 363.773 601.31 370.499 596.685 377.555C592.061 384.611 563.926 401.428 557.473 436.084Z" fill="#3DA8FF"/>
<path d="M552.926 434.191H552.93C553.334 434.188 553.662 433.86 553.66 433.454C553.489 393.778 590.744 366.962 591.12 366.696C591.451 366.462 591.53 366.005 591.295 365.673C591.063 365.344 590.606 365.261 590.272 365.499C589.89 365.769 552.018 393.03 552.192 433.462C552.195 433.865 552.521 434.191 552.926 434.191Z" fill="white"/>
<path d="M101.328 416.13L112.516 408.579C112.516 408.579 117.441 379.265 112.866 353.516C106.432 317.313 81.4653 305.266 72.5562 309.049C63.6471 312.832 61.743 323.63 78.3654 344.299C88.1726 356.492 100.984 382.424 101.328 416.13Z" fill="#3DA8FF"/>
<g opacity="0.15">
<path d="M101.328 416.13L112.516 408.579C112.516 408.579 117.441 379.265 112.866 353.516C106.432 317.313 81.4653 305.266 72.5562 309.049C63.6471 312.832 61.743 323.63 78.3654 344.299C88.1726 356.492 100.984 382.424 101.328 416.13Z" fill="black"/>
</g>
<path d="M105.17 401.629C105.132 401.629 105.095 401.628 105.058 401.623C104.614 401.569 104.295 401.167 104.349 400.722C108.39 366.635 93.9995 329.653 78.3489 314.938C78.0232 314.633 78.0067 314.118 78.3145 313.792C78.6223 313.469 79.1349 313.45 79.4606 313.758C95.3962 328.741 110.061 366.323 105.959 400.913C105.909 401.32 105.567 401.621 105.17 401.629Z" fill="white"/>
<path d="M72.0206 435.899C70.2449 436.965 65.0539 433.115 63.6178 432.19C61.159 430.609 59.148 428.34 57.7907 425.756C56.2122 422.749 55.7657 419.504 56.1766 416.136C56.3903 414.39 56.8444 412.683 57.2972 410.983C57.7424 409.314 58.1876 407.645 58.6328 405.975C59.0716 404.328 59.5156 402.625 59.2663 400.94C58.7651 397.542 55.6958 395.216 52.9075 393.21C49.8242 390.992 46.6022 388.05 46.5399 383.949C46.4916 380.786 48.0739 377.816 49.9857 375.296C51.8988 372.775 54.1821 370.537 55.9031 367.882C57.142 365.97 58.0947 363.735 57.8429 361.471C57.6864 360.064 57.0771 358.747 56.3788 357.517C54.8791 354.875 52.9228 352.467 51.8683 349.618C50.8138 346.77 50.8876 343.2 53.0869 341.105C54.8918 339.385 57.6177 339.097 60.107 339.213C62.4106 339.321 64.6786 340.316 66.7125 341.396C73.2913 344.889 77.1557 352.526 84.116 355.178C86.8012 356.201 89.7243 356.38 92.5151 357.061C95.3058 357.741 98.1653 359.105 99.5009 361.649C102.134 366.664 97.5496 372.996 99.436 378.337C101.105 383.064 105.763 384.795 108.442 389.032C109.613 390.886 109.917 393.048 109.776 395.237C109.537 398.941 109.049 401.665 107.354 405.811C105.954 409.238 101.794 415.821 101.794 415.821C101.794 415.821 72.2915 435.735 72.0206 435.899Z" fill="#3DA8FF"/>
<path d="M89.2155 425.352C89.2041 425.352 89.1939 425.352 89.1939 425.352C88.7347 425.342 88.3811 424.97 88.39 424.524C89.1074 392.32 73.2608 357.089 62.0354 346.981C61.7034 346.682 61.6755 346.17 61.9757 345.836C62.2758 345.504 62.7872 345.479 63.1205 345.777C74.571 356.088 90.7381 391.903 90.0118 424.559C90.0004 424.997 89.648 425.343 89.2155 425.352Z" fill="white"/>
<path d="M83.2828 386.121C83.204 386.122 83.1226 386.113 83.0437 386.089C72.6438 383.093 59.7483 382.778 59.6198 382.775C59.1721 382.765 58.8172 382.394 58.8261 381.946C58.8363 381.5 59.1683 381.14 59.6554 381.152C59.7864 381.156 72.8868 381.474 83.4927 384.531C83.9227 384.654 84.172 385.103 84.0473 385.533C83.9443 385.884 83.6288 386.114 83.2828 386.121Z" fill="white"/>
<path d="M383.074 393.996L378.248 391.206C376.728 390.327 375.496 388.192 375.496 386.435L375.494 186.073C375.494 184.317 376.727 182.181 378.248 181.303L512.247 103.94C513.768 103.063 516.234 103.063 517.755 103.94L522.582 106.726C524.103 107.604 525.336 109.739 525.336 111.496V311.856C525.336 313.613 524.103 315.749 522.582 316.626L388.581 393.996C387.061 394.875 384.594 394.873 383.074 393.996Z" fill="#455A64"/>
<path d="M525.313 111.048C525.122 109.624 523.965 109.102 522.578 109.903L388.586 187.279C387.822 187.724 387.148 188.462 386.639 189.327L376.298 183.361C376.794 182.496 377.481 181.746 378.244 181.301L512.249 103.938C513.763 103.06 516.231 103.06 517.757 103.938L522.578 106.723C523.977 107.525 525.135 109.395 525.313 111.048Z" fill="#455A64"/>
<path d="M388.115 394.217C386.589 394.866 384.452 394.789 383.078 394.001L378.244 391.202C376.731 390.325 375.497 388.188 375.497 386.432V186.071C375.497 185.193 375.802 184.226 376.298 183.361L386.64 189.327C386.131 190.192 385.825 191.171 385.825 192.049V392.411C385.825 393.988 386.818 394.713 388.115 394.217Z" fill="#263238"/>
<path d="M385.827 192.047V392.407C385.827 394.164 387.059 394.875 388.581 393.997L522.582 316.628C524.103 315.75 525.336 313.614 525.336 311.858V111.495C525.336 109.738 524.103 109.027 522.582 109.905L388.581 187.277C387.061 188.154 385.827 190.29 385.827 192.047Z" fill="#37474F"/>
<path d="M354.534 268.42C352.804 267.39 344.778 262.823 344.358 262.582C343.086 261.806 342.628 259.923 343.811 258.651L375.497 224.663L385.825 230.591L354.153 264.591C353.008 265.812 353.377 267.581 354.534 268.42Z" fill="#455A64"/>
<path d="M385.828 230.596L354.149 264.587C352.561 266.291 353.902 269.055 356.222 268.864L385.828 266.426V230.596Z" fill="#37474F"/>
<path d="M455.581 169.433C471.198 160.416 483.858 167.726 483.858 185.759C483.858 203.792 471.198 225.72 455.581 234.737C439.963 243.755 427.303 236.444 427.303 218.411C427.304 200.377 439.964 178.449 455.581 169.433Z" fill="#3DA8FF"/>
<path d="M455.382 183.625C460.449 180.699 464.557 183.07 464.557 188.92C464.557 194.771 460.45 201.886 455.382 204.81C450.316 207.734 446.208 205.364 446.208 199.513C446.208 193.663 450.316 186.549 455.382 183.625Z" fill="white"/>
<path d="M473.462 214.82C473.462 205.208 466.713 201.312 458.39 206.119L453.187 209.123C444.864 213.929 438.115 225.617 438.115 235.228V237.85C439.618 238.349 441.249 238.595 442.974 238.599C446.771 238.607 451.045 237.356 455.582 234.737C462.367 230.82 468.591 224.462 473.462 217.05V214.82Z" fill="white"/>
<path d="M437.668 324.017L473.496 303.331C475.017 302.454 476.249 303.165 476.249 304.921V316.46C476.249 318.216 475.017 320.352 473.496 321.23L437.668 341.915C436.147 342.793 434.915 342.082 434.915 340.325V328.787C434.915 327.03 436.147 324.894 437.668 324.017Z" fill="#3DA8FF"/>
<path d="M420.134 298.241L491.029 257.31C492.854 256.257 494.334 257.111 494.334 259.218V263.513C494.334 265.62 492.854 268.183 491.029 269.237L420.135 310.167C418.31 311.22 416.831 310.367 416.831 308.259V303.965C416.829 301.857 418.31 299.294 420.134 298.241Z" fill="#FAFAFA"/>
<path d="M428.425 268.618C429.389 268.061 430.139 267.977 430.674 268.37C431.208 268.762 431.475 269.632 431.475 270.983C431.475 272.335 431.208 273.519 430.674 274.54C430.139 275.561 429.389 276.35 428.425 276.907L426.511 278.011V282.118C426.511 282.254 426.479 282.388 426.415 282.523C426.35 282.659 426.275 282.752 426.186 282.801L425.218 283.361C425.13 283.413 425.054 283.408 424.989 283.346C424.926 283.283 424.894 283.187 424.894 283.051V271.152C424.894 271.017 424.926 270.881 424.989 270.746C425.054 270.613 425.129 270.518 425.218 270.468L428.425 268.618ZM426.511 275.709L428.364 274.638C428.818 274.375 429.182 274.028 429.453 273.594C429.724 273.162 429.858 272.604 429.858 271.915C429.858 271.227 429.724 270.829 429.453 270.722C429.18 270.615 428.818 270.693 428.364 270.956L426.511 272.026V275.709Z" fill="#FAFAFA"/>
<path d="M436.81 263.776C436.937 263.702 437.034 263.698 437.097 263.766C437.162 263.834 437.218 263.958 437.265 264.14L440.197 274.088C440.205 274.12 440.209 274.16 440.209 274.21C440.209 274.345 440.177 274.48 440.113 274.615C440.05 274.749 439.975 274.844 439.886 274.893L439.024 275.391C438.865 275.482 438.752 275.495 438.689 275.427C438.624 275.36 438.582 275.285 438.556 275.198L438.042 273.452L434.262 275.636L433.748 277.976C433.724 278.088 433.68 278.216 433.617 278.357C433.552 278.498 433.442 278.614 433.281 278.707L432.42 279.204C432.332 279.254 432.256 279.248 432.193 279.186C432.128 279.125 432.097 279.027 432.097 278.894C432.097 278.844 432.101 278.799 432.11 278.757L435.041 265.426C435.089 265.188 435.144 265.001 435.208 264.86C435.272 264.72 435.367 264.612 435.496 264.538L436.81 263.776ZM437.468 271.483L436.152 266.994L434.837 273.002L437.468 271.483Z" fill="#FAFAFA"/>
<path d="M444.658 259.061C445.192 258.753 445.663 258.591 446.069 258.579C446.476 258.563 446.814 258.645 447.086 258.819C447.357 258.994 447.562 259.241 447.702 259.559C447.841 259.877 447.919 260.21 447.936 260.556C447.944 260.699 447.913 260.836 447.847 260.967C447.778 261.097 447.701 261.189 447.613 261.24L446.775 261.723C446.64 261.803 446.539 261.82 446.471 261.78C446.403 261.741 446.34 261.668 446.285 261.566C446.165 261.327 445.986 261.166 445.742 261.078C445.498 260.993 445.136 261.086 444.658 261.363C444.451 261.483 444.254 261.631 444.067 261.806C443.878 261.982 443.714 262.174 443.576 262.384C443.436 262.593 443.326 262.814 443.246 263.043C443.166 263.275 443.127 263.506 443.127 263.739C443.127 264.023 443.163 264.231 443.24 264.365C443.315 264.498 443.442 264.579 443.623 264.604C443.802 264.631 444.04 264.612 444.335 264.552C444.63 264.492 444.998 264.411 445.435 264.304C445.914 264.187 446.326 264.137 446.674 264.152C447.02 264.168 447.303 264.261 447.523 264.435C447.743 264.61 447.906 264.862 448.014 265.193C448.122 265.525 448.175 265.941 448.175 266.443C448.175 266.997 448.095 267.555 447.936 268.12C447.777 268.683 447.548 269.22 447.254 269.729C446.958 270.236 446.597 270.713 446.164 271.159C445.734 271.604 445.251 271.98 444.717 272.289C444.269 272.548 443.843 272.712 443.437 272.779C443.03 272.849 442.669 272.819 442.354 272.688C442.039 272.555 441.786 272.325 441.593 271.993C441.403 271.661 441.295 271.232 441.271 270.706C441.262 270.563 441.294 270.426 441.36 270.295C441.427 270.165 441.505 270.074 441.593 270.023L442.431 269.539C442.566 269.459 442.67 269.438 442.741 269.469C442.814 269.501 442.872 269.578 442.922 269.696C442.978 269.826 443.045 269.945 443.125 270.058C443.205 270.172 443.311 270.25 443.447 270.295C443.582 270.339 443.752 270.342 443.956 270.306C444.159 270.268 444.411 270.163 444.715 269.986C444.954 269.85 445.186 269.688 445.41 269.502C445.632 269.319 445.828 269.113 445.996 268.888C446.163 268.663 446.298 268.426 446.402 268.174C446.505 267.924 446.557 267.658 446.557 267.374C446.557 267.106 446.501 266.918 446.391 266.81C446.279 266.702 446.108 266.653 445.882 266.662C445.654 266.67 445.374 266.716 445.038 266.798C444.704 266.88 444.317 266.964 443.878 267.044C443.479 267.126 443.13 267.153 442.831 267.124C442.533 267.095 442.285 266.988 442.09 266.806C441.895 266.624 441.749 266.361 441.654 266.017C441.558 265.672 441.511 265.226 441.511 264.671C441.511 264.119 441.591 263.564 441.75 263.006C441.909 262.448 442.129 261.92 442.409 261.429C442.688 260.936 443.02 260.483 443.408 260.071C443.794 259.655 444.213 259.319 444.658 259.061Z" fill="#FAFAFA"/>
<path d="M453.008 254.241C453.543 253.933 454.012 253.772 454.418 253.758C454.825 253.744 455.165 253.824 455.437 253.998C455.707 254.174 455.912 254.42 456.051 254.738C456.191 255.058 456.269 255.391 456.285 255.736C456.293 255.879 456.264 256.017 456.196 256.146C456.128 256.278 456.05 256.369 455.962 256.419L455.124 256.903C454.988 256.982 454.888 257 454.82 256.961C454.753 256.92 454.69 256.847 454.636 256.746C454.515 256.509 454.336 256.345 454.091 256.257C453.848 256.172 453.487 256.265 453.008 256.542C452.8 256.663 452.604 256.81 452.416 256.986C452.228 257.163 452.065 257.354 451.925 257.563C451.785 257.773 451.676 257.993 451.596 258.224C451.516 258.454 451.476 258.685 451.476 258.919C451.476 259.203 451.513 259.41 451.589 259.544C451.666 259.68 451.792 259.759 451.972 259.784C452.153 259.81 452.389 259.792 452.684 259.732C452.98 259.672 453.347 259.591 453.785 259.484C454.264 259.367 454.675 259.318 455.024 259.332C455.37 259.347 455.653 259.44 455.872 259.614C456.092 259.791 456.256 260.041 456.363 260.372C456.471 260.705 456.525 261.12 456.525 261.624C456.525 262.176 456.444 262.734 456.285 263.3C456.126 263.864 455.898 264.4 455.604 264.908C455.31 265.417 454.946 265.893 454.515 266.339C454.085 266.784 453.602 267.161 453.069 267.469C452.62 267.727 452.193 267.891 451.788 267.96C451.382 268.03 451.021 267.998 450.705 267.867C450.39 267.736 450.137 267.505 449.945 267.172C449.754 266.84 449.646 266.412 449.622 265.885C449.614 265.742 449.644 265.605 449.712 265.475C449.778 265.343 449.856 265.253 449.945 265.202L450.782 264.718C450.916 264.64 451.021 264.617 451.092 264.65C451.166 264.682 451.224 264.757 451.273 264.876C451.328 265.005 451.397 265.124 451.476 265.239C451.556 265.351 451.663 265.43 451.799 265.475C451.934 265.52 452.104 265.522 452.307 265.487C452.51 265.449 452.762 265.343 453.067 265.168C453.306 265.03 453.537 264.87 453.761 264.683C453.983 264.501 454.179 264.295 454.347 264.07C454.514 263.843 454.65 263.608 454.754 263.356C454.857 263.107 454.908 262.841 454.908 262.557C454.908 262.288 454.852 262.099 454.741 261.991C454.629 261.884 454.459 261.835 454.233 261.844C454.006 261.853 453.725 261.897 453.389 261.98C453.055 262.063 452.668 262.145 452.229 262.227C451.831 262.308 451.481 262.336 451.182 262.307C450.885 262.276 450.635 262.171 450.442 261.989C450.246 261.807 450.1 261.544 450.004 261.199C449.909 260.855 449.862 260.408 449.862 259.854C449.862 259.302 449.942 258.746 450.101 258.188C450.26 257.63 450.48 257.103 450.76 256.611C451.039 256.117 451.37 255.666 451.758 255.252C452.145 254.835 452.561 254.499 453.008 254.241Z" fill="#FAFAFA"/>
<path d="M462.279 255.832L461.25 261.933C461.211 262.139 461.16 262.319 461.1 262.47C461.04 262.621 460.951 262.732 460.832 262.8L459.861 263.36C459.742 263.429 459.647 263.426 459.58 263.346C459.511 263.268 459.467 263.145 459.444 262.976L457.911 252.239C457.903 252.182 457.9 252.135 457.9 252.099C457.9 251.964 457.931 251.828 457.995 251.693C458.059 251.558 458.134 251.464 458.223 251.415L459.107 250.903C459.187 250.859 459.263 250.851 459.336 250.883C459.407 250.915 459.455 251.015 459.478 251.187L460.483 258.416L461.368 252.987C461.385 252.891 461.422 252.758 461.483 252.589C461.541 252.419 461.643 252.294 461.787 252.21L462.768 251.644C462.911 251.561 463.013 251.57 463.073 251.67C463.133 251.771 463.17 251.859 463.186 251.935L464.071 256.342L465.076 247.953C465.099 247.755 465.149 247.6 465.22 247.483C465.291 247.368 465.368 247.287 465.448 247.242L466.332 246.731C466.42 246.681 466.496 246.687 466.559 246.749C466.623 246.81 466.655 246.908 466.655 247.043C466.655 247.078 466.651 247.13 466.643 247.195L465.112 259.702C465.086 259.9 465.042 260.077 464.976 260.232C464.907 260.387 464.814 260.5 464.693 260.57L463.724 261.129C463.603 261.199 463.514 261.192 463.454 261.11C463.395 261.027 463.345 260.906 463.304 260.745L462.279 255.832Z" fill="#FAFAFA"/>
<path d="M468.236 250.44C468.261 249.739 468.345 249.041 468.493 248.348C468.64 247.655 468.858 247.001 469.145 246.388C469.433 245.775 469.791 245.21 470.221 244.698C470.654 244.185 471.163 243.76 471.754 243.418C472.335 243.08 472.842 242.918 473.272 242.927C473.703 242.937 474.062 243.086 474.349 243.374C474.637 243.663 474.854 244.065 475.007 244.578C475.158 245.093 475.247 245.692 475.271 246.377C475.279 246.608 475.285 246.862 475.289 247.141C475.293 247.421 475.295 247.711 475.295 248.012C475.295 248.313 475.293 248.606 475.289 248.89C475.285 249.176 475.279 249.437 475.271 249.673C475.246 250.377 475.161 251.072 475.014 251.766C474.867 252.459 474.649 253.113 474.362 253.726C474.074 254.339 473.713 254.901 473.279 255.41C472.843 255.919 472.335 256.341 471.754 256.677C471.163 257.018 470.654 257.183 470.221 257.176C469.791 257.165 469.433 257.02 469.145 256.737C468.858 256.456 468.64 256.054 468.493 255.53C468.345 255.008 468.26 254.409 468.236 253.736C468.228 253.507 468.221 253.254 468.218 252.972C468.213 252.692 468.212 252.402 468.212 252.101C468.212 251.801 468.213 251.507 468.218 251.223C468.222 250.939 468.228 250.678 468.236 250.44ZM473.656 247.403C473.624 246.536 473.438 245.96 473.099 245.67C472.759 245.382 472.311 245.397 471.753 245.72C471.195 246.043 470.746 246.544 470.406 247.226C470.066 247.906 469.881 248.696 469.849 249.599C469.832 250.075 469.823 250.599 469.823 251.17C469.823 251.742 469.832 252.254 469.849 252.712C469.879 253.578 470.066 254.152 470.406 254.434C470.746 254.718 471.193 254.698 471.753 254.376C472.311 254.054 472.759 253.555 473.099 252.881C473.438 252.206 473.623 251.418 473.656 250.515C473.672 250.04 473.68 249.517 473.68 248.946C473.68 248.375 473.672 247.862 473.656 247.403Z" fill="#FAFAFA"/>
<path d="M480.857 238.346C481.853 237.771 482.61 237.69 483.129 238.103C483.646 238.517 483.906 239.355 483.906 240.62C483.906 241.517 483.773 242.357 483.506 243.144C483.238 243.93 482.845 244.627 482.327 245.234L483.978 248.83C484.002 248.89 484.014 248.951 484.014 249.013C484.014 249.122 483.987 249.232 483.935 249.344C483.884 249.453 483.821 249.528 483.749 249.57L482.732 250.157C482.573 250.248 482.454 250.258 482.379 250.186C482.303 250.111 482.25 250.037 482.218 249.957L480.652 246.568L479.061 247.488V251.78C479.061 251.915 479.029 252.049 478.965 252.183C478.9 252.319 478.827 252.412 478.738 252.464L477.768 253.022C477.681 253.072 477.606 253.067 477.541 253.005C477.476 252.944 477.445 252.847 477.445 252.712V240.814C477.445 240.678 477.476 240.543 477.541 240.409C477.606 240.273 477.679 240.18 477.768 240.128L480.857 238.346ZM479.062 245.184L480.796 244.183C481.251 243.921 481.614 243.588 481.885 243.186C482.156 242.785 482.29 242.24 482.29 241.552C482.29 240.865 482.154 240.482 481.885 240.405C481.612 240.329 481.251 240.422 480.796 240.685L479.062 241.686V245.184Z" fill="#FAFAFA"/>
<path d="M489.338 233.449C489.929 233.108 490.44 232.932 490.875 232.92C491.31 232.91 491.672 233.041 491.965 233.315C492.256 233.589 492.478 233.993 492.634 234.53C492.789 235.067 492.882 235.713 492.915 236.467C492.947 237.356 492.947 238.266 492.915 239.193C492.883 239.986 492.789 240.74 492.634 241.455C492.478 242.172 492.258 242.832 491.97 243.442C491.681 244.05 491.325 244.595 490.898 245.081C490.472 245.568 489.972 245.976 489.397 246.308L486.382 248.048C486.294 248.099 486.219 248.093 486.154 248.031C486.091 247.97 486.059 247.873 486.059 247.737V235.839C486.059 235.705 486.091 235.568 486.154 235.434C486.219 235.3 486.293 235.206 486.382 235.155L489.338 233.449ZM491.3 237.4C491.283 237.017 491.234 236.68 491.151 236.391C491.067 236.102 490.944 235.878 490.779 235.722C490.615 235.564 490.411 235.488 490.165 235.488C489.917 235.49 489.621 235.59 489.28 235.788L487.677 236.713V245.001L489.34 244.042C489.666 243.854 489.949 243.62 490.189 243.339C490.428 243.06 490.627 242.752 490.787 242.413C490.946 242.074 491.068 241.711 491.152 241.319C491.235 240.926 491.286 240.529 491.301 240.128C491.33 239.198 491.33 238.291 491.3 237.4Z" fill="#FAFAFA"/>
<path d="M314.664 48.8385C316.887 49.3307 318.982 50.1181 320.95 51.198C322.918 52.2792 324.585 53.6034 325.95 55.1705C327.315 56.7363 328.298 58.5171 328.897 60.5116C329.498 62.5036 329.541 64.6609 329.028 66.9772C328.61 68.8687 327.95 70.4485 327.05 71.7116C326.148 72.9759 325.114 74.0622 323.947 74.9679C322.779 75.8748 321.546 76.6698 320.257 77.3504C318.963 78.0321 317.739 78.6796 316.589 79.2901C315.436 79.9033 314.391 80.58 313.461 81.3152C312.529 82.0517 311.878 82.9255 311.505 83.9342C311.294 84.4341 310.982 84.8348 310.569 85.1388C310.153 85.4454 309.686 85.5382 309.166 85.425L303.774 84.2306C303.254 84.1161 302.834 83.8261 302.517 83.3567C302.199 82.8899 302.122 82.4027 302.283 81.8927C302.787 80.0686 303.534 78.5346 304.529 77.2918C305.524 76.0491 306.628 74.9793 307.844 74.0813C309.06 73.1846 310.323 72.4112 311.634 71.7586C312.942 71.1048 314.162 70.4701 315.293 69.8519C316.421 69.235 317.386 68.5786 318.182 67.8879C318.981 67.1972 319.489 66.3539 319.71 65.3605C320.108 63.5644 319.679 61.9184 318.421 60.4238C317.164 58.9305 315.282 57.9066 312.776 57.3507C308.756 56.4603 305.355 57.8162 302.573 61.4173C302.222 61.8854 301.886 62.2199 301.571 62.4222C301.252 62.6257 300.785 62.6588 300.169 62.5214L294.423 61.2494C293.999 61.1552 293.662 60.9314 293.419 60.5803C293.174 60.2292 293.104 59.8158 293.209 59.3426C293.621 57.698 294.506 56.1207 295.857 54.6083C297.208 53.0971 298.855 51.8251 300.795 50.7897C302.736 49.7569 304.906 49.0331 307.304 48.6222C309.705 48.2126 312.156 48.2826 314.664 48.8385ZM308.58 89.7613C309.099 89.8757 309.507 90.1645 309.799 90.6275C310.094 91.0892 310.185 91.5802 310.069 92.1005L308.686 98.3422C308.571 98.8637 308.283 99.2707 307.82 99.5646C307.358 99.8609 306.869 99.95 306.348 99.8342L300.248 98.4834C299.726 98.3663 299.319 98.0801 299.024 97.6158C298.729 97.1541 298.639 96.6644 298.755 96.1429L300.137 89.8999C300.253 89.3809 300.541 88.9726 301.004 88.6775C301.467 88.3849 301.956 88.2934 302.478 88.4091L308.58 89.7613Z" fill="#3DA8FF"/>
<path d="M321.455 108.508C323.005 108.255 324.551 108.221 326.09 108.411C327.628 108.6 329.035 109.021 330.312 109.676C331.587 110.333 332.674 111.222 333.568 112.347C334.465 113.473 335.043 114.844 335.308 116.458C335.523 117.778 335.504 118.961 335.251 120C334.998 121.041 334.612 122.003 334.096 122.884C333.579 123.764 332.994 124.589 332.339 125.356C331.685 126.124 331.067 126.85 330.486 127.538C329.903 128.227 329.407 128.927 328.999 129.637C328.589 130.347 328.395 131.073 328.415 131.815C328.407 132.19 328.31 132.527 328.124 132.829C327.936 133.13 327.66 133.311 327.298 133.37L323.536 133.985C323.172 134.045 322.828 133.965 322.504 133.746C322.181 133.528 322.005 133.236 321.98 132.867C321.836 131.568 321.923 130.395 322.243 129.342C322.561 128.291 322.996 127.321 323.546 126.436C324.095 125.55 324.707 124.73 325.38 123.976C326.053 123.222 326.672 122.503 327.239 121.816C327.803 121.133 328.254 120.465 328.588 119.819C328.923 119.17 329.035 118.501 328.921 117.806C328.717 116.555 328.019 115.608 326.83 114.971C325.641 114.335 324.173 114.159 322.424 114.446C319.619 114.904 317.786 116.645 316.924 119.666C316.818 120.055 316.69 120.355 316.537 120.567C316.386 120.779 316.095 120.919 315.666 120.989L311.658 121.645C311.36 121.694 311.088 121.636 310.84 121.473C310.593 121.309 310.443 121.064 310.388 120.733C310.232 119.574 310.395 118.335 310.876 117.02C311.354 115.705 312.084 114.467 313.063 113.309C314.043 112.148 315.25 111.131 316.681 110.253C318.116 109.375 319.706 108.794 321.455 108.508ZM328.028 136.3C328.391 136.241 328.727 136.323 329.035 136.542C329.341 136.764 329.524 137.055 329.584 137.417L330.296 141.775C330.356 142.137 330.275 142.473 330.055 142.779C329.833 143.087 329.542 143.269 329.178 143.329L324.921 144.025C324.558 144.085 324.223 144.004 323.916 143.784C323.608 143.563 323.425 143.272 323.365 142.909L322.653 138.551C322.594 138.19 322.675 137.854 322.895 137.546C323.116 137.24 323.407 137.055 323.77 136.996L328.028 136.3Z" fill="#3DA8FF"/>
<g opacity="0.2">
<path d="M321.455 108.508C323.005 108.255 324.551 108.221 326.09 108.411C327.628 108.6 329.035 109.021 330.312 109.676C331.587 110.333 332.674 111.222 333.568 112.347C334.465 113.473 335.043 114.844 335.308 116.458C335.523 117.778 335.504 118.961 335.251 120C334.998 121.041 334.612 122.003 334.096 122.884C333.579 123.764 332.994 124.589 332.339 125.356C331.685 126.124 331.067 126.85 330.486 127.538C329.903 128.227 329.407 128.927 328.999 129.637C328.589 130.347 328.395 131.073 328.415 131.815C328.407 132.19 328.31 132.527 328.124 132.829C327.936 133.13 327.66 133.311 327.298 133.37L323.536 133.985C323.172 134.045 322.828 133.965 322.504 133.746C322.181 133.528 322.005 133.236 321.98 132.867C321.836 131.568 321.923 130.395 322.243 129.342C322.561 128.291 322.996 127.321 323.546 126.436C324.095 125.55 324.707 124.73 325.38 123.976C326.053 123.222 326.672 122.503 327.239 121.816C327.803 121.133 328.254 120.465 328.588 119.819C328.923 119.17 329.035 118.501 328.921 117.806C328.717 116.555 328.019 115.608 326.83 114.971C325.641 114.335 324.173 114.159 322.424 114.446C319.619 114.904 317.786 116.645 316.924 119.666C316.818 120.055 316.69 120.355 316.537 120.567C316.386 120.779 316.095 120.919 315.666 120.989L311.658 121.645C311.36 121.694 311.088 121.636 310.84 121.473C310.593 121.309 310.443 121.064 310.388 120.733C310.232 119.574 310.395 118.335 310.876 117.02C311.354 115.705 312.084 114.467 313.063 113.309C314.043 112.148 315.25 111.131 316.681 110.253C318.116 109.375 319.706 108.794 321.455 108.508ZM328.028 136.3C328.391 136.241 328.727 136.323 329.035 136.542C329.341 136.764 329.524 137.055 329.584 137.417L330.296 141.775C330.356 142.137 330.275 142.473 330.055 142.779C329.833 143.087 329.542 143.269 329.178 143.329L324.921 144.025C324.558 144.085 324.223 144.004 323.916 143.784C323.608 143.563 323.425 143.272 323.365 142.909L322.653 138.551C322.594 138.19 322.675 137.854 322.895 137.546C323.116 137.24 323.407 137.055 323.77 136.996L328.028 136.3Z" fill="black"/>
</g>
<path d="M357.421 115.356C357.775 115.61 357.99 115.957 358.067 116.398C358.14 116.841 358.051 117.239 357.8 117.594L354.77 121.856C354.517 122.213 354.169 122.427 353.728 122.501C353.285 122.578 352.887 122.487 352.532 122.235L348.368 119.274C348.012 119.021 347.798 118.675 347.723 118.234C347.646 117.79 347.737 117.393 347.99 117.038L351.02 112.774C351.272 112.419 351.618 112.204 352.062 112.129C352.503 112.054 352.9 112.143 353.256 112.397L357.421 115.356ZM375.043 86.4668C376.559 87.5442 377.888 88.8047 379.027 90.2459C380.165 91.6883 381.001 93.216 381.527 94.8302C382.057 96.4469 382.23 98.0992 382.046 99.7923C381.863 101.487 381.211 103.124 380.085 104.706C379.167 105.998 378.167 106.977 377.088 107.642C376.007 108.308 374.883 108.797 373.714 109.107C372.543 109.419 371.363 109.625 370.175 109.728C368.982 109.828 367.856 109.926 366.793 110.02C365.729 110.115 364.728 110.291 363.793 110.55C362.856 110.807 362.086 111.258 361.486 111.899C361.168 112.208 360.805 112.41 360.396 112.508C359.986 112.606 359.605 112.529 359.25 112.276L355.567 109.658C355.212 109.406 354.988 109.054 354.898 108.6C354.808 108.147 354.903 107.754 355.188 107.42C356.15 106.207 357.2 105.29 358.347 104.67C359.491 104.052 360.664 103.597 361.867 103.308C363.067 103.019 364.266 102.839 365.462 102.765C366.655 102.69 367.777 102.6 368.827 102.494C369.873 102.388 370.807 102.203 371.63 101.936C372.45 101.668 373.103 101.197 373.585 100.519C374.458 99.2911 374.657 97.9161 374.187 96.3897C373.716 94.8645 372.625 93.4933 370.915 92.2773C368.169 90.326 365.173 90.2637 361.931 92.0903C361.516 92.3307 361.158 92.4783 360.855 92.5291C360.55 92.58 360.19 92.4566 359.77 92.159L355.846 89.3695C355.556 89.1634 355.374 88.8887 355.301 88.5465C355.229 88.2018 355.309 87.8711 355.537 87.548C356.371 86.4401 357.539 85.5319 359.04 84.8234C360.541 84.1149 362.185 83.6811 363.978 83.5208C365.767 83.3606 367.632 83.5056 369.569 83.961C371.504 84.4138 373.329 85.2495 375.043 86.4668Z" fill="#3DA8FF"/>
<g opacity="0.6">
<path d="M357.421 115.356C357.775 115.61 357.99 115.957 358.067 116.398C358.14 116.841 358.051 117.239 357.8 117.594L354.77 121.856C354.517 122.213 354.169 122.427 353.728 122.501C353.285 122.578 352.887 122.487 352.532 122.235L348.368 119.274C348.012 119.021 347.798 118.675 347.723 118.234C347.646 117.79 347.737 117.393 347.99 117.038L351.02 112.774C351.272 112.419 351.618 112.204 352.062 112.129C352.503 112.054 352.9 112.143 353.256 112.397L357.421 115.356ZM375.043 86.4668C376.559 87.5442 377.888 88.8047 379.027 90.2459C380.165 91.6883 381.001 93.216 381.527 94.8302C382.057 96.4469 382.23 98.0992 382.046 99.7923C381.863 101.487 381.211 103.124 380.085 104.706C379.167 105.998 378.167 106.977 377.088 107.642C376.007 108.308 374.883 108.797 373.714 109.107C372.543 109.419 371.363 109.625 370.175 109.728C368.982 109.828 367.856 109.926 366.793 110.02C365.729 110.115 364.728 110.291 363.793 110.55C362.856 110.807 362.086 111.258 361.486 111.899C361.168 112.208 360.805 112.41 360.396 112.508C359.986 112.606 359.605 112.529 359.25 112.276L355.567 109.658C355.212 109.406 354.988 109.054 354.898 108.6C354.808 108.147 354.903 107.754 355.188 107.42C356.15 106.207 357.2 105.29 358.347 104.67C359.491 104.052 360.664 103.597 361.867 103.308C363.067 103.019 364.266 102.839 365.462 102.765C366.655 102.69 367.777 102.6 368.827 102.494C369.873 102.388 370.807 102.203 371.63 101.936C372.45 101.668 373.103 101.197 373.585 100.519C374.458 99.2911 374.657 97.9161 374.187 96.3897C373.716 94.8645 372.625 93.4933 370.915 92.2773C368.169 90.326 365.173 90.2637 361.931 92.0903C361.516 92.3307 361.158 92.4783 360.855 92.5291C360.55 92.58 360.19 92.4566 359.77 92.159L355.846 89.3695C355.556 89.1634 355.374 88.8887 355.301 88.5465C355.229 88.2018 355.309 87.8711 355.537 87.548C356.371 86.4401 357.539 85.5319 359.04 84.8234C360.541 84.1149 362.185 83.6811 363.978 83.5208C365.767 83.3606 367.632 83.5056 369.569 83.961C371.504 84.4138 373.329 85.2495 375.043 86.4668Z" fill="white"/>
</g>
<path d="M262.701 227.958H217.511V118.458C217.511 98.6563 233.563 82.6024 253.366 82.6024H257.542C277.344 82.6024 293.397 98.6551 293.397 118.458V197.264C293.396 214.216 279.653 227.958 262.701 227.958Z" fill="#263238"/>
<path d="M213.117 491.552C212.746 494.302 211.956 497.512 211.808 505.294C211.651 513.636 210.118 516.597 209.914 523.445C209.683 531.267 211.034 534.195 214.209 538.591C217.384 542.989 225.715 546.979 229.236 539.545C232.8 532.024 232.304 527.245 231.179 519.57C230.015 511.637 229.867 507.255 229.192 501.204C228.598 495.87 227.885 491.819 227.885 491.819L213.117 491.552Z" fill="#263238"/>
<path d="M236.798 436.131L209.318 435.632C209.726 453.977 212.642 474.339 213.117 491.55C213.206 494.79 213.036 516.727 214.258 523.394C216.094 533.409 227.983 532.057 228.614 526.062C229.245 520.069 227.848 494.459 227.887 491.817C227.782 480.779 232.955 462.146 235.669 442.33C235.801 441.357 236.672 437.08 236.798 436.131Z" fill="#FFA8A7"/>
<path d="M272.099 477.276C272.099 477.276 271.014 476.693 270.79 477.851C270.524 479.229 270.127 482.068 269.555 484.329C268.76 487.472 268.098 492.649 268.575 495.21C269.052 497.77 275.023 501.067 278.899 502.258C284.618 504.013 288.542 506.882 291.675 509.83C295.514 513.444 303.798 516.857 309.44 516.816C316.115 516.768 320.769 514.593 322.969 511.018C325.266 507.285 320.964 507.01 313.334 502.061C311.602 500.936 309.63 499.666 307.412 498.217C295.325 490.322 290.9 486.091 287.481 478.194L272.099 477.276Z" fill="#263238"/>
<path d="M287.576 472.389C287.373 466.708 291.269 418.525 291.269 418.525L265.171 430.422C270.761 463.778 271.951 471.644 272.05 477.102C272.007 477.229 271.896 477.692 271.903 478.5C271.927 484.98 279.24 488.475 284.945 492.796C287.199 494.501 293.752 499.541 300.374 502.869C304.519 504.952 312.936 505.142 313.979 502.474C307.037 497.173 296.94 489.239 291.418 483.184C288.781 480.292 287.78 478.068 287.576 472.389Z" fill="#FFA8A7"/>
<path d="M220.579 257.144C210.561 279.147 210.561 296.161 212.217 324.234C213.736 349.986 216.157 372.655 216.157 372.655C215.769 377.226 209.418 386.142 208.597 406.335C207.828 425.214 209.897 449.213 209.897 449.213C209.897 449.213 224.153 457.115 234.696 449.144C234.696 449.144 244.868 400.568 247.849 376.937C250.451 356.314 254.971 329.963 254.971 329.963L264.547 376.825C264.547 376.825 260.904 388.378 260.052 397.179C258.705 411.08 266.479 438.374 266.479 438.374C266.479 438.374 281.21 442.77 290.207 434.792C290.207 434.792 293.571 390.415 294.827 373.669C296.508 351.246 292.972 290.543 290.206 258.407L220.579 257.144Z" fill="#455A64"/>
<path d="M254.971 329.963L258.93 294.688C258.93 294.688 276.663 292.318 284.695 284.766C284.695 284.766 278.66 295.825 263.801 297.971L258.079 330.795L264.548 376.825L254.971 329.963Z" fill="#263238"/>
<path d="M326.772 248.476C327.876 237.664 327.834 230.461 327.738 229.076C327.352 223.478 326.351 222.567 318.524 212.648C307.959 199.256 298.942 187.221 289.403 175.246C282.594 166.697 275.436 165.382 268.445 165.768C263.557 166.039 273.093 189.532 277.898 203.434L305.31 232.918C306.154 234.082 306.542 235.516 306.401 236.946L304.718 262.047L312.927 273.028C312.927 273.028 325.358 262.311 326.772 248.476Z" fill="#FFA8A7"/>
<path d="M242.037 166.529C236.736 166.894 227.094 167.742 227.094 167.742C221.53 170.847 220.125 173.393 219.089 180.782C218.649 183.925 221.211 192.312 223.411 204.229L227.587 226.328L227.135 237.288C224.967 243.975 220.064 252.287 215.745 264.539C236.982 276.392 254.794 276.83 270.947 274.757C283.265 273.176 289.783 270.194 291.956 267.251C291.503 255.147 290.647 247.674 290.437 235.027C290.349 229.716 290.668 224.357 290.875 218.243C299.139 211.455 299.233 200.166 294.725 192.868C284.252 175.914 274.07 165.239 267.326 165.786L242.037 166.529Z" fill="#3DA8FF"/>
<path opacity="0.6" d="M242.037 166.529C236.736 166.894 227.094 167.742 227.094 167.742C221.53 170.847 220.125 173.393 219.089 180.782C218.649 183.925 221.211 192.312 223.411 204.229L227.587 226.328L227.135 237.288C224.967 243.975 220.064 252.287 215.745 264.539C236.982 276.392 254.794 276.83 270.947 274.757C283.265 273.176 289.783 270.194 291.956 267.251C291.503 255.147 290.647 247.674 290.437 235.027C290.349 229.716 290.668 224.357 290.875 218.243C299.139 211.455 299.233 200.166 294.725 192.868C284.252 175.914 274.07 165.239 267.326 165.786L242.037 166.529Z" fill="white"/>
<path opacity="0.1" d="M274.435 218.428C274.435 218.428 264.735 225.956 253.665 222.03C242.596 218.105 240.979 208.427 240.979 208.427C240.979 208.427 239.804 221.082 253.768 225.398C267.245 229.562 274.435 218.428 274.435 218.428Z" fill="black"/>
<path d="M287.588 131.792C287.171 150.156 281.21 154.696 278.223 155.999C275.237 157.303 269.471 156.508 263.876 155.582V166.603C263.876 166.603 270.333 173.372 269.85 178.42C269.355 183.48 259.703 184.041 252.451 179.098C247.158 175.493 243.378 171.371 241.728 169.416C241.128 168.705 240.804 167.812 240.804 166.881V140.948C240.804 140.948 237.738 144.195 232.313 140.478C226.901 136.774 226.431 129.861 229.744 125.948C232.104 123.17 238.104 122.974 240.987 127.292C242.603 130.461 242.826 133.644 244.639 132.326C249.477 128.843 246.882 120.926 252.725 117.014C252.737 117.014 252.737 117.001 252.75 117.001C254.498 116.062 256.481 115.174 258.698 114.405C269.12 110.805 278.146 107.779 280.323 100.657C284.431 103.097 288.097 110.127 287.588 131.792Z" fill="#FFA8A7"/>
<path d="M267.047 148.199C268.379 148.199 269.458 147.12 269.458 145.789C269.458 144.458 268.379 143.379 267.047 143.379C265.716 143.379 264.637 144.458 264.637 145.789C264.637 147.12 265.716 148.199 267.047 148.199Z" fill="#B16668"/>
<path d="M265.435 129.008C265.508 130.464 264.431 131.697 263.031 131.764C261.629 131.83 260.434 130.704 260.361 129.248C260.288 127.793 261.364 126.559 262.766 126.491C264.166 126.427 265.362 127.552 265.435 129.008Z" fill="#263238"/>
<path d="M284.712 129.258C284.779 130.581 283.8 131.703 282.525 131.763C281.125 131.829 280.172 130.932 280.098 129.477C280.032 128.154 281.01 127.032 282.285 126.971C283.559 126.911 284.646 127.935 284.712 129.258Z" fill="#263238"/>
<path d="M262.168 135.547C257.607 135.547 253.895 131.835 253.895 127.274C253.895 121.649 259.692 121.649 262.168 121.649C264.645 121.649 270.441 121.649 270.441 127.274C270.441 131.836 266.729 135.547 262.168 135.547ZM262.168 122.954C257.154 122.954 255.2 124.165 255.2 127.275C255.2 131.118 258.325 134.243 262.168 134.243C266.011 134.243 269.136 131.118 269.136 127.275C269.136 124.165 267.182 122.954 262.168 122.954Z" fill="#455A64"/>
<path d="M283.17 135.547C278.609 135.547 274.897 131.835 274.897 127.274C274.897 121.649 280.693 121.649 283.17 121.649C285.647 121.649 291.443 121.649 291.443 127.274C291.443 131.836 287.731 135.547 283.17 135.547ZM283.17 122.954C278.156 122.954 276.202 124.165 276.202 127.275C276.202 131.118 279.327 134.243 283.17 134.243C287.013 134.243 290.138 131.118 290.138 127.275C290.138 124.165 288.184 122.954 283.17 122.954Z" fill="#455A64"/>
<path d="M271.726 124.608L272.133 140.057L280.265 137.538L271.726 124.608Z" fill="#F28F8F"/>
<path d="M263.87 155.578C257.964 154.804 245.814 151.313 243.921 146.51C243.921 146.51 244.552 149.529 248.181 152.64C251.81 155.75 263.87 159.256 263.87 159.256V155.578Z" fill="#F28F8F"/>
<path d="M264.15 117.105L258.762 120.39C257.879 118.839 258.37 116.847 259.858 115.94C261.346 115.033 263.268 115.555 264.15 117.105Z" fill="#263238"/>
<path d="M286.1 120.768L280.097 118.671C280.618 116.978 282.384 116.076 284.041 116.655C285.699 117.233 286.62 119.074 286.1 120.768Z" fill="#263238"/>
<path d="M269.787 127.933C269.427 127.933 269.136 127.635 269.136 127.274C269.136 126.215 271.23 125.531 273.108 125.531C274.987 125.531 276.201 126.215 276.201 127.274C276.201 127.634 275.909 127.926 275.548 127.926C275.188 127.926 274.896 127.635 274.896 127.274C274.837 127.154 274.235 126.836 273.107 126.836C271.979 126.836 270.498 127.154 270.437 127.285C270.439 127.646 270.147 127.933 269.787 127.933Z" fill="#455A64"/>
<path d="M254.569 127.382C254.545 127.382 254.521 127.381 254.495 127.378L239.955 126.054C239.694 125.812 239.006 125.101 237.573 124.507L254.64 126.082C254.998 126.121 255.256 126.444 255.217 126.803C255.179 127.135 254.896 127.382 254.569 127.382Z" fill="#455A64"/>
<path d="M194.874 142.535C199.629 136.183 202.871 131.382 207.211 125.937C209.675 122.845 211.251 120.638 213.622 117.465C215.254 115.281 216.211 113.439 218.02 112.763C220.055 112.001 222.017 110.495 223.326 109.12C224.261 108.137 225.027 107.008 225.836 105.918C228.553 102.256 231.799 98.987 235.441 96.2433C239.268 93.3597 243.521 91.1604 247.447 88.4129C249.79 86.7733 252.302 84.0499 249.451 81.5085C248.6 80.7491 247.518 80.2963 246.404 80.0533C239.483 78.5409 233.444 80.9272 226.674 82.6584C223.732 83.4101 220.837 84.3527 218.054 85.57C216.703 86.1602 215.356 86.8025 214.237 87.7603C212.491 89.2537 211.447 91.3792 210.314 93.375C207.27 98.7377 200.965 103.47 196.527 107.644C191.32 112.541 186.667 117.032 180.728 122.435C175.383 127.298 170.154 131.782 165.252 137.092C161.197 141.486 162.672 144.923 163.25 146.11C166.554 152.907 170.255 155.344 174.675 159.555C182.331 166.848 208.702 187.829 217.451 194.753C219.323 196.235 220.794 198.157 221.739 200.35L223.409 204.23C233.381 206.065 240.035 191.093 231.776 173.064C230.437 170.14 228.311 167.651 225.713 165.756C215.304 158.162 194.874 142.535 194.874 142.535Z" fill="#FFA8A7"/>
<path d="M194.874 142.535C194.874 142.535 190.365 148.563 182.686 150.924C182.686 150.924 189.047 152.547 197.754 144.733L194.874 142.535Z" fill="#F28F8F"/>
<path d="M324.183 235.203L324.216 235.207L322.586 233.801L322.584 233.822C322.217 233.526 321.646 233.434 320.908 233.635L303.246 238.439C301.609 238.884 299.832 240.544 299.278 242.147L286.568 278.817C286.274 279.667 286.391 280.322 286.802 280.691L286.788 280.696L288.469 282.145L288.468 282.123C288.834 282.429 289.412 282.526 290.161 282.323L307.823 277.52C309.46 277.075 311.237 275.413 311.791 273.811C314.288 266.602 322.007 244.346 324.503 237.139C324.815 236.235 324.66 235.555 324.183 235.203Z" fill="#455A64"/>
<path d="M288.202 280.225L300.912 243.555C301.467 241.952 303.244 240.292 304.881 239.847L322.543 235.044C324.18 234.599 325.056 235.537 324.501 237.14C322.006 244.347 314.287 266.604 311.792 273.812C311.237 275.415 309.459 277.076 307.823 277.521L290.161 282.324C288.524 282.767 287.648 281.828 288.202 280.225Z" fill="#3DA8FF"/>
<path d="M302.96 240.865C302.04 241.591 301.249 242.591 300.911 243.559L288.197 280.218C287.922 281.041 288.004 281.686 288.374 282.057L286.793 280.701L286.809 280.685C286.39 280.313 286.276 279.668 286.568 278.813L299.281 242.138C299.588 241.235 300.314 240.315 301.169 239.589L302.96 240.865Z" fill="#37474F"/>
<path d="M319.331 251.913C318.085 255.649 313.647 258.141 306.352 259.87C299.058 261.598 295.016 269.345 296.194 271.702C297.373 274.059 309.161 276.248 313.876 275.575C318.592 274.901 323.335 268.085 324.762 265.976C326.189 263.867 327.853 249.136 326.338 247.117C324.822 245.095 321.638 245.406 321.638 245.406L319.331 251.913Z" fill="#F28F8F"/>
</svg>
