<svg width="636" height="636" viewBox="0 0 636 636" fill="none" xmlns="http://www.w3.org/2000/svg">
<path d="M636 486.41H0V486.728H636V486.41Z" fill="#EBEBEB"/>
<path d="M572.274 506.884H530.143V507.202H572.274V506.884Z" fill="#EBEBEB"/>
<path d="M421.312 510.337H410.254V510.655H421.312V510.337Z" fill="#EBEBEB"/>
<path d="M528.87 495.073H504.458V495.391H528.87V495.073Z" fill="#EBEBEB"/>
<path d="M121.67 497.21H66.728V497.528H121.67V497.21Z" fill="#EBEBEB"/>
<path d="M141.051 497.21H132.995V497.528H141.051V497.21Z" fill="#EBEBEB"/>
<path d="M286.387 502.581H167.231V502.899H286.387V502.581Z" fill="#EBEBEB"/>
<path d="M301.482 429.682H55.8597C51.8567 429.682 48.5991 426.424 48.5991 422.421V77.1595C48.5991 73.1565 51.8567 69.8989 55.8597 69.8989H301.482C305.483 69.8989 308.741 73.1565 308.741 77.1595V422.421C308.741 426.424 305.483 429.682 301.482 429.682ZM55.8597 70.2182C52.031 70.2182 48.9171 73.3321 48.9171 77.1608V422.422C48.9171 426.251 52.031 429.365 55.8597 429.365H301.482C305.309 429.365 308.423 426.251 308.423 422.422V77.1595C308.423 73.3321 305.309 70.2169 301.482 70.2169L55.8597 70.2182Z" fill="#EBEBEB"/>
<path d="M576.61 429.682H330.99C326.987 429.682 323.73 426.424 323.73 422.421V77.1595C323.73 73.1565 326.988 69.8989 330.99 69.8989H576.61C580.615 69.8989 583.871 73.1565 583.871 77.1595V422.421C583.872 426.424 580.615 429.682 576.61 429.682ZM330.99 70.2182C327.162 70.2182 324.048 73.3321 324.048 77.1608V422.422C324.048 426.251 327.162 429.365 330.99 429.365H576.61C580.439 429.365 583.553 426.251 583.553 422.422V77.1595C583.553 73.3321 580.439 70.2169 576.61 70.2169L330.99 70.2182Z" fill="#EBEBEB"/>
<path d="M322.082 200.741C320.077 191.071 316.246 182.08 311.005 174.096L320.546 162.572L300.15 142.174L288.626 151.714C280.641 146.476 271.651 142.642 261.982 140.639L260.583 125.786H231.737L230.337 140.639C220.669 142.643 211.677 146.476 203.694 151.714L192.17 142.174L171.772 162.572L181.312 174.096C176.073 182.079 172.24 191.07 170.235 200.739L155.382 202.14V230.984L170.235 232.384C172.241 242.053 176.073 251.042 181.312 259.026L171.772 270.551L192.17 290.948L203.694 281.407C211.677 286.649 220.669 290.479 230.337 292.485L231.737 307.339H260.583L261.982 292.487C271.651 290.483 280.641 286.65 288.626 281.408L300.15 290.95L320.546 270.552L311.005 259.029C316.246 251.043 320.077 242.054 322.082 232.385L336.935 230.985V202.141L322.082 200.741ZM285.208 216.563C285.208 238.129 267.724 255.613 246.157 255.613C224.591 255.613 207.107 238.13 207.107 216.563C207.107 194.996 224.591 177.513 246.157 177.513C267.725 177.513 285.208 194.996 285.208 216.563Z" fill="#E0E0E0"/>
<path d="M404.814 339.18L405.819 349.853H426.545L427.548 339.183C434.497 337.741 440.957 334.988 446.693 331.222L454.974 338.079L469.63 323.421L462.775 315.142C466.542 309.405 469.293 302.945 470.735 295.998L481.405 294.993V274.269L470.735 273.262C469.294 266.314 466.542 259.854 462.775 254.12L469.63 245.839L454.974 231.182L446.693 238.037C440.957 234.274 434.497 231.519 427.548 230.078L426.545 219.41L405.819 219.407L404.814 230.079C397.866 231.522 391.407 234.276 385.669 238.038L377.39 231.183L362.734 245.841L369.589 254.121C365.823 259.858 363.071 266.316 361.63 273.264L350.958 274.27V294.996L361.63 296.001C363.069 302.946 365.823 309.408 369.587 315.144L362.732 323.424L377.388 338.081L385.668 331.225C391.407 334.988 397.866 337.741 404.814 339.18ZM416.181 312.688C400.686 312.688 388.124 300.126 388.124 284.63C388.124 269.135 400.686 256.574 416.181 256.574C431.677 256.574 444.238 269.135 444.238 284.63C444.238 300.126 431.677 312.688 416.181 312.688Z" fill="#E0E0E0"/>
<path d="M140.57 441.287L141.082 446.73H151.653L152.164 441.289C155.708 440.553 159.002 439.149 161.928 437.23L166.151 440.726L173.625 433.252L170.129 429.029C172.049 426.103 173.452 422.808 174.189 419.266L179.63 418.754V408.183L174.189 407.671C173.454 404.127 172.049 400.833 170.129 397.908L173.625 393.685L166.151 386.211L161.928 389.706C159.002 387.787 155.708 386.383 152.164 385.647L151.653 380.207L141.082 380.206L140.57 385.649C137.027 386.384 133.733 387.788 130.806 389.708L126.584 386.212L119.11 393.684L122.605 397.907C120.686 400.833 119.282 404.126 118.546 407.67L113.104 408.182V418.753L118.546 419.265C119.28 422.808 120.685 426.102 122.605 429.028L119.11 433.251L126.584 440.725L130.806 437.228C133.732 439.149 137.026 440.553 140.57 441.287ZM146.366 427.776C138.465 427.776 132.058 421.37 132.058 413.467C132.058 405.566 138.465 399.159 146.366 399.159C154.269 399.159 160.675 405.564 160.675 413.467C160.675 421.37 154.271 427.776 146.366 427.776Z" fill="#F0F0F0"/>
<path d="M520.565 414.876L520.987 419.355H529.686L530.107 414.877C533.024 414.271 535.735 413.116 538.142 411.537L541.618 414.414L547.769 408.262L544.892 404.787C546.473 402.379 547.628 399.667 548.233 396.752L552.712 396.33V387.631L548.232 387.208C547.628 384.292 546.471 381.581 544.89 379.173L547.768 375.698L541.616 369.546L538.141 372.424C535.733 370.844 533.023 369.688 530.106 369.084L529.685 364.606L520.986 364.605L520.563 369.085C517.648 369.69 514.936 370.845 512.528 372.425L509.053 369.548L502.902 375.699L505.779 379.174C504.199 381.582 503.043 384.293 502.439 387.21L497.96 387.632V396.331L502.44 396.753C503.044 399.669 504.2 402.381 505.78 404.789L502.903 408.264L509.054 414.415L512.529 411.538C514.937 413.115 517.649 414.271 520.565 414.876ZM525.336 403.756C518.832 403.756 513.56 398.483 513.56 391.98C513.56 385.476 518.832 380.203 525.336 380.203C531.84 380.203 537.112 385.476 537.112 391.98C537.112 398.483 531.84 403.756 525.336 403.756Z" fill="#F0F0F0"/>
<path d="M294.754 484.315H319.431L320.627 471.611C328.898 469.896 336.588 466.615 343.417 462.134L353.275 470.295L370.723 452.849L362.563 442.991C367.044 436.161 370.322 428.471 372.037 420.198L384.742 419.002V394.326L372.037 393.131C370.321 384.859 367.043 377.168 362.563 370.339L370.723 360.481L353.275 343.034L343.417 351.194C336.586 346.713 328.897 343.434 320.627 341.718L319.431 329.013H294.754L293.558 341.718C285.287 343.434 277.597 346.713 270.765 351.194L260.909 343.034L243.459 360.481L251.622 370.339C247.139 377.17 243.86 384.859 242.145 393.131L229.439 394.326V419.002L242.145 420.198C243.86 428.471 247.139 436.161 251.622 442.989L243.459 452.85L260.909 470.297L270.765 462.135C277.597 466.617 285.287 469.897 293.558 471.612L294.754 484.315ZM307.093 440.066C288.643 440.066 273.689 425.111 273.689 406.662C273.689 388.216 288.643 373.259 307.093 373.259C325.542 373.259 340.497 388.216 340.497 406.662C340.497 425.113 325.542 440.066 307.093 440.066Z" fill="#E0E0E0"/>
<path d="M432.683 439.166L431.377 436.676C427.122 428.571 417.066 425.437 408.959 429.693L403.014 432.814C394.905 437.071 391.772 447.128 396.027 455.233L397.333 457.723L393.188 459.899L408.136 488.377L451.778 465.467L436.83 436.989L432.683 439.166ZM423.593 460.954L426.201 465.922L423.036 467.583L420.429 462.616C419.239 462.544 418.109 461.929 417.514 460.797C416.61 459.075 417.274 456.944 418.995 456.041C420.719 455.137 422.848 455.8 423.752 457.522C424.348 458.653 424.209 459.934 423.593 460.954ZM426.13 442.605L403.886 454.282L402.58 451.793C400.222 447.3 401.961 441.726 406.454 439.368L412.4 436.246C416.892 433.888 422.465 435.623 424.823 440.116L426.13 442.605Z" fill="#F0F0F0"/>
<path d="M127.598 287.922L128.52 285.266C131.523 276.618 126.93 267.139 118.282 264.136L111.938 261.933C103.286 258.928 93.8073 263.523 90.8041 272.17L89.8819 274.826L85.4591 273.29L74.9092 303.673L121.472 319.842L132.022 289.459L127.598 287.922ZM105.487 296.193L103.646 301.493L100.269 300.32L102.11 295.02C101.349 294.103 101.025 292.858 101.444 291.65C102.083 289.812 104.09 288.841 105.927 289.478C107.766 290.116 108.738 292.124 108.101 293.962C107.681 295.169 106.652 295.945 105.487 296.193ZM120.607 285.494L96.8754 277.254L97.7976 274.598C99.4626 269.805 104.719 267.261 109.511 268.925L115.855 271.128C120.648 272.793 123.194 278.045 121.529 282.838L120.607 285.494Z" fill="#F0F0F0"/>
<path d="M544.324 273.056L541.604 272.191C547.583 271.111 552.801 266.918 554.77 260.723C557.603 251.809 552.673 242.284 543.758 239.451C534.843 236.617 525.318 241.548 522.485 250.463C520.516 256.658 522.356 263.094 526.616 267.428L523.896 266.564C515.617 263.932 506.77 268.512 504.138 276.792L501.416 285.358L551.828 301.38L554.55 292.814C557.18 284.534 552.604 275.688 544.324 273.056Z" fill="#F0F0F0"/>
<path d="M361.488 119.443L359.794 120.156C362.274 117.13 363.081 112.896 361.459 109.037C359.126 103.485 352.733 100.875 347.181 103.208C341.627 105.54 339.019 111.933 341.351 117.486C342.973 121.344 346.561 123.731 350.459 124.077L348.765 124.788C343.608 126.954 341.183 132.893 343.351 138.05L345.593 143.386L376.993 130.193L374.752 124.857C372.582 119.702 366.645 117.277 361.488 119.443Z" fill="#F0F0F0"/>
<path d="M134.196 155.209L132.396 154.834C136.155 153.749 139.221 150.721 140.075 146.623C141.304 140.728 137.518 134.952 131.623 133.723C125.726 132.494 119.949 136.278 118.722 142.174C117.868 146.271 119.47 150.273 122.483 152.768L120.685 152.393C115.209 151.252 109.843 154.767 108.702 160.244L107.522 165.91L140.864 172.856L142.044 167.19C143.185 161.714 139.672 156.35 134.196 155.209Z" fill="#F0F0F0"/>
<path d="M318 543.858C454.208 543.858 564.627 537.409 564.627 529.455C564.627 521.5 454.208 515.052 318 515.052C181.792 515.052 71.373 521.5 71.373 529.455C71.373 537.409 181.792 543.858 318 543.858Z" fill="#F5F5F5"/>
<path d="M469.599 467.753H242.014C236.876 467.753 232.708 463.587 232.708 458.447V179.016C232.708 173.877 236.874 169.71 242.014 169.71H469.599C474.738 169.71 478.905 173.876 478.905 179.016V458.447C478.905 463.587 474.74 467.753 469.599 467.753Z" fill="#407BFF"/>
<path opacity="0.6" d="M469.599 467.753H242.014C236.876 467.753 232.708 463.587 232.708 458.447V179.016C232.708 173.877 236.874 169.71 242.014 169.71H469.599C474.738 169.71 478.905 173.876 478.905 179.016V458.447C478.905 463.587 474.74 467.753 469.599 467.753Z" fill="white"/>
<path d="M439.019 353.323H272.595V381.82H439.019V353.323Z" fill="white"/>
<g opacity="0.4">
<path d="M280.98 367.008C280.98 364.615 282.799 362.853 285.26 362.853C286.451 362.853 287.523 363.251 288.247 364.044L287.699 364.593C287.033 363.917 286.217 363.624 285.284 363.624C283.313 363.624 281.832 365.072 281.832 367.008C281.832 368.944 283.314 370.39 285.284 370.39C286.217 370.39 287.035 370.099 287.699 369.409L288.247 369.957C287.524 370.751 286.451 371.159 285.249 371.159C282.799 371.161 280.98 369.399 280.98 367.008Z" fill="#263238"/>
<path d="M289.029 368.023C289.029 366.202 290.359 364.908 292.155 364.908C293.952 364.908 295.27 366.202 295.27 368.023C295.27 369.842 293.952 371.148 292.155 371.148C290.36 371.148 289.029 369.842 289.029 368.023ZM294.43 368.023C294.43 366.587 293.462 365.63 292.155 365.63C290.848 365.63 289.869 366.587 289.869 368.023C289.869 369.457 290.85 370.414 292.155 370.414C293.462 370.414 294.43 369.457 294.43 368.023Z" fill="#263238"/>
<path d="M302.606 367.532V371.089H301.778V367.614C301.778 366.318 301.102 365.654 299.935 365.654C298.616 365.654 297.788 366.472 297.788 367.87V371.089H296.96V364.955H297.752V366.087C298.196 365.34 299.024 364.908 300.087 364.908C301.581 364.908 302.606 365.771 302.606 367.532Z" fill="#263238"/>
<path d="M306.854 362.376C307.308 362.376 307.776 362.506 308.079 362.762L307.799 363.38C307.566 363.181 307.239 363.077 306.889 363.077C306.178 363.077 305.804 363.473 305.804 364.232V364.955H307.693V365.654H305.827V371.089H304.999V365.654H303.903V364.955H304.999V364.195C304.999 363.1 305.652 362.376 306.854 362.376ZM310.773 363.007C310.773 363.345 310.516 363.614 310.166 363.614C309.828 363.614 309.559 363.345 309.559 363.019C309.559 362.703 309.828 362.435 310.166 362.435C310.505 362.435 310.773 362.692 310.773 363.007ZM309.748 364.955H310.576V371.089H309.748V364.955Z" fill="#263238"/>
<path d="M315.977 364.908V365.713C315.907 365.713 315.837 365.701 315.778 365.701C314.495 365.701 313.714 366.518 313.714 367.964V371.089H312.886V364.955H313.679V366.155C314.064 365.34 314.846 364.908 315.977 364.908Z" fill="#263238"/>
<path d="M327.595 367.532V371.089H326.767V367.614C326.767 366.318 326.113 365.654 325.005 365.654C323.746 365.654 322.952 366.472 322.952 367.87V371.089H322.124V367.614C322.124 366.318 321.47 365.654 320.351 365.654C319.103 365.654 318.298 366.472 318.298 367.87V371.089H317.47V364.955H318.263V366.074C318.695 365.34 319.488 364.908 320.515 364.908C321.53 364.908 322.322 365.34 322.696 366.202C323.14 365.409 324.015 364.908 325.123 364.908C326.615 364.908 327.595 365.771 327.595 367.532Z" fill="#263238"/>
<path d="M339.903 362.924V371.089H339.192L333.944 364.464V371.089H333.08V362.924H333.792L339.053 369.55V362.924H339.903Z" fill="#263238"/>
<path d="M347.731 368.278H342.598C342.692 369.562 343.672 370.414 345.013 370.414C345.759 370.414 346.424 370.146 346.891 369.609L347.358 370.146C346.81 370.798 345.958 371.148 344.991 371.148C343.078 371.148 341.771 369.842 341.771 368.023C341.771 366.202 343.044 364.908 344.77 364.908C346.496 364.908 347.744 366.179 347.744 368.023C347.742 368.093 347.731 368.185 347.731 368.278ZM342.597 367.66H346.949C346.844 366.459 345.968 365.62 344.767 365.62C343.578 365.619 342.703 366.459 342.597 367.66Z" fill="#263238"/>
<path d="M358.321 364.955L356 371.089H355.219L353.282 366.063L351.346 371.089H350.565L348.255 364.955H349.049L350.973 370.169L352.945 364.955H353.656L355.616 370.169L357.565 364.955H358.321Z" fill="#263238"/>
<path d="M369.194 365.725C369.194 367.463 367.935 368.512 365.858 368.512H363.665V371.089H362.801V362.924H365.858C367.935 362.924 369.194 363.975 369.194 365.725ZM368.331 365.725C368.331 364.419 367.468 363.672 365.835 363.672H363.665V367.755H365.835C367.468 367.754 368.331 367.008 368.331 365.725Z" fill="#263238"/>
<path d="M375.459 367.287V371.089H374.665V370.133C374.293 370.762 373.569 371.148 372.554 371.148C371.166 371.148 370.314 370.425 370.314 369.363C370.314 368.419 370.921 367.626 372.682 367.626H374.63V367.253C374.63 366.204 374.035 365.631 372.892 365.631C372.099 365.631 371.353 365.912 370.851 366.355L370.477 365.737C371.095 365.211 372.004 364.909 372.972 364.909C374.561 364.907 375.459 365.701 375.459 367.287ZM374.631 369.248V368.244H372.707C371.516 368.244 371.132 368.711 371.132 369.34C371.132 370.051 371.703 370.494 372.684 370.494C373.616 370.495 374.304 370.051 374.631 369.248Z" fill="#263238"/>
<path d="M376.859 370.391L377.233 369.737C377.723 370.123 378.552 370.425 379.415 370.425C380.583 370.425 381.061 370.029 381.061 369.422C381.061 367.824 377.083 369.083 377.083 366.658C377.083 365.654 377.947 364.908 379.51 364.908C380.303 364.908 381.166 365.13 381.679 365.479L381.318 366.144C380.781 365.77 380.14 365.619 379.51 365.619C378.401 365.619 377.913 366.05 377.913 366.634C377.913 368.29 381.89 367.042 381.89 369.399C381.89 370.46 380.958 371.148 379.359 371.148C378.341 371.148 377.362 370.821 376.859 370.391Z" fill="#263238"/>
<path d="M382.563 370.391L382.937 369.737C383.427 370.123 384.256 370.425 385.118 370.425C386.286 370.425 386.764 370.029 386.764 369.422C386.764 367.824 382.786 369.083 382.786 366.658C382.786 365.654 383.649 364.908 385.213 364.908C386.006 364.908 386.869 365.13 387.383 365.479L387.021 366.144C386.485 365.77 385.843 365.619 385.214 365.619C384.105 365.619 383.616 366.05 383.616 366.634C383.616 368.29 387.594 367.042 387.594 369.399C387.594 370.46 386.661 371.148 385.062 371.148C384.045 371.148 383.065 370.821 382.563 370.391Z" fill="#263238"/>
<path d="M398.008 364.955L395.686 371.089H394.905L392.969 366.063L391.033 371.089H390.252L387.942 364.955H388.735L390.659 370.169L392.631 364.955H393.343L395.303 370.169L397.252 364.955H398.008Z" fill="#263238"/>
<path d="M398.464 368.023C398.464 366.202 399.794 364.908 401.59 364.908C403.387 364.908 404.705 366.202 404.705 368.023C404.705 369.842 403.387 371.148 401.59 371.148C399.794 371.148 398.464 369.842 398.464 368.023ZM403.865 368.023C403.865 366.587 402.897 365.63 401.59 365.63C400.283 365.63 399.304 366.587 399.304 368.023C399.304 369.457 400.285 370.414 401.59 370.414C402.897 370.414 403.865 369.457 403.865 368.023Z" fill="#263238"/>
<path d="M409.487 364.908V365.713C409.418 365.713 409.348 365.701 409.289 365.701C408.006 365.701 407.225 366.518 407.225 367.964V371.089H406.396V364.955H407.19V366.155C407.574 365.34 408.357 364.908 409.487 364.908Z" fill="#263238"/>
<path d="M416.523 362.435V371.091H415.729V369.878C415.228 370.705 414.377 371.149 413.362 371.149C411.612 371.149 410.306 369.878 410.306 368.024C410.306 366.168 411.612 364.909 413.362 364.909C414.342 364.909 415.183 365.329 415.695 366.122V362.436L416.523 362.435ZM415.707 368.023C415.707 366.587 414.727 365.63 413.431 365.63C412.125 365.63 411.145 366.587 411.145 368.023C411.145 369.457 412.125 370.414 413.431 370.414C414.727 370.414 415.707 369.457 415.707 368.023Z" fill="#263238"/>
</g>
<path opacity="0.2" d="M439.019 409.082H272.595V437.578H439.019V409.082Z" fill="black"/>
<g opacity="0.5">
<path d="M273.615 285.942V287.859H276.137V288.305H273.615V290.375H273.1V285.497H276.444V285.943H273.615V285.942Z" fill="black"/>
<path d="M276.913 288.542C276.913 287.454 277.707 286.681 278.78 286.681C279.853 286.681 280.64 287.454 280.64 288.542C280.64 289.628 279.853 290.409 278.78 290.409C277.708 290.409 276.913 289.628 276.913 288.542ZM280.139 288.542C280.139 287.684 279.56 287.113 278.78 287.113C277.999 287.113 277.414 287.684 277.414 288.542C277.414 289.399 277.999 289.97 278.78 289.97C279.561 289.97 280.139 289.399 280.139 288.542Z" fill="black"/>
<path d="M283.501 286.681V287.162C283.459 287.162 283.417 287.154 283.382 287.154C282.615 287.154 282.149 287.642 282.149 288.507V290.375H281.654V286.709H282.127V287.426C282.359 286.939 282.825 286.681 283.501 286.681Z" fill="black"/>
<path d="M287.753 286.707V289.927C287.753 291.187 287.134 291.759 285.921 291.759C285.252 291.759 284.597 291.558 284.214 291.195L284.465 290.819C284.813 291.132 285.344 291.321 285.907 291.321C286.835 291.321 287.259 290.896 287.259 289.989V289.524C286.953 289.989 286.43 290.235 285.831 290.235C284.785 290.235 283.992 289.503 283.992 288.451C283.992 287.399 284.785 286.681 285.831 286.681C286.444 286.681 286.973 286.931 287.28 287.412V286.707H287.753ZM287.272 288.451C287.272 287.656 286.687 287.113 285.878 287.113C285.07 287.113 284.492 287.656 284.492 288.451C284.492 289.245 285.07 289.796 285.878 289.796C286.687 289.795 287.272 289.245 287.272 288.451Z" fill="black"/>
<path d="M288.773 288.542C288.773 287.454 289.567 286.681 290.64 286.681C291.713 286.681 292.5 287.454 292.5 288.542C292.5 289.628 291.713 290.409 290.64 290.409C289.568 290.409 288.773 289.628 288.773 288.542ZM292 288.542C292 287.684 291.421 287.113 290.642 287.113C289.861 287.113 289.275 287.684 289.275 288.542C289.275 289.399 289.861 289.97 290.642 289.97C291.421 289.97 292 289.399 292 288.542Z" fill="black"/>
<path d="M295.445 290.15C295.25 290.325 294.958 290.408 294.672 290.408C293.982 290.408 293.598 290.017 293.598 289.342V287.126H292.943V286.707H293.598V285.906H294.093V286.707H295.207V287.126H294.093V289.314C294.093 289.746 294.315 289.983 294.727 289.983C294.93 289.983 295.131 289.919 295.271 289.795L295.445 290.15Z" fill="black"/>
<path d="M302.096 287.169C302.096 288.206 301.343 288.834 300.103 288.834H298.793V290.375H298.277V285.497H300.103C301.343 285.495 302.096 286.122 302.096 287.169ZM301.579 287.169C301.579 286.388 301.063 285.942 300.089 285.942H298.793V288.381H300.089C301.064 288.381 301.579 287.935 301.579 287.169Z" fill="black"/>
<path d="M305.84 288.102V290.373H305.367V289.802C305.144 290.179 304.711 290.409 304.105 290.409C303.275 290.409 302.767 289.977 302.767 289.343C302.767 288.778 303.129 288.305 304.181 288.305H305.345V288.083C305.345 287.455 304.99 287.113 304.307 287.113C303.834 287.113 303.387 287.28 303.088 287.546L302.866 287.176C303.236 286.863 303.779 286.681 304.357 286.681C305.304 286.681 305.84 287.154 305.84 288.102ZM305.346 289.273V288.673H304.196C303.485 288.673 303.255 288.953 303.255 289.329C303.255 289.754 303.597 290.019 304.182 290.019C304.739 290.019 305.15 289.754 305.346 289.273Z" fill="black"/>
<path d="M306.68 289.955L306.903 289.564C307.195 289.795 307.69 289.975 308.205 289.975C308.901 289.975 309.187 289.739 309.187 289.376C309.187 288.421 306.811 289.174 306.811 287.724C306.811 287.125 307.326 286.68 308.26 286.68C308.734 286.68 309.25 286.813 309.556 287.022L309.34 287.42C309.019 287.196 308.637 287.106 308.26 287.106C307.599 287.106 307.306 287.364 307.306 287.712C307.306 288.702 309.682 287.957 309.682 289.365C309.682 289.998 309.125 290.409 308.17 290.409C307.564 290.409 306.979 290.213 306.68 289.955Z" fill="black"/>
<path d="M310.089 289.955L310.312 289.564C310.604 289.795 311.099 289.975 311.616 289.975C312.312 289.975 312.598 289.739 312.598 289.376C312.598 288.421 310.222 289.174 310.222 287.724C310.222 287.125 310.737 286.68 311.67 286.68C312.145 286.68 312.66 286.813 312.967 287.022L312.75 287.42C312.43 287.196 312.047 287.106 311.67 287.106C311.009 287.106 310.715 287.364 310.715 287.712C310.715 288.702 313.091 287.957 313.091 289.365C313.091 289.998 312.533 290.409 311.579 290.409C310.975 290.409 310.39 290.213 310.089 289.955Z" fill="black"/>
<path d="M319.318 286.708L317.931 290.373H317.464L316.308 287.37L315.152 290.373H314.685L313.306 286.708H313.781L314.931 289.823L316.108 286.708H316.533L317.703 289.823L318.867 286.708H319.318Z" fill="black"/>
<path d="M319.592 288.542C319.592 287.454 320.387 286.681 321.46 286.681C322.532 286.681 323.319 287.454 323.319 288.542C323.319 289.628 322.532 290.409 321.46 290.409C320.387 290.409 319.592 289.628 319.592 288.542ZM322.819 288.542C322.819 287.684 322.241 287.113 321.461 287.113C320.68 287.113 320.095 287.684 320.095 288.542C320.095 289.399 320.68 289.97 321.461 289.97C322.241 289.97 322.819 289.399 322.819 288.542Z" fill="black"/>
<path d="M326.181 286.681V287.162C326.139 287.162 326.097 287.154 326.063 287.154C325.296 287.154 324.829 287.642 324.829 288.507V290.375H324.334V286.709H324.808V287.426C325.038 286.939 325.505 286.681 326.181 286.681Z" fill="black"/>
<path d="M330.384 285.204V290.373H329.911V289.65C329.611 290.144 329.102 290.409 328.496 290.409C327.452 290.409 326.671 289.65 326.671 288.542C326.671 287.434 327.452 286.681 328.496 286.681C329.081 286.681 329.584 286.931 329.89 287.405V285.204H330.384ZM329.897 288.542C329.897 287.684 329.312 287.113 328.538 287.113C327.757 287.113 327.172 287.684 327.172 288.542C327.172 289.399 327.757 289.97 328.538 289.97C329.312 289.97 329.897 289.399 329.897 288.542Z" fill="black"/>
<path d="M333.989 286.744C333.989 286.242 333.578 285.893 332.867 285.893C332.275 285.893 331.843 286.088 331.536 286.458L331.167 286.178C331.544 285.719 332.121 285.455 332.903 285.455C333.878 285.455 334.505 285.921 334.505 286.667C334.505 287.857 333.229 287.913 333.229 288.911H332.713C332.714 287.761 333.989 287.656 333.989 286.744ZM332.61 290.045C332.61 289.844 332.77 289.69 332.972 289.69C333.182 289.69 333.341 289.844 333.341 290.045C333.341 290.24 333.181 290.408 332.972 290.408C332.77 290.409 332.61 290.241 332.61 290.045Z" fill="black"/>
</g>
<path d="M439.019 407.338H272.595V435.834H439.019V407.338Z" fill="#407BFF"/>
<path d="M308.881 424.898L309.396 423.811C310.121 424.468 311.361 424.941 312.615 424.941C314.302 424.941 315.026 424.286 315.026 423.436C315.026 421.052 309.117 422.558 309.117 418.934C309.117 417.428 310.288 416.148 312.852 416.148C313.994 416.148 315.18 416.454 315.988 417.012L315.528 418.127C314.679 417.584 313.717 417.333 312.852 417.333C311.193 417.333 310.482 418.03 310.482 418.88C310.482 421.262 316.391 419.771 316.391 423.353C316.391 424.845 315.193 426.128 312.614 426.128C311.125 426.125 309.661 425.623 308.881 424.898Z" fill="white"/>
<path d="M324.885 422.766H318.893C319.061 424.061 320.105 424.926 321.569 424.926C322.433 424.926 323.158 424.633 323.701 424.034L324.44 424.898C323.771 425.679 322.753 426.096 321.527 426.096C319.143 426.096 317.555 424.522 317.555 422.319C317.555 420.131 319.129 418.557 321.263 418.557C323.394 418.557 324.913 420.089 324.913 422.361C324.913 422.473 324.899 422.641 324.885 422.766ZM318.893 421.804H323.631C323.492 420.563 322.557 419.686 321.263 419.686C319.98 419.686 319.031 420.55 318.893 421.804Z" fill="white"/>
<path d="M330.925 425.581C330.522 425.929 329.907 426.096 329.308 426.096C327.817 426.096 326.968 425.274 326.968 423.783V419.728H325.713V418.628H326.968V417.011H328.306V418.628H330.424V419.728H328.306V423.729C328.306 424.524 328.724 424.97 329.462 424.97C329.852 424.97 330.229 424.844 330.508 424.622L330.925 425.581Z" fill="white"/>
<path d="M344.366 419.658C344.366 421.777 342.833 423.06 340.297 423.06H337.886V426.013H336.492V416.258H340.297C342.832 416.258 344.366 417.54 344.366 419.658ZM342.972 419.658C342.972 418.264 342.038 417.47 340.255 417.47H337.886V421.846H340.255C342.038 421.847 342.972 421.052 342.972 419.658Z" fill="white"/>
<path d="M352.01 421.553V426.013H350.741V425.037C350.296 425.705 349.473 426.096 348.317 426.096C346.644 426.096 345.586 425.204 345.586 423.922C345.586 422.738 346.353 421.762 348.553 421.762H350.673V421.498C350.673 420.368 350.018 419.714 348.693 419.714C347.816 419.714 346.924 420.021 346.353 420.509L345.795 419.506C346.562 418.892 347.662 418.558 348.846 418.558C350.866 418.558 352.01 419.532 352.01 421.553ZM350.671 423.757V422.725H348.608C347.284 422.725 346.908 423.24 346.908 423.867C346.908 424.606 347.521 425.065 348.538 425.065C349.542 425.065 350.337 424.606 350.671 423.757Z" fill="white"/>
<path d="M353.561 425.233L354.119 424.174C354.747 424.62 355.75 424.941 356.712 424.941C357.952 424.941 358.467 424.564 358.467 423.937C358.467 422.279 353.799 423.715 353.799 420.775C353.799 419.451 354.983 418.559 356.878 418.559C357.84 418.559 358.926 418.81 359.567 419.227L358.996 420.287C358.327 419.854 357.588 419.701 356.864 419.701C355.694 419.701 355.123 420.134 355.123 420.719C355.123 422.46 359.805 421.04 359.805 423.911C359.805 425.249 358.579 426.098 356.614 426.098C355.388 426.096 354.175 425.719 353.561 425.233Z" fill="white"/>
<path d="M360.548 425.233L361.105 424.174C361.733 424.62 362.736 424.941 363.698 424.941C364.938 424.941 365.454 424.564 365.454 423.937C365.454 422.279 360.786 423.715 360.786 420.775C360.786 419.451 361.97 418.559 363.866 418.559C364.827 418.559 365.914 418.81 366.555 419.227L365.984 420.287C365.314 419.854 364.577 419.701 363.852 419.701C362.681 419.701 362.109 420.134 362.109 420.719C362.109 422.46 366.793 421.04 366.793 423.911C366.793 425.249 365.566 426.098 363.601 426.098C362.374 426.096 361.161 425.719 360.548 425.233Z" fill="white"/>
<path d="M379.505 418.627L376.746 426.013H375.464L373.332 420.411L371.172 426.013H369.89L367.145 418.627H368.413L370.56 424.507L372.79 418.627H373.918L376.106 424.536L378.308 418.627H379.505Z" fill="white"/>
<path d="M379.973 422.321C379.973 420.119 381.604 418.558 383.82 418.558C386.035 418.558 387.652 420.119 387.652 422.321C387.652 424.522 386.035 426.097 383.82 426.097C381.604 426.096 379.973 424.522 379.973 422.321ZM386.3 422.321C386.3 420.746 385.24 419.728 383.82 419.728C382.399 419.728 381.325 420.746 381.325 422.321C381.325 423.895 382.399 424.927 383.82 424.927C385.242 424.926 386.3 423.895 386.3 422.321Z" fill="white"/>
<path d="M393.484 418.558V419.854C393.372 419.84 393.274 419.84 393.178 419.84C391.743 419.84 390.85 420.718 390.85 422.334V426.014H389.512V418.628H390.794V419.869C391.268 419.003 392.188 418.558 393.484 418.558Z" fill="white"/>
<path d="M402.03 415.673V426.013H400.747V424.843C400.148 425.679 399.201 426.096 398.114 426.096C395.954 426.096 394.378 424.577 394.378 422.319C394.378 420.063 395.953 418.557 398.114 418.557C399.159 418.557 400.078 418.947 400.693 419.742V415.673H402.03ZM400.707 422.321C400.707 420.746 399.633 419.728 398.226 419.728C396.805 419.728 395.732 420.746 395.732 422.321C395.732 423.895 396.805 424.927 398.226 424.927C399.633 424.926 400.707 423.895 400.707 422.321Z" fill="white"/>
<g opacity="0.6">
<path d="M303.256 213.912L300.953 210.632C300.739 210.647 300.51 210.662 300.282 210.662H297.643V213.912H296.118V203.234H300.282C303.059 203.234 304.737 204.638 304.737 206.956C304.737 208.603 303.882 209.793 302.387 210.328L304.92 213.912H303.256ZM303.212 206.956C303.212 205.431 302.189 204.56 300.236 204.56H297.643V209.366H300.236C302.189 209.366 303.212 208.482 303.212 206.956Z" fill="#263238"/>
<path d="M314.278 210.358H307.718C307.902 211.777 309.046 212.723 310.648 212.723C311.593 212.723 312.387 212.402 312.982 211.746L313.791 212.692C313.058 213.547 311.944 214.004 310.602 214.004C307.993 214.004 306.254 212.28 306.254 209.87C306.254 207.475 307.978 205.751 310.312 205.751C312.646 205.751 314.31 207.429 314.31 209.916C314.309 210.038 314.292 210.221 314.278 210.358ZM307.718 209.305H312.906C312.753 207.948 311.732 206.986 310.312 206.986C308.908 206.987 307.87 207.933 307.718 209.305Z" fill="#263238"/>
<path d="M315.32 213.059L315.93 211.899C316.616 212.387 317.715 212.738 318.768 212.738C320.125 212.738 320.69 212.326 320.69 211.639C320.69 209.824 315.579 211.395 315.579 208.177C315.579 206.727 316.877 205.751 318.95 205.751C320.003 205.751 321.193 206.026 321.895 206.484L321.269 207.644C320.536 207.171 319.729 207.003 318.935 207.003C317.654 207.003 317.027 207.476 317.027 208.116C317.027 210.024 322.153 208.467 322.153 211.61C322.153 213.074 320.81 214.005 318.659 214.005C317.318 214.004 315.99 213.593 315.32 213.059Z" fill="#263238"/>
<path d="M331.265 210.358H324.706C324.888 211.777 326.032 212.723 327.635 212.723C328.58 212.723 329.374 212.402 329.969 211.746L330.778 212.692C330.046 213.547 328.931 214.004 327.589 214.004C324.981 214.004 323.242 212.28 323.242 209.87C323.242 207.475 324.965 205.751 327.299 205.751C329.634 205.751 331.297 207.429 331.297 209.916C331.296 210.038 331.281 210.221 331.265 210.358ZM324.706 209.305H329.893C329.74 207.948 328.719 206.986 327.299 206.986C325.895 206.987 324.858 207.933 324.706 209.305Z" fill="#263238"/>
<path d="M337.876 213.44C337.433 213.822 336.763 214.004 336.107 214.004C334.473 214.004 333.544 213.103 333.544 211.471V207.032H332.17V205.827H333.544V204.058H335.008V205.827H337.327V207.032H335.008V211.41C335.008 212.28 335.466 212.767 336.275 212.767C336.701 212.767 337.114 212.63 337.418 212.386L337.876 213.44Z" fill="#263238"/>
<path d="M352.588 206.956C352.588 209.275 350.911 210.679 348.134 210.679H345.494V213.912H343.969V203.234H348.134C350.911 203.234 352.588 204.637 352.588 206.956ZM351.063 206.956C351.063 205.431 350.041 204.56 348.088 204.56H345.494V209.351H348.088C350.042 209.352 351.063 208.482 351.063 206.956Z" fill="#263238"/>
<path d="M360.954 209.032V213.913H359.567V212.846C359.078 213.579 358.179 214.005 356.912 214.005C355.081 214.005 353.921 213.028 353.921 211.625C353.921 210.328 354.761 209.26 357.171 209.26H359.49V208.97C359.49 207.734 358.773 207.018 357.324 207.018C356.362 207.018 355.387 207.354 354.761 207.888L354.152 206.789C354.99 206.119 356.196 205.752 357.492 205.752C359.704 205.751 360.954 206.818 360.954 209.032ZM359.49 211.441V210.311H357.232C355.784 210.311 355.371 210.876 355.371 211.562C355.371 212.371 356.042 212.874 357.156 212.874C358.255 212.876 359.124 212.372 359.49 211.441Z" fill="#263238"/>
<path d="M362.652 213.059L363.263 211.899C363.949 212.387 365.048 212.738 366.101 212.738C367.458 212.738 368.023 212.326 368.023 211.639C368.023 209.824 362.912 211.395 362.912 208.177C362.912 206.727 364.209 205.751 366.283 205.751C367.336 205.751 368.525 206.026 369.227 206.484L368.601 207.644C367.869 207.171 367.061 207.003 366.267 207.003C364.986 207.003 364.361 207.476 364.361 208.116C364.361 210.024 369.486 208.467 369.486 211.61C369.486 213.074 368.144 214.005 365.993 214.005C364.651 214.004 363.324 213.593 362.652 213.059Z" fill="#263238"/>
<path d="M370.299 213.059L370.91 211.899C371.597 212.387 372.694 212.738 373.748 212.738C375.105 212.738 375.67 212.326 375.67 211.639C375.67 209.824 370.559 211.395 370.559 208.177C370.559 206.727 371.856 205.751 373.93 205.751C374.983 205.751 376.172 206.026 376.874 206.484L376.248 207.644C375.516 207.171 374.708 207.003 373.914 207.003C372.633 207.003 372.008 207.476 372.008 208.116C372.008 210.024 377.133 208.467 377.133 211.61C377.133 213.074 375.791 214.005 373.64 214.005C372.298 214.004 370.971 213.593 370.299 213.059Z" fill="#263238"/>
<path d="M391.051 205.827L388.03 213.912H386.625L384.291 207.78L381.927 213.912H380.522L377.517 205.827H378.906L381.255 212.265L383.696 205.827H384.932L387.328 212.295L389.738 205.827H391.051Z" fill="#263238"/>
<path d="M391.562 209.87C391.562 207.459 393.347 205.751 395.772 205.751C398.198 205.751 399.967 207.459 399.967 209.87C399.967 212.28 398.197 214.004 395.772 214.004C393.347 214.004 391.562 212.28 391.562 209.87ZM398.488 209.87C398.488 208.146 397.328 207.032 395.772 207.032C394.215 207.032 393.041 208.146 393.041 209.87C393.041 211.593 394.215 212.723 395.772 212.723C397.328 212.723 398.488 211.595 398.488 209.87Z" fill="#263238"/>
<path d="M406.349 205.751V207.169C406.227 207.154 406.12 207.154 406.013 207.154C404.442 207.154 403.466 208.114 403.466 209.884V213.911H402.001V205.826H403.404V207.183C403.925 206.239 404.931 205.751 406.349 205.751Z" fill="#263238"/>
<path d="M415.705 202.593V213.912H414.302V212.631C413.646 213.547 412.608 214.004 411.418 214.004C409.054 214.004 407.33 212.341 407.33 209.87C407.33 207.398 409.054 205.751 411.418 205.751C412.563 205.751 413.569 206.178 414.241 207.048V202.594H415.705V202.593ZM414.256 209.87C414.256 208.146 413.082 207.032 411.54 207.032C409.985 207.032 408.809 208.146 408.809 209.87C408.809 211.593 409.985 212.723 411.54 212.723C413.082 212.723 414.256 211.595 414.256 209.87Z" fill="#263238"/>
</g>
<path d="M439.019 310.578H272.595V339.074H439.019V310.578Z" fill="white"/>
<g opacity="0.4">
<path d="M288.526 320.179V328.345H287.814L282.566 321.719V328.345H281.702V320.179H282.413L287.674 326.805V320.179H288.526Z" fill="#263238"/>
<path d="M296.354 325.534H291.222C291.316 326.817 292.295 327.668 293.636 327.668C294.383 327.668 295.048 327.4 295.515 326.863L295.982 327.4C295.433 328.054 294.581 328.404 293.614 328.404C291.701 328.404 290.395 327.097 290.395 325.277C290.395 323.457 291.666 322.163 293.393 322.163C295.119 322.163 296.367 323.434 296.367 325.277C296.366 325.346 296.354 325.44 296.354 325.534ZM291.222 324.915H295.573C295.468 323.714 294.593 322.874 293.392 322.874C292.201 322.874 291.326 323.714 291.222 324.915Z" fill="#263238"/>
<path d="M306.946 322.209L304.625 328.345H303.844L301.908 323.317L299.972 328.345H299.191L296.881 322.209H297.675L299.599 327.424L301.571 322.209H302.283L304.242 327.424L306.191 322.209H306.946Z" fill="#263238"/>
<path d="M317.82 322.979C317.82 324.716 316.56 325.766 314.484 325.766H312.291V328.344H311.428V320.178H314.484C316.56 320.179 317.82 321.228 317.82 322.979ZM316.956 322.979C316.956 321.672 316.093 320.926 314.46 320.926H312.29V325.009H314.46C316.093 325.009 316.956 324.262 316.956 322.979Z" fill="#263238"/>
<path d="M324.084 324.542V328.345H323.29V327.389C322.917 328.018 322.194 328.404 321.178 328.404C319.791 328.404 318.938 327.68 318.938 326.619C318.938 325.674 319.545 324.881 321.307 324.881H323.254V324.507C323.254 323.458 322.659 322.887 321.517 322.887C320.723 322.887 319.976 323.167 319.475 323.609L319.103 322.991C319.721 322.467 320.63 322.164 321.598 322.164C323.186 322.163 324.084 322.954 324.084 324.542ZM323.256 326.502V325.498H321.331C320.141 325.498 319.756 325.965 319.756 326.595C319.756 327.307 320.327 327.75 321.308 327.75C322.241 327.75 322.929 327.306 323.256 326.502Z" fill="#263238"/>
<path d="M325.483 327.644L325.856 326.99C326.345 327.376 327.175 327.679 328.037 327.679C329.205 327.679 329.682 327.283 329.682 326.676C329.682 325.077 325.703 326.338 325.703 323.911C325.703 322.909 326.567 322.162 328.13 322.162C328.924 322.162 329.786 322.383 330.3 322.733L329.939 323.397C329.402 323.024 328.761 322.873 328.131 322.873C327.022 322.873 326.534 323.304 326.534 323.888C326.534 325.544 330.511 324.295 330.511 326.652C330.511 327.714 329.579 328.402 327.98 328.402C326.965 328.404 325.985 328.077 325.483 327.644Z" fill="#263238"/>
<path d="M331.188 327.644L331.561 326.99C332.05 327.376 332.88 327.679 333.742 327.679C334.909 327.679 335.387 327.283 335.387 326.676C335.387 325.077 331.409 326.338 331.409 323.911C331.409 322.909 332.273 322.162 333.836 322.162C334.63 322.162 335.492 322.383 336.006 322.733L335.645 323.397C335.108 323.024 334.467 322.873 333.838 322.873C332.728 322.873 332.24 323.304 332.24 323.888C332.24 325.544 336.217 324.295 336.217 326.652C336.217 327.714 335.285 328.402 333.686 328.402C332.67 328.404 331.69 328.077 331.188 327.644Z" fill="#263238"/>
<path d="M346.633 322.209L344.311 328.345H343.53L341.594 323.317L339.658 328.345H338.877L336.567 322.209H337.361L339.286 327.424L341.257 322.209H341.97L343.93 327.424L345.878 322.209H346.633Z" fill="#263238"/>
<path d="M347.089 325.277C347.089 323.457 348.419 322.163 350.215 322.163C352.012 322.163 353.33 323.457 353.33 325.277C353.33 327.097 352.012 328.404 350.215 328.404C348.419 328.404 347.089 327.096 347.089 325.277ZM352.49 325.277C352.49 323.842 351.522 322.886 350.216 322.886C348.91 322.886 347.93 323.842 347.93 325.277C347.93 326.712 348.91 327.668 350.216 327.668C351.521 327.668 352.49 326.712 352.49 325.277Z" fill="#263238"/>
<path d="M358.112 322.163V322.968C358.042 322.968 357.973 322.956 357.914 322.956C356.631 322.956 355.85 323.774 355.85 325.219V328.345H355.021V322.209H355.814V323.411C356.199 322.593 356.982 322.163 358.112 322.163Z" fill="#263238"/>
<path d="M365.147 319.689V328.345H364.353V327.132C363.852 327.96 363 328.404 361.986 328.404C360.236 328.404 358.929 327.132 358.929 325.277C358.929 323.422 360.236 322.163 361.986 322.163C362.965 322.163 363.806 322.583 364.319 323.375V319.689H365.147ZM364.33 325.277C364.33 323.842 363.349 322.886 362.055 322.886C360.748 322.886 359.769 323.842 359.769 325.277C359.769 326.712 360.749 327.668 362.055 327.668C363.351 327.668 364.33 326.712 364.33 325.277Z" fill="#263238"/>
</g>
<path d="M439.019 246.194H272.595V274.691H439.019V246.194Z" fill="white"/>
<g opacity="0.4">
<path d="M280.98 259.878C280.98 257.499 282.799 255.725 285.272 255.725C287.722 255.725 289.553 257.487 289.553 259.878C289.553 262.27 287.722 264.031 285.272 264.031C282.799 264.031 280.98 262.258 280.98 259.878ZM288.691 259.878C288.691 257.93 287.233 256.495 285.273 256.495C283.301 256.495 281.832 257.93 281.832 259.878C281.832 261.826 283.301 263.261 285.273 263.261C287.232 263.261 288.691 261.826 288.691 259.878Z" fill="#263238"/>
<path d="M291.315 255.306H292.143V263.962H291.315V255.306Z" fill="#263238"/>
<path d="M300.052 255.306V263.962H299.259V262.748C298.758 263.576 297.905 264.019 296.892 264.019C295.141 264.019 293.835 262.748 293.835 260.892C293.835 259.038 295.141 257.777 296.892 257.777C297.871 257.777 298.712 258.197 299.224 258.991V255.304H300.052V255.306ZM299.237 260.893C299.237 259.459 298.256 258.502 296.963 258.502C295.656 258.502 294.677 259.459 294.677 260.893C294.677 262.328 295.658 263.285 296.963 263.285C298.256 263.285 299.237 262.328 299.237 260.893Z" fill="#263238"/>
<path d="M311.986 258.595C311.986 260.333 310.727 261.382 308.65 261.382H306.457V263.96H305.593V255.795H308.65C310.727 255.795 311.986 256.845 311.986 258.595ZM311.123 258.595C311.123 257.289 310.26 256.542 308.627 256.542H306.457V260.625H308.627C310.26 260.625 311.123 259.878 311.123 258.595Z" fill="#263238"/>
<path d="M318.251 260.158V263.962H317.457V263.005C317.084 263.635 316.361 264.02 315.345 264.02C313.958 264.02 313.105 263.296 313.105 262.235C313.105 261.29 313.712 260.498 315.474 260.498H317.421V260.124C317.421 259.075 316.826 258.502 315.684 258.502C314.89 258.502 314.143 258.782 313.642 259.226L313.268 258.608C313.886 258.082 314.796 257.78 315.764 257.78C317.353 257.778 318.251 258.572 318.251 260.158ZM317.423 262.118V261.115H315.498C314.308 261.115 313.923 261.582 313.923 262.211C313.923 262.922 314.495 263.366 315.475 263.366C316.408 263.366 317.096 262.922 317.423 262.118Z" fill="#263238"/>
<path d="M319.651 263.261L320.024 262.607C320.514 262.992 321.343 263.295 322.206 263.295C323.372 263.295 323.85 262.898 323.85 262.291C323.85 260.694 319.873 261.953 319.873 259.527C319.873 258.525 320.736 257.778 322.3 257.778C323.093 257.778 323.956 258 324.47 258.349L324.108 259.015C323.572 258.642 322.931 258.489 322.301 258.489C321.192 258.489 320.703 258.921 320.703 259.504C320.703 261.161 324.681 259.913 324.681 262.269C324.681 263.331 323.748 264.019 322.15 264.019C321.133 264.02 320.153 263.693 319.651 263.261Z" fill="#263238"/>
<path d="M325.356 263.261L325.73 262.607C326.22 262.992 327.049 263.295 327.912 263.295C329.08 263.295 329.558 262.898 329.558 262.291C329.558 260.694 325.579 261.953 325.579 259.527C325.579 258.525 326.443 257.778 328.006 257.778C328.8 257.778 329.662 258 330.176 258.349L329.815 259.015C329.278 258.642 328.637 258.489 328.007 258.489C326.899 258.489 326.41 258.921 326.41 259.504C326.41 261.161 330.387 259.913 330.387 262.269C330.387 263.331 329.455 264.019 327.856 264.019C326.838 264.02 325.858 263.693 325.356 263.261Z" fill="#263238"/>
<path d="M340.8 257.825L338.478 263.962H337.697L335.76 258.933L333.824 263.962H333.043L330.733 257.825H331.525L333.45 263.039L335.422 257.825H336.133L338.093 263.039L340.041 257.825H340.8Z" fill="#263238"/>
<path d="M341.256 260.893C341.256 259.073 342.586 257.778 344.382 257.778C346.179 257.778 347.497 259.073 347.497 260.893C347.497 262.712 346.179 264.02 344.382 264.02C342.587 264.02 341.256 262.712 341.256 260.893ZM346.657 260.893C346.657 259.459 345.689 258.502 344.382 258.502C343.075 258.502 342.096 259.459 342.096 260.893C342.096 262.328 343.077 263.285 344.382 263.285C345.689 263.285 346.657 262.328 346.657 260.893Z" fill="#263238"/>
<path d="M352.279 257.778V258.584C352.209 258.584 352.139 258.572 352.081 258.572C350.798 258.572 350.017 259.389 350.017 260.835V263.962H349.188V257.825H349.982V259.027C350.366 258.211 351.149 257.778 352.279 257.778Z" fill="#263238"/>
<path d="M359.314 255.306V263.962H358.52V262.748C358.019 263.576 357.168 264.019 356.153 264.019C354.403 264.019 353.096 262.748 353.096 260.892C353.096 259.038 354.403 257.777 356.153 257.777C357.132 257.777 357.972 258.197 358.486 258.991V255.304H359.314V255.306ZM358.498 260.893C358.498 259.459 357.519 258.502 356.223 258.502C354.916 258.502 353.937 259.459 353.937 260.893C353.937 262.328 354.916 263.285 356.223 263.285C357.518 263.285 358.498 262.328 358.498 260.893Z" fill="#263238"/>
</g>
<path d="M506.966 478.512C506.966 478.512 499.11 479.558 495.754 478.512C492.4 477.467 493.651 462.231 490.224 461.915C482.336 461.19 483.678 481.427 487.032 485.69C490.387 489.954 507.677 488.14 507.677 488.14L506.966 478.512Z" fill="#407BFF"/>
<path opacity="0.2" d="M506.966 478.512C506.966 478.512 499.11 479.558 495.754 478.512C492.4 477.467 493.651 462.231 490.224 461.915C482.336 461.19 483.678 481.427 487.032 485.69C490.387 489.954 507.677 488.14 507.677 488.14L506.966 478.512Z" fill="white"/>
<path d="M507.618 514.402C507.618 514.402 495.98 411.062 509.874 409.873C523.768 408.683 527.118 445.125 521.753 513.089L507.618 514.402Z" fill="#407BFF"/>
<path opacity="0.3" d="M507.618 514.402C507.618 514.402 495.98 411.062 509.874 409.873C523.768 408.683 527.118 445.125 521.753 513.089L507.618 514.402Z" fill="white"/>
<path d="M491.302 501.888H537.001L533.185 531.127H495.118L491.302 501.888Z" fill="#263238"/>
<path d="M521.419 443.75C521.419 443.75 534.081 444.425 534.459 443.75C534.837 443.074 534.837 428.449 540.205 429.314C545.572 430.178 543.224 447.783 540.205 449.831C537.185 451.878 521.419 452.986 521.419 452.986C521.419 452.986 519.306 446.494 521.419 443.75Z" fill="#407BFF"/>
<path opacity="0.4" d="M521.419 443.75C521.419 443.75 534.081 444.425 534.459 443.75C534.837 443.074 534.837 428.449 540.205 429.314C545.572 430.178 543.224 447.783 540.205 449.831C537.185 451.878 521.419 452.986 521.419 452.986C521.419 452.986 519.306 446.494 521.419 443.75Z" fill="white"/>
<path d="M513.393 504.966C511.649 489.22 510.187 473.44 509.146 457.625C508.613 449.718 508.238 441.8 508.094 433.868C508.033 429.902 508.031 425.932 508.228 421.958C508.33 419.971 508.48 417.983 508.786 415.996C508.948 415.003 509.131 414.009 509.464 413.021C509.654 412.529 509.825 412.03 510.194 411.556C510.269 411.435 510.376 411.32 510.506 411.213C510.622 411.103 510.745 410.996 510.942 410.923C511.033 410.885 511.122 410.847 511.214 410.82C511.323 410.814 511.435 410.814 511.544 410.822C511.78 410.815 511.928 410.94 512.107 411.028C512.682 411.461 512.885 411.973 513.116 412.45C513.322 412.936 513.484 413.423 513.625 413.911C513.898 414.888 514.117 415.869 514.297 416.852C514.663 418.817 514.921 420.79 515.151 422.764C515.599 426.713 515.906 430.667 516.165 434.625C516.664 442.539 517 450.457 517.185 458.379C517.382 466.3 517.501 474.222 517.559 482.144C517.585 490.066 517.563 497.988 517.477 505.909C517.401 497.988 517.26 490.069 517.073 482.15C516.914 474.232 516.712 466.315 516.422 458.402C516.115 450.49 515.808 442.578 515.263 434.684C514.99 430.739 514.669 426.795 514.209 422.874C513.973 420.915 513.71 418.959 513.343 417.032C513.164 416.067 512.947 415.113 512.682 414.186C512.547 413.724 512.394 413.27 512.212 412.847C512.032 412.437 511.784 412.016 511.56 411.855C511.515 411.848 511.466 411.773 511.442 411.807C511.429 411.81 511.417 411.805 511.401 411.793C511.38 411.806 511.357 411.824 511.333 411.834C511.287 411.835 511.223 411.891 511.161 411.955C511.096 412.003 511.031 412.066 510.977 412.158C510.727 412.465 510.556 412.915 510.393 413.343C510.087 414.231 509.904 415.191 509.745 416.15C509.44 418.077 509.284 420.042 509.175 422.01C508.964 425.947 508.952 429.903 508.999 433.856C509.098 441.766 509.493 449.674 509.908 457.58C510.342 465.486 510.885 473.386 511.483 481.283C512.054 489.181 512.682 497.076 513.393 504.966Z" fill="#407BFF"/>
<path d="M523.012 447.221L530.369 446.656C531.589 446.538 532.812 446.453 534.015 446.29C534.614 446.21 535.217 446.132 535.783 445.999C536.055 445.933 536.349 445.85 536.523 445.755C536.526 445.744 536.614 445.696 536.558 445.734C536.535 445.757 536.551 445.764 536.525 445.814C536.495 445.858 536.514 445.967 536.528 445.964C536.502 445.772 536.459 445.535 536.466 445.377C536.601 442.795 537.11 440.427 537.633 438.002C538.191 435.602 538.728 433.186 539.621 430.875C539.359 432.078 539.162 433.29 538.977 434.508L538.384 438.144L537.837 441.781C537.671 442.982 537.479 444.222 537.46 445.365C537.452 445.514 537.481 445.58 537.477 445.695C537.494 445.769 537.507 445.954 537.476 446.075C537.448 446.204 537.387 446.261 537.329 446.349C537.192 446.522 537.119 446.524 537.004 446.612C536.632 446.803 536.321 446.866 535.998 446.946C535.363 447.083 534.744 447.164 534.122 447.224C532.879 447.333 531.647 447.409 530.41 447.417C527.939 447.459 525.474 447.416 523.012 447.221Z" fill="#407BFF"/>
<path d="M523.012 450.598C525.778 450.133 528.55 449.754 531.317 449.357L535.463 448.768C536.804 448.554 538.297 448.356 539.436 447.982C539.481 447.968 539.701 447.705 539.803 447.416C539.929 447.131 540.028 446.812 540.119 446.49C540.297 445.841 540.428 445.163 540.543 444.484C540.779 443.123 540.908 441.736 541.085 440.355C541.393 437.585 541.614 434.796 541.881 432.006C542.026 434.808 541.996 437.613 541.845 440.419C541.788 441.824 541.632 443.222 541.435 444.625C541.33 445.326 541.213 446.028 541.035 446.733C540.942 447.085 540.843 447.439 540.694 447.797C540.533 448.142 540.413 448.552 539.842 448.886C539.039 449.174 538.391 449.237 537.677 449.368L535.585 449.662C534.191 449.834 532.8 450.013 531.402 450.112C528.612 450.353 525.817 450.54 523.012 450.598Z" fill="#407BFF"/>
<path d="M503.055 481.34C500.719 481.461 498.381 481.413 496.041 481.195C494.866 481.083 493.705 480.939 492.515 480.556C492.36 480.494 492.229 480.47 492.052 480.375C491.848 480.267 491.696 480.133 491.577 479.99C491.329 479.708 491.184 479.414 491.047 479.123C490.79 478.54 490.636 477.955 490.496 477.371C490 475.03 489.853 472.688 489.807 470.347C489.769 468.008 489.821 465.672 490.051 463.344C490.234 465.674 490.373 467.996 490.57 470.308C490.791 472.613 490.972 474.938 491.464 477.151C491.729 478.196 491.99 479.502 492.834 479.676C493.845 480.062 495.013 480.228 496.139 480.442C498.421 480.811 500.737 481.051 503.055 481.34Z" fill="#407BFF"/>
<path d="M487.708 465.184L488.533 473.314C488.826 476.013 489.052 478.73 489.567 481.364C489.684 482.022 489.821 482.678 490.016 483.281C490.116 483.557 490.248 483.89 490.365 484.006L490.679 484.23C490.806 484.297 490.956 484.355 491.094 484.42C492.264 484.9 493.639 485.076 494.954 485.32C497.625 485.73 500.339 485.977 503.053 486.25C500.325 486.389 497.591 486.334 494.856 486.078C493.484 485.942 492.127 485.76 490.752 485.257C490.579 485.181 490.407 485.119 490.234 485.03C490.058 484.913 489.883 484.795 489.714 484.666C489.354 484.282 489.271 483.944 489.12 483.595C488.881 482.908 488.724 482.229 488.592 481.549C488.144 478.819 487.906 476.101 487.774 473.371C487.653 470.643 487.602 467.914 487.708 465.184Z" fill="#407BFF"/>
<path d="M459.151 177.531C467.389 163.149 485.79 158.153 500.171 166.39L498.942 168.535L507.463 166.221L505.149 157.7L503.921 159.845C485.931 149.539 462.91 155.792 452.604 173.782C444.621 187.718 446.368 205.193 456.951 217.264L462.624 212.292C454.165 202.639 452.77 188.671 459.151 177.531Z" fill="#263238"/>
<path d="M513.92 168.152L508.166 173.03C516.316 182.648 517.581 196.464 511.31 207.41C503.072 221.791 484.672 226.787 470.29 218.55L471.519 216.405L462.998 218.719L465.312 227.24L466.541 225.097C484.53 235.403 507.551 229.15 517.857 211.16C525.7 197.468 524.118 180.184 513.92 168.152Z" fill="#263238"/>
<g opacity="0.6">
<path d="M459.151 177.531C467.389 163.149 485.79 158.153 500.171 166.39L498.942 168.535L507.463 166.221L505.149 157.7L503.921 159.845C485.931 149.539 462.91 155.792 452.604 173.782C444.621 187.718 446.368 205.193 456.951 217.264L462.624 212.292C454.165 202.639 452.77 188.671 459.151 177.531Z" fill="white"/>
<path d="M513.92 168.152L508.166 173.03C516.316 182.648 517.581 196.464 511.31 207.41C503.072 221.791 484.672 226.787 470.29 218.55L471.519 216.405L462.998 218.719L465.312 227.24L466.541 225.097C484.53 235.403 507.551 229.15 517.857 211.16C525.7 197.468 524.118 180.184 513.92 168.152Z" fill="white"/>
</g>
<path d="M479.819 156.825H471.527V131.373C471.527 121.645 463.612 113.731 453.884 113.731C444.156 113.731 436.241 121.646 436.241 131.373V156.825H427.949V131.373C427.949 117.072 439.583 105.437 453.884 105.437C468.185 105.437 479.819 117.071 479.819 131.373V156.825Z" fill="#263238"/>
<g opacity="0.3">
<path d="M479.819 156.825H471.527V131.373C471.527 121.645 463.612 113.731 453.884 113.731C444.156 113.731 436.241 121.646 436.241 131.373V156.825H427.949V131.373C427.949 117.072 439.583 105.437 453.884 105.437C468.185 105.437 479.819 117.071 479.819 131.373V156.825Z" fill="white"/>
</g>
<path d="M489.322 150.349V191.982C489.322 194.653 487.16 196.815 484.489 196.815H423.254C420.609 196.815 418.446 194.653 418.446 191.982V150.349C418.446 147.678 420.609 145.516 423.254 145.516H484.489C485.315 145.516 486.104 145.719 486.778 146.101C488.292 146.902 489.322 148.505 489.322 150.349Z" fill="#407BFF"/>
<path opacity="0.2" d="M486.778 146.101V186.894C486.778 189.565 484.616 191.715 481.945 191.715H420.71C419.896 191.715 419.12 191.511 418.446 191.142V150.349C418.446 147.678 420.609 145.516 423.254 145.516H484.489C485.317 145.516 486.105 145.719 486.778 146.101Z" fill="white"/>
<path opacity="0.5" d="M463.003 165.939C463.003 160.806 458.921 156.646 453.884 156.646C448.847 156.646 444.765 160.806 444.765 165.939C444.765 169.929 447.247 173.304 450.712 174.62L450.236 185.684H457.532L456.443 174.815C460.225 173.683 463.003 170.159 463.003 165.939Z" fill="black"/>
<path d="M162.013 177.539L166.234 191.099L170.454 177.539H162.013Z" fill="#407BFF"/>
<path d="M200.761 181.671H131.705C125.67 181.671 120.776 176.777 120.776 170.742V156.032C120.776 149.997 125.67 145.103 131.705 145.103H200.761C206.797 145.103 211.69 149.997 211.69 156.032V170.742C211.69 176.777 206.798 181.671 200.761 181.671Z" fill="#407BFF"/>
<path d="M142.148 163.371L144.541 164.719L143.918 165.824L141.484 164.397L141.505 167.132H140.299L140.319 164.397L137.886 165.824L137.263 164.719L139.676 163.371L137.263 162.044L137.886 160.918L140.319 162.345L140.299 159.631H141.505L141.484 162.345L143.918 160.918L144.541 162.044L142.148 163.371Z" fill="white"/>
<path d="M150.592 163.371L152.985 164.719L152.361 165.824L149.929 164.397L149.95 167.132H148.744L148.764 164.397L146.331 165.824L145.708 164.719L148.12 163.371L145.708 162.044L146.331 160.918L148.764 162.345L148.744 159.631H149.95L149.929 162.345L152.361 160.918L152.985 162.044L150.592 163.371Z" fill="white"/>
<path d="M159.037 163.371L161.429 164.719L160.806 165.824L158.373 164.397L158.393 167.132H157.187L157.207 164.397L154.774 165.824L154.151 164.719L156.564 163.371L154.151 162.044L154.774 160.918L157.207 162.345L157.187 159.631H158.393L158.373 162.345L160.806 160.918L161.429 162.044L159.037 163.371Z" fill="white"/>
<path d="M167.48 163.371L169.873 164.719L169.25 165.824L166.817 164.397L166.837 167.132H165.631L165.651 164.397L163.218 165.824L162.595 164.719L165.008 163.371L162.595 162.044L163.218 160.918L165.651 162.345L165.631 159.631H166.837L166.817 162.345L169.25 160.918L169.873 162.044L167.48 163.371Z" fill="white"/>
<path d="M175.925 163.371L178.318 164.719L177.695 165.824L175.261 164.397L175.282 167.132H174.076L174.096 164.397L171.663 165.824L171.04 164.719L173.453 163.371L171.04 162.044L171.663 160.918L174.096 162.345L174.076 159.631H175.282L175.261 162.345L177.695 160.918L178.318 162.044L175.925 163.371Z" fill="white"/>
<path d="M184.369 163.371L186.761 164.719L186.138 165.824L183.705 164.397L183.725 167.132H182.519L182.54 164.397L180.106 165.824L179.483 164.719L181.896 163.371L179.483 162.044L180.106 160.918L182.54 162.345L182.519 159.631H183.725L183.705 162.345L186.138 160.918L186.761 162.044L184.369 163.371Z" fill="white"/>
<path d="M192.813 163.371L195.206 164.719L194.583 165.824L192.15 164.397L192.17 167.132H190.964L190.984 164.397L188.551 165.824L187.928 164.719L190.341 163.371L187.928 162.044L188.551 160.918L190.984 162.345L190.964 159.631H192.17L192.15 162.345L194.583 160.918L195.206 162.044L192.813 163.371Z" fill="white"/>
<path d="M221.419 272.292L229.18 267.27L220.443 261.907C220.443 261.907 213.789 266.806 216.456 270.127L221.419 272.292Z" fill="#B55B52"/>
<path d="M233.157 259.024L224.079 256.963L220.442 261.907L229.18 267.27L233.157 259.024Z" fill="#B55B52"/>
<path d="M189.462 255.984C191.904 259.905 194.527 263.983 197.179 267.794C198.497 269.717 199.874 271.576 201.253 273.321C202.608 275.046 204.119 276.701 205.321 277.722C205.607 277.965 205.867 278.152 205.992 278.242C206.115 278.34 206.057 278.273 205.565 278.264C205.309 278.323 205.444 278.454 205.958 278.246C206.987 277.835 208.559 276.413 209.915 274.835C211.303 273.227 212.632 271.375 213.902 269.46C214.522 268.496 215.16 267.521 215.745 266.544L216.532 265.179C216.551 265.153 216.575 265.109 216.575 265.145C216.589 265.115 216.554 265.267 216.553 265.34C216.54 265.418 216.514 265.644 216.518 265.792L216.528 266.04C216.644 266.155 216.242 265.816 217.031 267.564C217.957 269.282 220.519 269.163 220.506 268.999C220.813 268.933 221.141 268.811 221.44 268.634C221.74 268.458 222.006 268.233 222.212 267.998L222.338 267.844C222.4 267.761 222.457 267.673 222.508 267.583L222.523 267.542C222.537 267.504 222.531 267.502 222.516 267.519C222.498 267.527 222.464 267.57 222.429 267.611C222.291 267.788 222.129 268.032 221.974 268.269L216.366 265.875C216.452 265.549 216.536 265.231 216.659 264.856C216.693 264.759 216.723 264.665 216.776 264.537C216.796 264.486 216.826 264.414 216.878 264.311L216.949 264.172C217.022 264.049 217.101 263.931 217.185 263.817C217.241 263.747 217.148 263.851 217.329 263.64C217.542 263.399 217.816 263.167 218.122 262.986C218.429 262.804 218.763 262.674 219.078 262.602C219.072 262.433 221.639 262.33 222.57 264.053C223.367 265.807 222.963 265.479 223.078 265.603L223.087 265.88C223.088 266.046 223.063 266.292 223.047 266.389L222.974 266.808L222.887 267.215C222.708 268.022 222.55 268.625 222.371 269.285C222.017 270.57 221.633 271.821 221.17 273.054C220.264 275.527 219.175 277.951 217.747 280.353C216.271 282.74 214.648 285.184 211.5 287.378C209.937 288.44 207.659 289.437 204.939 289.358C203.221 289.267 201.986 288.786 201.011 288.348C200.041 287.893 199.269 287.412 198.567 286.933C195.842 285.013 194.011 283.034 192.179 281.052C190.381 279.068 188.786 277.026 187.232 274.984C184.161 270.844 181.436 266.703 178.847 262.22L189.462 255.984Z" fill="#B55B52"/>
<path d="M185.606 250.405C190.653 252.09 201.021 275.527 201.021 275.527L183.487 283.852C183.487 283.852 179.919 265.433 180.574 259.531C181.232 253.628 185.606 250.405 185.606 250.405Z" fill="#407BFF"/>
<path opacity="0.7" d="M185.606 250.405C190.653 252.09 201.021 275.527 201.021 275.527L183.487 283.852C183.487 283.852 179.919 265.433 180.574 259.531C181.232 253.628 185.606 250.405 185.606 250.405Z" fill="white"/>
<path d="M206.217 522.194L197.286 524.722L195.16 510.824L194.016 503.391L202.946 500.863L204.468 510.824L206.217 522.194Z" fill="#B55B52"/>
<path d="M154.875 522.924L145.669 524.144L145.582 510.824L145.518 502.548L154.738 501.341L154.8 510.824L154.875 522.924Z" fill="#B55B52"/>
<path opacity="0.2" d="M154.738 501.341L154.8 510.824H145.582L145.518 502.548L154.738 501.341Z" fill="black"/>
<path opacity="0.2" d="M204.468 510.824H195.16L194.016 503.391L202.946 500.863L204.468 510.824Z" fill="black"/>
<path d="M206.107 520.801L195.966 520.528C195.586 520.518 195.248 520.771 195.153 521.137L193.022 529.303C192.801 530.151 193.422 530.975 194.299 530.984C197.96 531.021 203.254 530.949 207.851 531.073C213.228 531.218 216.646 530.953 222.951 531.124C226.763 531.227 227.96 527.418 226.376 527.028C219.169 525.251 214.458 525.602 208.318 521.58C207.65 521.145 206.909 520.823 206.107 520.801Z" fill="#263238"/>
<path d="M206.836 521.922C206.826 521.829 206.877 521.74 206.961 521.701C207.391 521.496 211.188 519.701 212.297 520.368C212.511 520.495 212.628 520.7 212.639 520.96C212.656 521.398 212.506 521.753 212.189 522.015C211.138 522.885 208.49 522.449 207.005 522.112C206.995 522.109 206.986 522.106 206.976 522.103C206.899 522.073 206.844 522.005 206.836 521.922ZM207.75 521.82C209.787 522.215 211.319 522.167 211.909 521.679C212.116 521.507 212.212 521.28 212.199 520.982C212.194 520.866 212.156 520.796 212.069 520.744C212.045 520.73 212.02 520.717 211.99 520.707C211.298 520.446 209.247 521.16 207.75 521.82Z" fill="#407BFF"/>
<path d="M206.92 522.072C206.857 522.025 206.826 521.949 206.836 521.871C206.85 521.766 207.189 519.283 208.406 518.349C208.777 518.064 209.192 517.95 209.639 518.007C210.241 518.086 210.405 518.393 210.437 518.641C210.569 519.691 208.277 521.629 207.139 522.1C207.085 522.122 207.028 522.122 206.976 522.103C206.955 522.095 206.936 522.086 206.92 522.072ZM209.58 518.442C209.249 518.399 208.952 518.482 208.673 518.695C207.875 519.308 207.49 520.789 207.345 521.512C208.514 520.859 210.078 519.33 209.999 518.699C209.994 518.659 209.982 518.56 209.802 518.493C209.745 518.471 209.672 518.453 209.58 518.442Z" fill="#407BFF"/>
<path d="M154.507 520.801L144.365 520.528C143.985 520.518 143.648 520.771 143.553 521.137L141.422 529.303C141.201 530.151 141.821 530.975 142.699 530.984C146.36 531.021 151.653 530.949 156.251 531.073C161.628 531.218 165.046 530.953 171.351 531.124C175.163 531.227 176.36 527.418 174.776 527.028C167.569 525.251 162.858 525.602 156.718 521.58C156.051 521.145 155.308 520.823 154.507 520.801Z" fill="#263238"/>
<path d="M155.236 521.922C155.226 521.829 155.277 521.74 155.361 521.701C155.791 521.496 159.588 519.701 160.697 520.368C160.911 520.495 161.028 520.7 161.039 520.96C161.057 521.398 160.905 521.753 160.589 522.015C159.538 522.885 156.89 522.449 155.404 522.112C155.394 522.109 155.385 522.106 155.376 522.103C155.3 522.073 155.245 522.005 155.236 521.922ZM156.149 521.82C158.187 522.215 159.719 522.167 160.309 521.679C160.516 521.507 160.612 521.28 160.599 520.982C160.594 520.866 160.556 520.796 160.469 520.744C160.445 520.73 160.42 520.717 160.39 520.707C159.698 520.446 157.648 521.16 156.149 521.82Z" fill="#407BFF"/>
<path d="M155.32 522.072C155.257 522.025 155.226 521.949 155.236 521.871C155.25 521.766 155.589 519.283 156.805 518.349C157.177 518.064 157.592 517.95 158.039 518.007C158.641 518.086 158.805 518.393 158.837 518.641C158.969 519.691 156.677 521.629 155.538 522.1C155.485 522.122 155.428 522.122 155.376 522.103C155.355 522.095 155.338 522.086 155.32 522.072ZM157.979 518.442C157.649 518.399 157.352 518.482 157.074 518.695C156.275 519.308 155.891 520.789 155.746 521.512C156.915 520.859 158.479 519.33 158.4 518.699C158.395 518.659 158.383 518.56 158.203 518.493C158.146 518.471 158.074 518.453 157.979 518.442Z" fill="#407BFF"/>
<path d="M135.883 320.5C131.006 341.649 139.376 507.982 139.376 507.982H155.553L162.469 369.361L187.944 507.982L205.233 506.724C193.932 399.343 183.94 335.233 183.94 335.233L183.963 327.132L135.883 320.5Z" fill="#263238"/>
<path opacity="0.2" d="M205.234 506.724L187.94 507.982L167.892 398.862L162.471 369.368L155.554 507.982H139.379C139.379 507.982 131.003 341.648 135.882 320.506L183.965 327.134L183.94 335.234C183.94 335.234 193.927 399.339 205.234 506.724Z" fill="white"/>
<path d="M134.79 249.047C136.603 259.264 137.39 269.575 137.629 279.236C137.8 286.304 137.661 293.022 137.389 299.102C136.754 313.353 135.384 324.141 135.449 327.842C142.561 327.971 169.363 328.453 183.977 328.71C195.557 277.95 185.608 250.403 185.608 250.403C185.608 250.403 180.376 248.873 174.209 247.968C173.398 247.843 172.57 247.742 171.728 247.651C166.28 247.057 157.301 247.095 151.096 247.281C149.791 247.321 148.469 247.395 147.181 247.488C140.623 247.974 134.79 249.047 134.79 249.047Z" fill="#407BFF"/>
<path d="M173.239 249.267C173.239 249.267 170.346 253.457 168.026 253.75C164.747 254.189 152.742 246.855 152.742 246.855C155.518 244.801 156.874 240.347 157.472 235.625C157.989 231.518 157.923 227.219 157.718 224.081L168.925 236.268C167.443 240.071 166.57 244.159 169.468 247.02C169.485 247.034 169.5 247.031 169.5 247.031C170.364 247.908 171.585 248.661 173.239 249.267Z" fill="#B55B52"/>
<path opacity="0.2" d="M169.467 247.022C164.742 244.443 159.957 240.072 157.471 235.627C157.988 231.519 157.921 227.22 157.717 224.082L168.924 236.269C167.442 240.075 166.569 244.162 169.467 247.022Z" fill="black"/>
<path d="M181.939 213.131C182.885 216.666 181.975 223.805 177.203 221.264C172.431 218.726 180.311 207.056 181.939 213.131Z" fill="#263238"/>
<path d="M156.607 216.756C155.683 225.696 154.687 230.886 158.419 236.13C164.034 244.018 175.67 241.67 179.256 233.16C182.483 225.501 183.451 212.168 175.341 207.29C167.35 202.485 157.53 207.817 156.607 216.756Z" fill="#B55B52"/>
<path d="M163.102 212.156L163.534 202.141C163.534 202.141 152.911 200.888 153.148 206.364C147.119 209.037 149.512 218.341 157.247 223.188C161.743 219.897 161.607 211.499 161.607 211.499C162.068 211.728 162.575 211.944 163.102 212.156Z" fill="#263238"/>
<path d="M151.968 223.568C152.297 225.963 153.709 227.974 155.321 229.138C157.744 230.887 160.013 228.964 160.225 226.135C160.415 223.588 159.384 219.608 156.526 218.98C153.709 218.359 151.59 220.828 151.968 223.568Z" fill="#B55B52"/>
<path d="M169.669 221.331C169.55 222.052 169.836 222.695 170.309 222.769C170.782 222.843 171.262 222.318 171.381 221.596C171.501 220.875 171.215 220.232 170.742 220.158C170.268 220.084 169.789 220.609 169.669 221.331Z" fill="#263238"/>
<path d="M177.845 222.603C177.725 223.324 178.011 223.967 178.484 224.041C178.958 224.115 179.437 223.59 179.557 222.868C179.676 222.147 179.39 221.504 178.917 221.43C178.444 221.357 177.964 221.883 177.845 222.603Z" fill="#263238"/>
<path d="M175.186 222.557C175.186 222.557 176.207 226.824 177.712 229.052C176.263 229.981 174.178 229.096 174.178 229.096L175.186 222.557Z" fill="#A02724"/>
<path d="M169.845 231.252C170.135 231.339 170.445 231.41 170.776 231.461C170.893 231.479 171.004 231.398 171.024 231.283C171.044 231.166 170.962 231.056 170.847 231.038C167.671 230.54 166.557 228.103 166.547 228.079C166.5 227.97 166.371 227.923 166.263 227.97C166.154 228.019 166.104 228.146 166.152 228.254C166.196 228.351 167.156 230.453 169.845 231.252Z" fill="#263238"/>
<path d="M167.584 218.306C167.728 218.349 167.891 218.315 168.008 218.203C169.401 216.875 170.947 217.209 170.963 217.212C171.194 217.264 171.427 217.12 171.482 216.89C171.536 216.66 171.393 216.43 171.162 216.377C171.081 216.358 169.142 215.939 167.415 217.587C167.242 217.751 167.236 218.022 167.399 218.193C167.452 218.247 167.516 218.285 167.584 218.306Z" fill="#263238"/>
<path d="M181.831 220.349C181.91 220.371 181.995 220.373 182.079 220.347C182.307 220.277 182.436 220.038 182.369 219.812C181.691 217.541 179.794 216.988 179.712 216.952C179.484 216.887 179.244 217.018 179.176 217.246C179.109 217.473 179.237 217.709 179.462 217.775C179.542 217.796 180.998 218.24 181.542 220.062C181.587 220.205 181.699 220.309 181.831 220.349Z" fill="#263238"/>
<path d="M153.149 206.364C153.149 206.364 147.651 200.911 166.305 201.41C184.959 201.908 188.056 212.357 179.51 214.785L179.117 213.084C179.117 213.084 174.724 215.66 169.55 213.568L170.902 212.728C170.902 212.728 158.178 214.033 153.149 206.364Z" fill="#263238"/>
<path d="M168.032 253.755C168.032 253.755 165.656 256.501 162.883 259.213C158.925 257.21 149.659 251.855 150.119 246.909C150.665 245.469 154.431 244.56 154.431 244.56C154.431 244.56 158.533 249.887 168.032 253.755Z" fill="#407BFF"/>
<path d="M168.032 253.755C168.032 253.755 171.126 256.158 173.133 259.211C176.048 257.326 174.577 248.121 173.508 247.104C171.202 245.716 168.494 245.79 168.494 245.79C168.494 245.79 170.564 249.977 168.032 253.755Z" fill="#407BFF"/>
<g opacity="0.5">
<path d="M168.032 253.755C168.032 253.755 165.656 256.501 162.883 259.213C158.925 257.21 149.659 251.855 150.119 246.909C150.665 245.469 154.431 244.56 154.431 244.56C154.431 244.56 158.533 249.887 168.032 253.755Z" fill="white"/>
<path d="M168.032 253.755C168.032 253.755 171.126 256.158 173.133 259.211C176.048 257.326 174.577 248.121 173.508 247.104C171.202 245.716 168.494 245.79 168.494 245.79C168.494 245.79 170.564 249.977 168.032 253.755Z" fill="white"/>
</g>
<path opacity="0.2" d="M167.893 398.861L162.472 369.367L163.516 353.758C163.516 353.758 170.949 380.825 167.893 398.861Z" fill="black"/>
<path d="M139.873 262.522L131.534 276.122C130.15 278.382 128.801 280.66 127.489 282.912C126.185 285.16 124.912 287.454 123.883 289.575C123.369 290.633 122.999 291.531 122.664 292.554C122.332 293.67 121.987 294.871 121.678 296.113C121.07 298.603 120.498 301.198 119.943 303.796C118.828 308.997 117.721 314.295 116.503 319.544L110.429 319.006C110.209 313.495 110.26 308.043 110.585 302.534C110.762 299.777 110.962 297.022 111.339 294.198C111.529 292.784 111.733 291.338 112.051 289.832C112.39 288.236 112.921 286.582 113.48 285.16C114.57 282.306 115.799 279.804 117.053 277.293C118.293 274.781 119.628 272.368 120.961 269.957C123.664 265.148 126.474 260.503 129.51 255.882L139.873 262.522Z" fill="#B55B52"/>
<path d="M134.79 249.047C127.964 250.809 115.781 275.363 115.781 275.363L130.29 284.763L143.384 272.058C143.384 272.058 144.699 265.973 142.549 258.261C140.398 250.547 134.79 249.047 134.79 249.047Z" fill="#407BFF"/>
<path opacity="0.7" d="M134.79 249.047C127.964 250.809 115.781 275.363 115.781 275.363L130.29 284.763L143.384 272.058C143.384 272.058 144.699 265.973 142.549 258.261C140.398 250.547 134.79 249.047 134.79 249.047Z" fill="white"/>
<path d="M252.021 228.367L151.192 335.294L139.983 324.724L240.812 217.797C243.094 215.376 246.906 215.264 249.327 217.546L251.772 219.851C254.191 222.134 254.303 225.947 252.021 228.367Z" fill="#263238"/>
<path opacity="0.6" d="M252.021 228.367L151.192 335.294L139.983 324.724L240.812 217.797C243.094 215.376 246.906 215.264 249.327 217.546L251.772 219.851C254.191 222.134 254.303 225.947 252.021 228.367Z" fill="white"/>
<path opacity="0.2" d="M250.079 218.264L251.765 219.855C254.186 222.138 254.306 225.948 252.024 228.369L151.194 335.298L149.507 333.707L250.338 226.777C252.62 224.357 252.499 220.547 250.079 218.264Z" fill="black"/>
<path d="M217.905 259.671L236.592 277.292L239.025 274.711L236.606 272.431L240.45 268.353L239.033 267.016L244.804 260.896L246.222 262.233L249.827 258.411L252.246 260.691L254.762 258.021L253.345 256.685L256.963 252.847L254.128 250.172L256.487 247.67L260.742 251.682L265.068 247.094L246.381 229.473L217.905 259.671Z" fill="#263238"/>
<path opacity="0.6" d="M217.905 259.671L236.592 277.292L239.025 274.711L236.606 272.431L240.45 268.353L239.033 267.016L244.804 260.896L246.222 262.233L249.827 258.411L252.246 260.691L254.762 258.021L253.345 256.685L256.963 252.847L254.128 250.172L256.487 247.67L260.742 251.682L265.068 247.094L246.381 229.473L217.905 259.671Z" fill="white"/>
<g opacity="0.2">
<path opacity="0.6" d="M237.337 273.105L234.911 275.678L236.598 277.269L239.024 274.696L237.337 273.105Z" fill="black"/>
<path opacity="0.6" d="M246.227 262.23L244.81 260.894L239.035 267.017L240.452 268.354L236.603 272.436L234.917 270.846L238.766 266.763L237.349 265.427L243.123 259.304L244.54 260.639L248.143 256.818L249.831 258.409L246.227 262.23Z" fill="black"/>
<path opacity="0.6" d="M251.652 255.092L255.271 251.253L256.967 252.852L253.348 256.69L254.765 258.027L252.251 260.691L250.563 259.101L253.077 256.435L251.652 255.092Z" fill="black"/>
<path opacity="0.6" d="M254.798 246.097L252.436 248.602L254.123 250.193L256.485 247.688L254.798 246.097Z" fill="black"/>
<path opacity="0.6" d="M263.383 245.486L259.057 250.075L260.744 251.666L265.071 247.077L263.383 245.486Z" fill="black"/>
</g>
<path d="M251.309 231.097L220.399 263.876C219.888 264.418 219.036 264.442 218.494 263.932L207.275 253.353C206.733 252.842 206.709 251.99 207.219 251.448L238.128 218.668C238.64 218.126 239.492 218.102 240.034 218.612L251.253 229.192C251.795 229.702 251.819 230.555 251.309 231.097Z" fill="#263238"/>
<path d="M151.777 369.863C141.909 380.328 125.427 380.811 114.962 370.943L106.518 362.982C96.0536 353.114 95.5703 336.631 105.438 326.166C115.307 315.702 131.789 315.218 142.254 325.085L150.697 333.047C161.162 342.915 161.646 359.399 151.777 369.863Z" fill="#263238"/>
<path d="M142.067 360.706C137.156 365.915 128.951 366.155 123.742 361.244L115.687 353.648C110.478 348.737 110.238 340.532 115.149 335.323C120.06 330.115 128.264 329.874 133.473 334.785L141.529 342.38C146.738 347.293 146.978 355.497 142.067 360.706Z" fill="white"/>
<path opacity="0.5" d="M251.309 231.097L220.399 263.876C219.888 264.418 219.036 264.442 218.494 263.932L207.275 253.353C206.733 252.842 206.709 251.99 207.219 251.448L238.128 218.668C238.64 218.126 239.492 218.102 240.034 218.612L251.253 229.192C251.795 229.702 251.819 230.555 251.309 231.097Z" fill="white"/>
<g opacity="0.5">
<path d="M151.777 369.863C141.909 380.328 125.427 380.811 114.962 370.943L106.518 362.982C96.0536 353.114 95.5703 336.631 105.438 326.166C115.307 315.702 131.789 315.218 142.254 325.085L150.697 333.047C161.162 342.915 161.646 359.399 151.777 369.863Z" fill="white"/>
<path d="M142.067 360.706C137.156 365.915 128.951 366.155 123.742 361.244L115.687 353.648C110.478 348.737 110.238 340.532 115.149 335.323C120.06 330.115 128.264 329.874 133.473 334.785L141.529 342.38C146.738 347.293 146.978 355.497 142.067 360.706Z" fill="white"/>
</g>
<path opacity="0.2" d="M247.878 226.005L251.252 229.186C251.8 229.703 251.825 230.555 251.308 231.103L220.399 263.882C219.891 264.421 219.038 264.446 218.49 263.93L215.117 260.749C215.656 261.257 216.508 261.233 217.018 260.693L247.927 227.914C248.443 227.366 248.419 226.514 247.878 226.005Z" fill="black"/>
<g opacity="0.2">
<path d="M130.95 332.398L133.48 334.784C130.873 332.327 127.526 331.161 124.199 331.259C120.888 331.356 117.608 332.725 115.149 335.331C110.242 340.535 110.474 348.738 115.687 353.653L113.157 351.267C107.944 346.352 107.703 338.141 112.611 332.936C115.069 330.33 118.351 328.962 121.669 328.873C124.987 328.768 128.342 329.94 130.95 332.398Z" fill="black"/>
<path d="M148.17 330.662L150.7 333.048C161.16 342.911 161.643 359.397 151.772 369.866C141.909 380.326 125.423 380.809 114.963 370.946L112.433 368.559C122.893 378.423 139.379 377.938 149.242 367.48C159.114 357.011 158.63 340.525 148.17 330.662Z" fill="black"/>
</g>
<g opacity="0.2">
<path d="M130.95 332.398L133.48 334.784C130.873 332.327 127.526 331.161 124.199 331.259C120.888 331.356 117.608 332.725 115.149 335.331C110.242 340.535 110.474 348.738 115.687 353.653L113.157 351.267C107.944 346.352 107.703 338.141 112.611 332.936C115.069 330.33 118.351 328.962 121.669 328.873C124.987 328.768 128.342 329.94 130.95 332.398Z" fill="black"/>
<path d="M130.95 332.398L133.48 334.784C130.873 332.327 127.526 331.161 124.199 331.259C120.888 331.356 117.608 332.725 115.149 335.331C110.242 340.535 110.474 348.738 115.687 353.653L113.157 351.267C107.944 346.352 107.703 338.141 112.611 332.936C115.069 330.33 118.351 328.962 121.669 328.873C124.987 328.768 128.342 329.94 130.95 332.398Z" fill="black"/>
</g>
<path d="M111.662 333.531L121.003 331.193L119.967 324.363L108.562 326.661L111.662 333.531Z" fill="#B55B52"/>
<path d="M110.735 317.727L108.562 326.66L119.969 324.363C119.969 324.363 120.122 316.362 115.864 315.839L110.735 317.727Z" fill="#B55B52"/>
</svg>
