<svg width="636" height="636" viewBox="0 0 636 636" fill="none" xmlns="http://www.w3.org/2000/svg">
<path d="M318 562.971C454.209 562.971 564.628 556.524 564.628 548.572C564.628 540.619 454.209 534.173 318 534.173C181.791 534.173 71.3721 540.619 71.3721 548.572C71.3721 556.524 181.791 562.971 318 562.971Z" fill="#F5F5F5"/>
<path d="M303.238 434.426H57.6278C53.621 434.42 50.3774 431.17 50.3774 427.163V81.904C50.4118 77.9227 53.6465 74.7109 57.6278 74.7045H303.238C307.249 74.7045 310.501 77.9558 310.501 81.9677V427.163C310.501 431.175 307.249 434.426 303.238 434.426ZM57.6278 74.9589C53.7966 74.9666 50.6954 78.0728 50.6954 81.904V427.163C50.6954 430.994 53.7966 434.1 57.6278 434.108H303.238C307.071 434.102 310.176 430.996 310.183 427.163V81.904C310.176 78.0715 307.071 74.9653 303.238 74.9589H57.6278Z" fill="#E6E6E6"/>
<path d="M578.384 434.426H332.761C328.753 434.42 325.504 431.171 325.498 427.163V81.904C325.54 77.9201 328.777 74.7109 332.761 74.7045H578.384C582.361 74.7185 585.588 77.9278 585.622 81.904V427.163C585.622 431.165 582.386 434.412 578.384 434.426ZM332.761 74.9589C328.929 74.9666 325.822 78.0715 325.816 81.904V427.163C325.822 430.996 328.929 434.1 332.761 434.108H578.384C582.217 434.102 585.322 430.996 585.329 427.163V81.904C585.322 78.0715 582.217 74.9653 578.384 74.9589H332.761Z" fill="#E6E6E6"/>
<path d="M264.257 251.168L262.516 400.722C256.364 450.469 168.17 489.965 168.17 489.965C168.17 489.965 79.9768 450.469 73.8242 400.722L71.9785 251.168L166.239 220.141L264.257 251.168Z" fill="#F5F5F5"/>
<path d="M251.964 260.634L250.447 394.882C245.08 438.269 168.163 472.716 168.163 472.716C168.163 472.716 91.2469 438.269 85.8804 394.882L84.27 260.634L166.478 233.575L251.964 260.634Z" fill="#E0E0E0"/>
<path d="M246.561 269.108L245.137 392.345C240.107 433.018 167.998 465.312 167.998 465.312C167.998 465.312 95.8897 433.018 90.859 392.345L89.3491 269.108L166.418 243.741L246.561 269.108Z" stroke="white" stroke-width="3" stroke-miterlimit="10" stroke-linecap="round" stroke-linejoin="round"/>
<path d="M560.097 200.706H390.432V498.405H560.097V200.706Z" fill="#F5F5F5"/>
<path d="M547.776 212.406H402.965V498.405H547.776V212.406Z" fill="#E0E0E0"/>
<path d="M407.013 499.68C406.76 499.68 406.506 499.629 406.276 499.527C406.047 499.438 405.843 499.298 405.665 499.12C405.474 498.942 405.334 498.727 405.245 498.497C405.156 498.268 405.105 498.027 405.105 497.773C405.105 497.276 405.309 496.781 405.665 496.423C406.098 495.978 406.759 495.787 407.382 495.902C407.497 495.929 407.625 495.967 407.739 496.004C407.853 496.055 407.967 496.119 408.069 496.183C408.171 496.258 408.273 496.336 408.362 496.423C408.45 496.512 408.527 496.603 408.591 496.716C408.668 496.818 408.718 496.919 408.769 497.047C408.82 497.161 408.858 497.276 408.885 497.403C408.91 497.517 408.921 497.643 408.921 497.772C408.921 498.026 408.871 498.268 408.769 498.495C408.681 498.726 408.54 498.942 408.363 499.119C407.994 499.476 407.524 499.68 407.013 499.68Z" fill="white"/>
<path d="M405.105 450.911C405.105 449.855 405.958 449.003 407.013 449.003C408.069 449.003 408.921 449.855 408.921 450.911C408.921 451.966 408.069 452.819 407.013 452.819C405.958 452.819 405.105 451.966 405.105 450.911ZM405.105 404.063C405.105 403.008 405.958 402.155 407.013 402.155C408.069 402.155 408.921 403.008 408.921 404.063C408.921 405.105 408.069 405.971 407.013 405.971C405.958 405.971 405.105 405.105 405.105 404.063ZM405.105 357.202C405.105 356.147 405.958 355.294 407.013 355.294C408.069 355.294 408.921 356.147 408.921 357.202C408.921 358.257 408.069 359.11 407.013 359.11C405.958 359.11 405.105 358.257 405.105 357.202ZM405.105 310.342C405.105 309.299 405.958 308.434 407.013 308.434C408.069 308.434 408.921 309.299 408.921 310.342C408.921 311.398 408.069 312.25 407.013 312.25C405.958 312.25 405.105 311.398 405.105 310.342ZM405.105 263.495C405.105 262.439 405.958 261.587 407.013 261.587C408.069 261.587 408.921 262.439 408.921 263.495C408.921 264.55 408.069 265.403 407.013 265.403C405.958 265.403 405.105 264.55 405.105 263.495Z" fill="white"/>
<path d="M407.013 218.542C406.506 218.542 406.009 218.339 405.665 217.981C405.576 217.892 405.487 217.803 405.423 217.689C405.36 217.588 405.296 217.485 405.245 217.371C405.194 217.244 405.156 217.129 405.144 217.002C405.118 216.887 405.105 216.76 405.105 216.634C405.105 216.138 405.309 215.642 405.665 215.286C405.741 215.197 405.843 215.121 405.945 215.044C406.047 214.981 406.161 214.917 406.276 214.879C406.391 214.828 406.517 214.79 406.632 214.764C406.886 214.714 407.128 214.714 407.382 214.764C407.497 214.79 407.625 214.828 407.739 214.879C407.853 214.917 407.967 214.981 408.069 215.044C408.171 215.119 408.273 215.197 408.362 215.286C408.717 215.642 408.92 216.138 408.92 216.634C408.92 216.761 408.907 216.889 408.883 217.002C408.858 217.129 408.818 217.244 408.768 217.371C408.717 217.485 408.667 217.588 408.589 217.689C408.526 217.803 408.45 217.892 408.361 217.981C408.007 218.339 407.511 218.542 407.013 218.542Z" fill="white"/>
<path d="M495.928 216.634C495.928 215.578 496.78 214.726 497.836 214.726C498.892 214.726 499.744 215.578 499.744 216.634C499.744 217.689 498.892 218.542 497.836 218.542C496.78 218.542 495.928 217.69 495.928 216.634ZM450.518 216.634C450.518 215.578 451.37 214.726 452.426 214.726C453.481 214.726 454.334 215.578 454.334 216.634C454.334 217.689 453.481 218.542 452.426 218.542C451.37 218.542 450.518 217.69 450.518 216.634Z" fill="white"/>
<path d="M543.246 218.542C543.117 218.542 543.003 218.53 542.877 218.504C542.75 218.479 542.635 218.44 542.521 218.402C542.406 218.351 542.292 218.288 542.19 218.224C542.088 218.148 541.986 218.072 541.897 217.981C541.542 217.625 541.339 217.142 541.339 216.634C541.339 216.138 541.542 215.642 541.897 215.286C541.986 215.197 542.088 215.121 542.19 215.057C542.292 214.981 542.406 214.917 542.521 214.879C542.635 214.828 542.75 214.79 542.877 214.764C543.117 214.714 543.373 214.714 543.627 214.764C543.742 214.79 543.856 214.828 543.983 214.879C544.098 214.917 544.2 214.981 544.301 215.057C544.416 215.121 544.504 215.197 544.593 215.286C544.949 215.642 545.154 216.138 545.154 216.634C545.154 217.143 544.95 217.626 544.593 217.981C544.504 218.07 544.415 218.147 544.301 218.224C544.2 218.288 544.098 218.351 543.983 218.402C543.855 218.44 543.742 218.479 543.627 218.504C543.5 218.53 543.373 218.542 543.246 218.542Z" fill="white"/>
<path d="M541.338 450.911C541.338 449.855 542.19 449.003 543.246 449.003C544.302 449.003 545.154 449.855 545.154 450.911C545.154 451.966 544.302 452.819 543.246 452.819C542.19 452.819 541.338 451.966 541.338 450.911ZM541.338 404.063C541.338 403.008 542.19 402.155 543.246 402.155C544.302 402.155 545.154 403.008 545.154 404.063C545.154 405.105 544.302 405.971 543.246 405.971C542.19 405.971 541.338 405.105 541.338 404.063ZM541.338 357.202C541.338 356.147 542.19 355.294 543.246 355.294C544.302 355.294 545.154 356.147 545.154 357.202C545.154 358.257 544.302 359.11 543.246 359.11C542.19 359.11 541.338 358.257 541.338 357.202ZM541.338 310.342C541.338 309.287 542.19 308.434 543.246 308.434C544.302 308.434 545.154 309.287 545.154 310.342C545.154 311.398 544.302 312.25 543.246 312.25C542.19 312.25 541.338 311.398 541.338 310.342ZM541.338 263.495C541.338 262.439 542.19 261.587 543.246 261.587C544.302 261.587 545.154 262.439 545.154 263.495C545.154 264.55 544.302 265.403 543.246 265.403C542.19 265.403 541.338 264.55 541.338 263.495Z" fill="white"/>
<path d="M543.246 499.68C542.737 499.68 542.254 499.476 541.896 499.119C541.541 498.763 541.338 498.279 541.338 497.772C541.338 497.263 541.541 496.78 541.896 496.422C541.985 496.334 542.087 496.257 542.189 496.182C542.291 496.118 542.405 496.053 542.52 496.002C542.634 495.965 542.749 495.926 542.876 495.901C543.116 495.85 543.372 495.85 543.626 495.901C543.741 495.927 543.867 495.965 543.982 496.002C544.097 496.053 544.199 496.118 544.3 496.182C544.415 496.257 544.503 496.334 544.592 496.422C544.948 496.778 545.153 497.262 545.153 497.772C545.153 498.279 544.962 498.763 544.592 499.119C544.237 499.476 543.753 499.68 543.246 499.68Z" fill="white"/>
<path d="M120.84 498.891H68.4209V499.209H120.84V498.891Z" fill="#E0E0E0"/>
<path d="M227.688 496.347H175.116V496.665H227.688V496.347Z" fill="#E0E0E0"/>
<path d="M296.096 496.347H283.376V496.665H296.096V496.347Z" fill="#E0E0E0"/>
<path d="M168.96 507.21H110.13V507.528H168.96V507.21Z" fill="#E0E0E0"/>
<path d="M372.442 498.726H344.967V499.044H372.442V498.726Z" fill="#E0E0E0"/>
<path d="M419.29 498.726H383.763V499.044H419.29V498.726Z" fill="#E0E0E0"/>
<path d="M590.628 504.106H511.204V504.424H590.628V504.106Z" fill="#E0E0E0"/>
<path d="M296.897 111.493H238.303L241.498 74.9717H300.093L296.897 111.493Z" fill="#EBEBEB"/>
<path d="M298.085 70.0109L296.483 89.0832L294.88 111.998H238.521L241.726 70.0109H298.085Z" fill="#FAFAFA"/>
<path d="M292.694 74.9768L295.89 111.496H237.297L234.104 74.9768H239.085L240.82 72.2305H256.605L258.866 74.9768H292.694Z" fill="#E0E0E0"/>
<path d="M387.715 119.648H325.366V181.996H387.715V119.648Z" fill="#EBEBEB"/>
<path d="M389.304 119.648H387.715V181.996H389.304V119.648Z" fill="#E0E0E0"/>
<path d="M381.95 125.414H331.121V176.243H381.95V125.414Z" fill="#F5F5F5"/>
<path d="M331.597 125.414H331.132V176.243H331.597V125.414Z" fill="#E0E0E0"/>
<path d="M357.014 158.177C362.487 158.177 366.924 152.525 366.924 145.552C366.924 138.58 362.487 132.928 357.014 132.928C351.54 132.928 347.104 138.58 347.104 145.552C347.104 152.525 351.54 158.177 357.014 158.177Z" fill="#E0E0E0"/>
<path d="M351.834 164.553H362.278V154.109H351.834V164.553Z" fill="#E0E0E0"/>
<path d="M337.582 176.243H375.847V172.687C375.847 165.915 370.357 160.425 363.585 160.425H349.843C343.071 160.425 337.581 165.915 337.581 172.687L337.582 176.243Z" fill="#E0E0E0"/>
<path d="M336.622 155.029C336.622 157.11 340.39 158.796 340.39 158.796C340.39 158.796 344.157 157.11 344.157 155.029C344.157 154.042 342.772 153.485 341.88 153.738C340.892 154.019 340.39 155.174 340.39 155.174C340.39 155.174 339.459 153.94 338.522 153.642C337.575 153.341 336.622 153.982 336.622 155.029Z" fill="#E0E0E0"/>
<path d="M370.478 145.76C370.478 148.492 375.426 150.708 375.426 150.708C375.426 150.708 380.374 148.492 380.374 145.76C380.374 144.465 378.553 143.732 377.384 144.065C376.087 144.434 375.426 145.951 375.426 145.951C375.426 145.951 374.203 144.331 372.973 143.939C371.729 143.544 370.478 144.386 370.478 145.76Z" fill="#E0E0E0"/>
<path d="M261.664 457.059C262.245 460.734 264.906 463.903 265.114 467.618C265.275 470.522 263.91 473.264 263.242 476.094C262.575 478.926 262.891 482.454 265.383 483.954C267.109 484.995 269.405 484.674 271.121 483.617C272.837 482.56 274.074 480.882 275.136 479.169C279.023 472.908 281.178 465.584 281.302 458.216C281.354 455.09 280.987 451.786 279.149 449.258C273.43 441.392 260.215 447.899 261.664 457.059Z" fill="#F5F5F5"/>
<path d="M256.997 447.331C257.524 447.937 258.268 448.328 259.045 448.529C260.013 448.778 261.159 448.702 261.854 447.983C262.514 447.3 262.587 446.246 262.491 445.3C262.374 444.142 262.047 442.973 261.337 442.049C260.628 441.126 259.487 440.483 258.325 440.579C257.164 440.674 256.07 441.627 256.012 442.79C255.948 444.039 256.158 446.364 256.997 447.331Z" fill="#F5F5F5"/>
<path d="M267.517 439.682C266.88 438.817 265.959 438.411 265.043 438.597C264.144 438.78 263.315 439.616 263.21 440.56C263.178 440.84 263.163 441.16 263.168 441.487C263.176 441.967 263.215 442.487 263.329 442.971C263.457 443.506 263.678 443.987 263.982 444.287C264.413 444.714 264.975 444.982 265.567 445.094C266.303 445.233 267.156 445.121 267.686 444.57C268.242 443.992 268.384 443.139 268.356 442.347C268.323 441.404 268.079 440.444 267.517 439.682Z" fill="#F5F5F5"/>
<path d="M273.409 439.359C272.778 438.461 271.965 438.227 271.182 438.517C270.431 438.794 269.758 439.607 269.606 440.443C269.556 440.715 269.523 441.005 269.511 441.281C269.494 441.721 269.501 442.193 269.606 442.636C269.717 443.111 269.948 443.537 270.258 443.793C270.638 444.105 271.098 444.284 271.578 444.326C272.178 444.377 272.847 444.222 273.279 443.769C273.793 443.228 274.013 442.479 274.044 441.745C274.08 440.916 273.893 440.048 273.409 439.359Z" fill="#F5F5F5"/>
<path d="M278.658 440.584C278.036 439.652 277.328 439.588 276.678 439.986C276.076 440.354 275.552 441.147 275.36 441.878C275.29 442.142 275.239 442.403 275.215 442.627C275.17 443.027 275.149 443.452 275.242 443.853C275.338 444.27 275.571 444.648 275.894 444.851C276.217 445.055 276.58 445.139 276.951 445.11C277.412 445.073 277.898 444.876 278.233 444.521C278.707 444.018 278.998 443.371 279.092 442.695C279.192 441.973 279.068 441.197 278.658 440.584Z" fill="#F5F5F5"/>
<path d="M279.691 445.73C279.626 446.034 279.588 446.352 279.657 446.656C279.727 446.96 279.92 447.249 280.209 447.366C280.702 447.567 281.244 447.217 281.607 446.828C281.972 446.436 282.274 445.975 282.41 445.457C282.547 444.939 282.501 444.36 282.216 443.908C281.058 442.062 279.887 444.822 279.691 445.73Z" fill="#F5F5F5"/>
<path d="M280.72 542.012C281.573 539.004 282.066 535.717 280.939 532.8C277.432 523.729 262.988 526.626 262.038 535.85L280.72 542.012Z" fill="#F5F5F5"/>
<path d="M260.025 525.251C260.378 525.972 260.996 526.541 261.696 526.934C262.567 527.423 263.694 527.645 264.55 527.128C265.363 526.639 265.705 525.636 265.856 524.699C266.04 523.549 266.023 522.335 265.574 521.26C265.125 520.186 264.188 519.272 263.041 519.066C261.895 518.86 260.592 519.5 260.236 520.609C259.856 521.8 259.461 524.101 260.025 525.251Z" fill="#F5F5F5"/>
<path d="M272.156 520.56C271.762 519.56 270.977 518.93 270.043 518.875C269.128 518.822 268.113 519.416 267.768 520.301C267.666 520.563 267.568 520.87 267.489 521.187C267.373 521.652 267.278 522.165 267.264 522.662C267.25 523.21 267.342 523.732 267.557 524.101C267.864 524.625 268.338 525.028 268.882 525.288C269.559 525.611 270.411 525.721 271.065 525.325C271.75 524.907 272.108 524.121 272.283 523.347C272.492 522.431 272.503 521.441 272.156 520.56Z" fill="#F5F5F5"/>
<path d="M277.932 521.76C277.551 520.731 276.828 520.296 275.996 520.375C275.2 520.452 274.341 521.063 273.978 521.833C273.86 522.083 273.753 522.356 273.673 522.619C273.543 523.04 273.429 523.498 273.416 523.953C273.402 524.442 273.515 524.914 273.749 525.239C274.037 525.639 274.435 525.93 274.889 526.093C275.455 526.296 276.141 526.318 276.675 525.991C277.311 525.601 277.716 524.932 277.933 524.231C278.181 523.437 278.224 522.55 277.932 521.76Z" fill="#F5F5F5"/>
<path d="M282.691 524.29C282.329 523.23 281.662 522.987 280.931 523.204C280.255 523.405 279.544 524.037 279.172 524.694C279.036 524.931 278.921 525.169 278.838 525.38C278.692 525.757 278.562 526.16 278.55 526.572C278.537 527.001 278.664 527.426 278.925 527.706C279.184 527.986 279.514 528.159 279.88 528.226C280.334 528.309 280.856 528.242 281.271 527.987C281.857 527.623 282.305 527.071 282.568 526.444C282.85 525.771 282.93 524.989 282.691 524.29Z" fill="#F5F5F5"/>
<path d="M282.37 529.53C282.229 529.807 282.111 530.105 282.099 530.416C282.089 530.728 282.201 531.056 282.45 531.244C282.875 531.565 283.49 531.367 283.94 531.083C284.393 530.798 284.805 530.429 285.069 529.964C285.334 529.498 285.438 528.927 285.279 528.415C284.632 526.336 282.791 528.702 282.37 529.53Z" fill="#F5F5F5"/>
<path d="M230.582 488.021C231.041 491.713 229.362 495.495 230.192 499.121C230.84 501.957 232.911 504.213 234.337 506.748C235.763 509.283 236.434 512.762 234.457 514.894C233.085 516.371 230.791 516.699 228.85 516.159C226.907 515.618 225.256 514.348 223.76 512.996C218.292 508.057 214.192 501.616 212.034 494.571C211.118 491.582 210.556 488.306 211.623 485.366C214.938 476.224 229.437 478.818 230.582 488.021Z" fill="#F5F5F5"/>
<path d="M232.373 477.38C232.035 478.109 231.428 478.69 230.738 479.099C229.876 479.608 228.754 479.851 227.888 479.353C227.065 478.88 226.703 477.885 226.532 476.952C226.324 475.806 226.315 474.592 226.741 473.508C227.168 472.425 228.085 471.492 229.228 471.262C230.37 471.032 231.685 471.645 232.064 472.746C232.47 473.927 232.911 476.219 232.373 477.38Z" fill="#F5F5F5"/>
<path d="M220.145 472.944C220.518 471.936 221.29 471.291 222.223 471.216C223.137 471.144 224.164 471.716 224.527 472.594C224.636 472.855 224.739 473.157 224.825 473.473C224.95 473.936 225.057 474.447 225.081 474.943C225.106 475.491 225.026 476.014 224.817 476.387C224.521 476.917 224.055 477.331 223.517 477.602C222.848 477.939 221.999 478.067 221.336 477.684C220.641 477.282 220.269 476.503 220.077 475.733C219.849 474.822 219.817 473.833 220.145 472.944Z" fill="#F5F5F5"/>
<path d="M214.395 474.265C214.754 473.229 215.469 472.778 216.302 472.839C217.1 472.898 217.971 473.493 218.35 474.254C218.473 474.502 218.585 474.771 218.672 475.033C218.81 475.452 218.934 475.907 218.957 476.361C218.981 476.85 218.878 477.323 218.65 477.654C218.37 478.06 217.98 478.358 217.528 478.531C216.967 478.746 216.282 478.782 215.74 478.468C215.096 478.091 214.678 477.431 214.445 476.734C214.18 475.947 214.121 475.061 214.395 474.265Z" fill="#F5F5F5"/>
<path d="M209.69 476.896C210.03 475.827 210.693 475.57 211.428 475.773C212.107 475.959 212.831 476.576 213.218 477.225C213.358 477.46 213.478 477.696 213.565 477.904C213.719 478.277 213.857 478.679 213.879 479.09C213.901 479.519 213.782 479.945 213.528 480.231C213.275 480.516 212.948 480.696 212.584 480.771C212.131 480.864 211.61 480.808 211.189 480.562C210.595 480.21 210.136 479.667 209.858 479.047C209.562 478.379 209.465 477.599 209.69 476.896Z" fill="#F5F5F5"/>
<path d="M210.122 482.126C210.269 482.401 210.394 482.696 210.411 483.006C210.428 483.318 210.321 483.649 210.077 483.841C209.659 484.17 209.041 483.985 208.585 483.711C208.126 483.435 207.706 483.076 207.433 482.616C207.159 482.155 207.042 481.588 207.191 481.073C207.793 478.98 209.683 481.308 210.122 482.126Z" fill="#F5F5F5"/>
<path d="M199.363 182.643C191.201 183.782 183.632 178.067 182.492 169.905C181.353 161.741 187.068 154.173 195.23 153.033C203.394 151.893 210.962 157.608 212.102 165.772C213.242 173.936 207.527 181.504 199.363 182.643ZM196.329 160.902C192.504 161.436 189.827 164.982 190.361 168.807C190.895 172.632 194.44 175.31 198.266 174.775C202.091 174.241 204.77 170.695 204.236 166.87C203.702 163.045 200.154 160.367 196.329 160.902Z" fill="#E0E0E0"/>
<path d="M193.745 123.289L188.125 124.073L193.168 160.216L198.788 159.432L193.745 123.289Z" fill="#E0E0E0"/>
<path d="M198.38 118.633L187.83 120.105L188.614 125.725L199.164 124.253L198.38 118.633Z" fill="#E0E0E0"/>
<path d="M199.397 125.852L189.478 127.236L190.262 132.856L200.181 131.472L199.397 125.852Z" fill="#E0E0E0"/>
<path d="M200.836 136.035L192.178 137.243L192.962 142.863L201.62 141.655L200.836 136.035Z" fill="#E0E0E0"/>
<path d="M187.585 309.441C199.309 297.192 197.977 276.89 184.609 264.094C171.241 251.298 150.9 250.854 139.176 263.102C127.451 275.35 128.784 295.653 142.151 308.449C155.519 321.245 175.86 321.689 187.585 309.441Z" fill="#407BFF"/>
<g opacity="0.8">
<path d="M187.585 309.441C199.309 297.192 197.977 276.89 184.609 264.094C171.241 251.298 150.9 250.854 139.176 263.102C127.451 275.35 128.784 295.653 142.151 308.449C155.519 321.245 175.86 321.689 187.585 309.441Z" fill="white"/>
</g>
<path d="M148.43 266.153C148.041 266.153 147.658 265.975 147.408 265.639C146.989 265.075 147.107 264.278 147.671 263.86C151.708 260.863 156.794 259.278 162.378 259.278C162.384 259.278 162.391 259.278 162.397 259.278C163.099 259.279 163.668 259.848 163.668 260.551C163.668 261.253 163.098 261.822 162.396 261.822C162.396 261.822 162.384 261.822 162.378 261.822C157.343 261.822 152.783 263.233 149.187 265.901C148.961 266.072 148.695 266.153 148.43 266.153Z" fill="#407BFF"/>
<path d="M154.447 309.914C154.245 309.914 154.04 309.865 153.848 309.762C145.963 305.541 140.445 298.037 138.711 289.178C137.149 281.202 139.01 273.307 143.816 267.514C144.264 266.976 145.066 266.9 145.607 267.348C146.147 267.795 146.221 268.598 145.773 269.139C141.458 274.34 139.794 281.466 141.208 288.688C142.794 296.796 147.84 303.658 155.049 307.519C155.668 307.849 155.902 308.621 155.57 309.241C155.34 309.671 154.901 309.914 154.447 309.914Z" fill="#407BFF"/>
<path d="M167.178 313.231C164.435 313.231 161.617 312.785 158.799 311.877C158.131 311.662 157.763 310.945 157.977 310.276C158.193 309.609 158.912 309.238 159.578 309.456C167.401 311.975 175.216 310.574 181.008 305.606C186.912 300.542 189.657 292.649 188.351 284.493C188.239 283.8 188.712 283.147 189.405 283.035C190.095 282.919 190.751 283.395 190.863 284.09C192.311 293.126 189.245 301.89 182.664 307.535C178.287 311.291 172.895 313.231 167.178 313.231Z" fill="#407BFF"/>
<path d="M188.574 281.262C188.035 281.262 187.537 280.919 187.363 280.379C185.018 273.095 179.513 266.962 172.638 263.976C171.993 263.696 171.698 262.947 171.978 262.302C172.256 261.658 173.003 261.36 173.65 261.643C181.187 264.917 187.219 271.63 189.784 279.601C189.999 280.269 189.632 280.986 188.963 281.201C188.833 281.242 188.703 281.262 188.574 281.262Z" fill="#407BFF"/>
<path d="M168.525 262.542C168.428 262.542 168.329 262.531 168.231 262.508C166.318 262.055 164.354 261.825 162.395 261.822C161.693 261.822 161.123 261.251 161.124 260.549C161.125 259.847 161.694 259.278 162.396 259.278C164.551 259.279 166.713 259.534 168.817 260.031C169.5 260.194 169.924 260.878 169.761 261.563C169.624 262.148 169.101 262.542 168.525 262.542Z" fill="#407BFF"/>
<path d="M146.09 292.934C145.572 292.934 145.085 292.615 144.897 292.101C142.508 285.606 143.321 278.754 147.126 273.301C150.772 268.076 156.579 265.08 163.054 265.08H163.058C163.762 265.08 164.33 265.65 164.33 266.352C164.33 267.054 163.76 267.624 163.058 267.624H163.054C157.421 267.624 152.376 270.224 149.211 274.757C145.889 279.518 145.187 285.519 147.283 291.223C147.525 291.883 147.188 292.613 146.527 292.856C146.384 292.908 146.235 292.934 146.09 292.934Z" fill="#407BFF"/>
<path d="M166.267 307.455C166.263 307.455 166.258 307.455 166.254 307.455C158.869 307.38 151.387 303.151 147.191 296.68C146.808 296.091 146.976 295.302 147.566 294.921C148.155 294.538 148.942 294.707 149.325 295.296C153.07 301.071 159.725 304.844 166.28 304.911C166.983 304.919 167.547 305.494 167.539 306.196C167.531 306.895 166.964 307.455 166.267 307.455Z" fill="#407BFF"/>
<path d="M171.015 306.904C170.445 306.904 169.926 306.518 169.781 305.94C169.612 305.258 170.027 304.568 170.709 304.398C181.026 301.829 183.697 292.811 182.85 285.869C181.744 276.811 174.589 267.636 163.055 267.624C162.351 267.624 161.783 267.053 161.784 266.35C161.785 265.648 162.354 265.08 163.056 265.08H163.057C176.07 265.094 184.133 275.394 185.375 285.561C186.657 296.059 181.14 304.424 171.322 306.869C171.221 306.893 171.117 306.904 171.015 306.904Z" fill="#407BFF"/>
<path d="M157.861 274.649C157.38 274.649 156.921 274.375 156.706 273.911C156.411 273.274 156.688 272.518 157.325 272.222C159.223 271.344 161.364 270.879 163.514 270.879C164.217 270.879 164.786 271.449 164.786 272.151C164.786 272.853 164.217 273.423 163.514 273.423C161.73 273.423 159.96 273.806 158.394 274.531C158.221 274.611 158.039 274.649 157.861 274.649Z" fill="#407BFF"/>
<path d="M166.029 301.53C159.625 301.53 153.719 297.626 150.885 291.474C148.248 285.748 149.021 279.751 152.951 275.432C153.424 274.914 154.229 274.875 154.747 275.347C155.266 275.82 155.304 276.624 154.831 277.145C151.612 280.685 151 285.643 153.197 290.41C155.673 295.788 160.906 299.154 166.434 298.981C170.928 298.842 174.665 296.386 176.43 292.411C178.431 287.904 177.53 282.58 174.079 278.518C173.624 277.983 173.688 277.18 174.224 276.725C174.761 276.272 175.563 276.334 176.016 276.871C180.107 281.686 181.155 288.035 178.754 293.444C176.582 298.334 172.004 301.355 166.512 301.524C166.352 301.528 166.19 301.53 166.029 301.53Z" fill="#407BFF"/>
<path d="M171.394 275.767C171.159 275.767 170.924 275.702 170.711 275.567C168.514 274.166 166.025 273.424 163.514 273.423C162.811 273.423 162.242 272.853 162.242 272.151C162.242 271.449 162.812 270.879 163.514 270.879C166.511 270.88 169.474 271.759 172.08 273.423C172.673 273.801 172.846 274.587 172.468 275.179C172.226 275.56 171.814 275.767 171.394 275.767Z" fill="#407BFF"/>
<path d="M165.395 295.791C162.46 295.791 159.622 294.477 157.62 292.097C155.104 289.105 154.521 285.134 156.105 281.734C157.576 278.572 160.555 276.683 164.074 276.68C164.776 276.68 165.346 277.249 165.346 277.952C165.346 278.654 164.777 279.224 164.074 279.224C161.572 279.226 159.455 280.565 158.412 282.806C157.252 285.299 157.696 288.233 159.568 290.46C161.483 292.735 164.393 293.721 167.171 293.029C169.531 292.443 171.238 290.714 171.735 288.407C171.883 287.72 172.552 287.286 173.247 287.431C173.934 287.579 174.371 288.255 174.223 288.942C173.516 292.222 171.11 294.671 167.785 295.498C166.989 295.694 166.189 295.791 165.395 295.791Z" fill="#407BFF"/>
<path d="M172.759 285.72C172.217 285.72 171.716 285.371 171.546 284.827C170.531 281.585 167.389 279.228 164.072 279.224C163.368 279.224 162.8 278.653 162.801 277.951C162.802 277.249 163.371 276.68 164.073 276.68C168.471 276.685 172.636 279.793 173.973 284.068C174.183 284.738 173.809 285.452 173.14 285.663C173.014 285.7 172.885 285.72 172.759 285.72Z" fill="#407BFF"/>
<path d="M165.699 290.501C165.014 290.501 164.448 289.954 164.429 289.263C164.41 288.561 164.964 287.976 165.666 287.958C166.824 287.927 166.997 287.099 166.997 286.607C166.997 285.857 166.507 284.726 165.16 284.69C164.793 284.702 164.426 284.857 164.169 285.138C163.91 285.421 163.785 285.806 163.813 286.248C163.855 286.949 163.322 287.552 162.62 287.595C161.92 287.644 161.317 287.104 161.273 286.402C161.204 285.271 161.565 284.213 162.293 283.421C163.016 282.631 164.034 282.179 165.159 282.149C168.03 282.224 169.541 284.503 169.541 286.608C169.541 288.841 167.976 290.441 165.736 290.502C165.722 290.501 165.711 290.501 165.699 290.501Z" fill="#407BFF"/>
<path d="M198.48 286.267C200.031 303.986 186.926 318.347 169.207 318.347C168.749 318.347 168.29 318.334 167.83 318.309C184.697 317.444 196.941 303.427 195.44 286.267C193.941 269.121 179.243 255.103 162.225 254.238C162.68 254.213 163.137 254.2 163.595 254.2C181.315 254.2 196.931 268.561 198.48 286.267Z" fill="#407BFF"/>
<g opacity="0.4">
<path d="M198.48 286.267C200.031 303.986 186.926 318.347 169.207 318.347C168.749 318.347 168.29 318.334 167.83 318.309C184.697 317.444 196.941 303.427 195.44 286.267C193.941 269.121 179.243 255.103 162.225 254.238C162.68 254.213 163.137 254.2 163.595 254.2C181.315 254.2 196.931 268.561 198.48 286.267Z" fill="white"/>
</g>
<path d="M224.4 129.925C224.433 130.306 224.492 130.688 224.563 131.057C225.032 133.512 226.345 135.725 228.144 137.379C230.218 139.287 232.956 140.469 235.869 140.469H343.34C348.784 140.469 352.901 136.348 352.997 131.057C353.003 130.688 352.996 130.306 352.961 129.925C352.707 127.024 351.292 124.379 349.219 122.483C347.144 120.575 344.407 119.392 341.494 119.392H234.023C228.198 119.392 223.891 124.112 224.4 129.925Z" fill="#407BFF"/>
<path opacity="0.8" d="M224.4 129.925C224.433 130.306 224.492 130.688 224.563 131.057C225.032 133.512 226.345 135.725 228.144 137.379C230.218 139.287 232.956 140.469 235.869 140.469H343.34C348.784 140.469 352.901 136.348 352.997 131.057C353.003 130.688 352.996 130.306 352.961 129.925C352.707 127.024 351.292 124.379 349.219 122.483C347.144 120.575 344.407 119.392 341.494 119.392H234.023C228.198 119.392 223.891 124.112 224.4 129.925Z" fill="white"/>
<path d="M352.993 131.054C352.993 131.398 352.968 131.741 352.917 132.072C352.586 129.324 351.2 126.831 349.215 125.025C347.142 123.117 344.407 121.934 341.494 121.934L227.205 122.112C228.922 120.42 231.314 119.39 234.023 119.39H341.494C344.407 119.39 347.142 120.573 349.215 122.481C351.289 124.376 352.713 127.022 352.968 129.922C352.993 130.304 353.006 130.685 352.993 131.054Z" fill="#407BFF"/>
<path opacity="0.5" d="M352.993 131.054C352.993 131.398 352.968 131.741 352.917 132.072C352.586 129.324 351.2 126.831 349.215 125.025C347.142 123.117 344.407 121.934 341.494 121.934L227.205 122.112C228.922 120.42 231.314 119.39 234.023 119.39H341.494C344.407 119.39 347.142 120.573 349.215 122.481C351.289 124.376 352.713 127.022 352.968 129.922C352.993 130.304 353.006 130.685 352.993 131.054Z" fill="white"/>
<path d="M334.487 124.474L334.937 129.616L339.724 127.831L340.861 130.369L335.969 131.992L339.481 136.305L337.289 137.929L333.865 133.447L331.271 137.929L328.863 136.305L331.575 131.992L326.445 130.369L327.136 127.846L332.279 129.566L331.833 124.474H334.487Z" fill="#407BFF"/>
<path d="M305.094 124.474L305.545 129.616L310.331 127.831L311.468 130.369L306.576 131.992L310.088 136.305L307.897 137.929L304.472 133.447L301.879 137.929L299.471 136.305L302.183 131.992L297.053 130.369L297.743 127.846L302.886 129.566L302.441 124.474H305.094Z" fill="#407BFF"/>
<path d="M275.703 124.474L276.153 129.616L280.94 127.831L282.077 130.369L277.185 131.992L280.697 136.305L278.505 137.929L275.081 133.447L272.487 137.929L270.079 136.305L272.791 131.992L267.661 130.369L268.352 127.846L273.495 129.566L273.049 124.474H275.703Z" fill="#407BFF"/>
<path d="M246.31 124.474L246.76 129.616L251.547 127.831L252.684 130.369L247.792 131.992L251.304 136.305L249.112 137.929L245.688 133.447L243.095 137.929L240.687 136.305L243.399 131.992L238.269 130.369L238.959 127.846L244.102 129.566L243.657 124.474H246.31Z" fill="#407BFF"/>
<path d="M317.548 114.406H312.54V115.678H317.548V114.406Z" fill="#407BFF"/>
<path d="M339.094 114.406H322.744V115.678H339.094V114.406Z" fill="#407BFF"/>
<path opacity="0.8" d="M505.99 161.854L500.785 221.346C500.629 223.139 499.825 224.768 498.611 225.989C497.211 227.451 495.248 228.367 493.149 228.367H451.847C450.321 228.367 448.951 227.884 447.88 227.044C446.21 225.785 445.234 223.699 445.44 221.346L450.645 161.854C450.985 157.975 454.402 154.833 458.281 154.833H499.583C503.463 154.833 506.33 157.975 505.99 161.854Z" fill="#407BFF"/>
<path opacity="0.8" d="M505.99 161.854L500.785 221.346C500.629 223.139 499.825 224.768 498.611 225.989C497.211 227.451 495.248 228.367 493.149 228.367H451.847C450.321 228.367 448.951 227.884 447.88 227.044C446.21 225.785 445.234 223.699 445.44 221.346L450.645 161.854C450.985 157.975 454.402 154.833 458.281 154.833H499.583C503.463 154.833 506.33 157.975 505.99 161.854Z" fill="white"/>
<path d="M454.459 171.435C454.422 171.435 454.384 171.434 454.347 171.43C453.646 171.369 453.129 170.752 453.19 170.052L453.666 164.612C453.723 163.954 454.273 163.451 454.933 163.451H460.676C461.38 163.451 461.948 164.021 461.948 164.723C461.948 165.425 461.38 165.995 460.676 165.995H456.098L455.724 170.274C455.666 170.936 455.111 171.435 454.459 171.435Z" fill="#407BFF"/>
<path d="M500.709 171.435C500.672 171.435 500.634 171.434 500.597 171.43C499.896 171.369 499.379 170.752 499.44 170.052L499.795 165.995H495.44C494.737 165.995 494.168 165.425 494.168 164.723C494.168 164.021 494.737 163.451 495.44 163.451H501.183C501.539 163.451 501.88 163.601 502.12 163.863C502.362 164.126 502.48 164.477 502.45 164.833L501.974 170.274C501.916 170.936 501.36 171.435 500.709 171.435Z" fill="#407BFF"/>
<path d="M456.61 212.491H450.865C450.509 212.491 450.168 212.341 449.928 212.078C449.687 211.816 449.568 211.464 449.598 211.108L450.075 205.667C450.138 204.968 450.765 204.442 451.453 204.511C452.154 204.572 452.67 205.189 452.609 205.888L452.254 209.946H456.61C457.313 209.946 457.882 210.516 457.882 211.218C457.882 211.922 457.312 212.491 456.61 212.491Z" fill="#407BFF"/>
<path d="M497.116 212.491H491.373C490.669 212.491 490.101 211.922 490.101 211.219C490.101 210.517 490.669 209.947 491.373 209.947H495.951L496.324 205.668C496.387 204.969 497.027 204.444 497.702 204.512C498.403 204.573 498.919 205.19 498.858 205.89L498.383 211.33C498.325 211.986 497.775 212.491 497.116 212.491Z" fill="#407BFF"/>
<path d="M492.724 191.986C495.595 180.85 490.667 169.952 481.717 167.644C472.766 165.336 463.182 172.492 460.311 183.627C457.439 194.763 462.367 205.661 471.318 207.969C480.268 210.277 489.852 203.121 492.724 191.986Z" fill="white"/>
<path d="M481.514 219.456H465.042L466.483 202.982H482.956L481.514 219.456Z" fill="white"/>
<path d="M500.785 221.346C500.629 223.139 499.825 224.768 498.611 225.989C497.211 227.451 495.248 228.367 493.149 228.367H451.847C450.321 228.367 448.951 227.884 447.88 227.044C446.21 225.785 445.234 223.699 445.44 221.346C445.44 221.346 464.422 215.342 466.763 215.342C469.091 215.342 481.429 215.342 481.429 215.342L500.785 221.346Z" fill="white"/>
<path d="M508.318 179.219L506.396 202.587L507.662 202.691L509.585 179.323L508.318 179.219Z" fill="#407BFF"/>
<path d="M509.663 168.537L509.285 173.127L510.552 173.231L510.929 168.641L509.663 168.537Z" fill="#407BFF"/>
<path d="M465.397 310.457H460.388V311.729H465.397V310.457Z" fill="#407BFF"/>
<path d="M486.943 310.457H470.593V311.729H486.943V310.457Z" fill="#407BFF"/>
<path d="M516.854 288.74L513.681 324.999C513.395 328.266 510.514 330.916 507.246 330.916C503.978 330.916 501.562 328.266 501.846 324.999L505.019 288.74C506.043 277.031 497.351 267.498 485.641 267.498H472.669C460.961 267.498 450.6 277.031 449.575 288.74L448.28 303.546H436.445L437.74 288.74C439.335 270.502 455.473 255.664 473.703 255.664H486.675C504.909 255.664 518.45 270.502 516.854 288.74Z" fill="#407BFF"/>
<g opacity="0.5">
<path d="M516.854 288.74L513.681 324.999C513.395 328.266 510.514 330.916 507.246 330.916C503.978 330.916 501.562 328.266 501.846 324.999L505.019 288.74C506.043 277.031 497.351 267.498 485.641 267.498H472.669C460.961 267.498 450.6 277.031 449.575 288.74L448.28 303.546H436.445L437.74 288.74C439.335 270.502 455.473 255.664 473.703 255.664H486.675C504.909 255.664 518.45 270.502 516.854 288.74Z" fill="white"/>
</g>
<path d="M517.709 323.671L511.529 394.314C511.138 398.785 507.205 402.401 502.734 402.401H432.091C427.628 402.401 424.32 398.785 424.712 394.314L430.893 323.671C431.145 320.784 432.886 318.247 435.285 316.82C436.596 316.037 438.109 315.583 439.686 315.583H510.329C511.861 315.583 513.25 316.011 514.402 316.741C516.627 318.162 517.966 320.732 517.709 323.671Z" fill="#407BFF"/>
<path d="M444.244 354.528L462.597 382.784L523.134 322.247C523.665 321.716 522.933 320.887 522.34 321.352L464.648 366.571L453.754 349.005L444.244 354.528Z" fill="white"/>
<path d="M155.13 217.9H109.157C104.841 217.9 101.035 214.401 100.657 210.084L96.6353 164.111C96.2575 159.795 99.4503 156.296 103.767 156.296H149.74C154.057 156.296 157.862 159.795 158.24 164.111L162.262 210.084C162.639 214.401 159.447 217.9 155.13 217.9Z" fill="#407BFF"/>
<path opacity="0.8" d="M155.13 217.9H109.157C104.841 217.9 101.035 214.401 100.657 210.084L96.6353 164.111C96.2575 159.795 99.4503 156.296 103.767 156.296H149.74C154.057 156.296 157.862 159.795 158.24 164.111L162.262 210.084C162.639 214.401 159.447 217.9 155.13 217.9Z" fill="white"/>
<path d="M100.68 191.729C100.68 191.729 117.011 168.974 129.06 169.558C141.108 170.14 161.085 191.192 161.085 191.192C161.085 191.192 131.609 206.667 100.68 191.729Z" fill="white"/>
<path d="M101.198 192.099L100.164 191.357C100.829 190.429 116.416 168.909 128.601 168.909C128.765 168.909 128.928 168.913 129.091 168.92C141.253 169.509 160.723 189.885 161.546 190.753L160.623 191.628C160.425 191.419 140.684 170.755 129.028 170.19C128.886 170.183 128.74 170.18 128.595 170.18C117.063 170.182 101.357 191.877 101.198 192.099Z" fill="#263238"/>
<path d="M98.9822 192.529C96.5183 192.529 93.3192 191.613 92.1859 188.126C92.0777 187.792 92.2609 187.433 92.5942 187.325C92.9274 187.219 93.2874 187.4 93.3955 187.733C94.8558 192.234 100.319 191.154 100.551 191.105C100.888 191.038 101.231 191.254 101.302 191.599C101.375 191.942 101.153 192.279 100.809 192.351C100.299 192.457 99.669 192.529 98.9822 192.529Z" fill="#263238"/>
<path d="M108.686 182.76C108.552 182.76 108.414 182.716 108.298 182.629C108.108 182.481 103.595 178.991 102.442 175.447C102.334 175.114 102.517 174.755 102.851 174.646C103.184 174.537 103.544 174.722 103.652 175.054C104.681 178.219 109.029 181.584 109.073 181.619C109.352 181.832 109.404 182.232 109.19 182.51C109.066 182.674 108.877 182.76 108.686 182.76Z" fill="#263238"/>
<path d="M118.036 174.097C118.032 174.097 118.027 174.097 118.022 174.097C117.671 174.09 117.392 173.8 117.4 173.447C117.417 172.632 115.395 167.307 114.633 165.303C114.314 164.463 114.086 163.862 114.038 163.7C113.936 163.364 114.126 163.009 114.461 162.906C114.805 162.805 115.153 162.995 115.255 163.331C115.301 163.484 115.52 164.055 115.821 164.851C117.594 169.518 118.689 172.59 118.67 173.475C118.664 173.821 118.38 174.097 118.036 174.097Z" fill="#263238"/>
<path d="M129.058 170.194C128.733 170.194 128.454 169.944 128.426 169.614L127.531 159.369C127.5 159.019 127.76 158.71 128.108 158.679C128.467 158.635 128.767 158.907 128.798 159.258L129.693 169.503C129.724 169.853 129.464 170.162 129.116 170.192C129.095 170.192 129.078 170.194 129.058 170.194Z" fill="#263238"/>
<path d="M162.992 191.835C161.962 191.835 161.202 191.689 161.135 191.675C160.79 191.606 160.569 191.272 160.636 190.927C160.706 190.583 161.034 190.355 161.384 190.427C161.415 190.432 164.489 191.023 166.398 189.679C167.209 189.108 167.686 188.283 167.855 187.157C167.907 186.808 168.235 186.574 168.577 186.623C168.923 186.675 169.164 186.998 169.111 187.347C168.891 188.817 168.224 189.953 167.126 190.724C165.842 191.626 164.223 191.835 162.992 191.835Z" fill="#263238"/>
<path d="M151.572 182.083C151.396 182.083 151.222 182.01 151.096 181.868C150.862 181.606 150.887 181.204 151.149 180.97C151.188 180.937 154.911 177.604 155.38 174.479C155.432 174.13 155.759 173.896 156.103 173.945C156.45 173.997 156.689 174.321 156.637 174.668C156.1 178.252 152.159 181.774 151.993 181.923C151.872 182.03 151.722 182.083 151.572 182.083Z" fill="#263238"/>
<path d="M140.821 174.693C140.785 174.693 140.75 174.69 140.714 174.684C140.368 174.625 140.134 174.297 140.193 173.95C140.207 173.868 141.589 165.689 141.84 164.016C141.892 163.667 142.22 163.432 142.562 163.481C142.91 163.533 143.149 163.858 143.097 164.205C142.845 165.889 141.461 174.08 141.447 174.162C141.395 174.473 141.125 174.693 140.821 174.693Z" fill="#263238"/>
<path d="M141.2 194.38C146.467 188.877 145.869 179.755 139.863 174.006C133.857 168.257 124.717 168.057 119.449 173.56C114.182 179.064 114.78 188.186 120.786 193.935C126.792 199.684 135.932 199.884 141.2 194.38Z" fill="#407BFF"/>
<path opacity="0.3" d="M136.277 183.967C136.3 183.649 136.297 183.331 136.268 183C135.972 179.617 132.985 176.882 129.602 176.882C126.231 176.882 123.722 179.617 124.019 183C124.048 183.331 124.101 183.649 124.192 183.967H115.911C115.214 176.004 121.1 169.555 129.062 169.555C137.012 169.555 144.039 176.004 144.735 183.967H136.277Z" fill="black"/>
<path opacity="0.7" d="M136.268 183C136.297 183.331 136.3 183.649 136.277 183.967C136.062 186.892 133.725 189.118 130.672 189.118C127.632 189.118 124.906 186.892 124.193 183.967C124.101 183.649 124.048 183.331 124.02 183C123.724 179.617 126.232 176.882 129.603 176.882C132.985 176.882 135.972 179.617 136.268 183Z" fill="black"/>
<path opacity="0.7" d="M139.593 176.996C139.834 179.751 137.796 181.984 135.042 181.984C132.287 181.984 129.858 179.75 129.618 176.996C129.376 174.241 131.414 172.009 134.169 172.009C136.923 172.007 139.351 174.241 139.593 176.996Z" fill="white"/>
<path d="M119.895 150.584H114.886V151.856H119.895V150.584Z" fill="#407BFF"/>
<path d="M141.44 150.584H125.091V151.856H141.44V150.584Z" fill="#407BFF"/>
<path d="M351.041 243.779L351.481 244.302L352.066 244.973C352.486 245.418 352.892 245.889 353.35 246.324C354.225 247.242 355.18 248.127 356.146 249.039C358.08 250.819 360.108 252.496 362.219 254.062C364.368 255.654 366.625 257.126 368.896 258.573C370.13 259.258 371.209 259.984 372.405 260.642L375.17 262.169C375.57 262.347 376.02 262.374 376.439 262.244C377.326 261.98 382.443 256.916 384.071 255.041C387.678 250.902 393.154 245.466 396.098 240.832L399.456 245.374C397.375 251.047 394.612 256.445 391.227 261.452C389.403 264.154 387.223 266.596 384.745 268.714C383.252 269.972 381.565 270.982 379.751 271.706C377.458 272.624 374.937 272.814 372.533 272.246C371.908 272.096 371.299 271.894 370.709 271.641L369.566 271.14L367.507 270.202C366.117 269.584 364.784 268.856 363.434 268.177C360.737 266.74 358.121 265.156 355.599 263.431C353.055 261.684 350.614 259.791 348.29 257.761C347.077 256.707 345.995 255.636 344.891 254.475C344.339 253.908 343.788 253.301 343.251 252.683L342.455 251.719C342.17 251.357 341.956 251.09 341.556 250.545L351.041 243.779Z" fill="#FFB573"/>
<path d="M395.639 241.53L401.545 228.912L407.178 239.006C407.178 239.006 403.479 245.38 399.459 245.371L395.639 241.53Z" fill="#FFB573"/>
<path d="M408.187 223.674L414.144 231.327L407.179 238.994L401.545 228.912L408.187 223.674Z" fill="#FFB573"/>
<path d="M406.115 242.481H415.485C416.035 242.481 416.492 242.062 416.541 241.515L418.507 219.04C418.562 218.42 418.074 217.887 417.452 217.887H408.082C407.532 217.887 407.075 218.307 407.026 218.854L405.06 241.329C405.006 241.948 405.493 242.481 406.115 242.481Z" fill="#407BFF"/>
<path opacity="0.3" d="M406.21 240.227H415.6L417.358 220.14H407.968L406.21 240.227Z" fill="white"/>
<path d="M405.605 237.384L407.274 236.527C408.118 236.093 408.899 235.546 409.594 234.9L409.902 233.787C409.536 233.179 408.811 232.887 408.127 233.074L406.742 233.45L399.868 233.973L399.696 236.868L401.704 239.981L402.401 240.007C403.979 240.07 405.354 238.943 405.605 237.384Z" fill="#FFB573"/>
<path d="M339.071 231.447C343.837 230.582 377.482 259.756 377.482 259.756L367.507 274.383C367.507 274.383 330.716 248.766 331.847 242.577C333.018 236.135 332.114 232.718 339.071 231.447Z" fill="#263238"/>
<path opacity="0.2" d="M343.31 240.829L342.943 256.143C346.768 259.109 360.553 269.679 360.553 269.679L343.31 240.829Z" fill="black"/>
<path d="M316.639 534.629L327.926 535.745L331.502 509.58L320.214 508.465L316.639 534.629Z" fill="#FFB573"/>
<path d="M205.558 381.099L202.664 392.089L227.08 402.612L232.136 391.462L205.558 381.099Z" fill="#FFB573"/>
<path d="M335.997 538.01C336.968 538.127 337.95 537.91 338.78 537.396C339.154 537.075 339.348 536.591 339.297 536.101C339.291 535.798 339.128 535.521 338.866 535.37C337.497 534.557 332.889 536.741 332.373 536.988C332.273 537.041 332.212 537.148 332.218 537.262C332.235 537.374 332.32 537.463 332.431 537.485C333.602 537.767 334.795 537.944 335.997 538.01ZM338.05 535.728C338.225 535.719 338.396 535.759 338.55 535.84C338.658 535.9 338.727 536.013 338.728 536.137C338.759 536.46 338.634 536.778 338.391 536.994C337.688 537.589 335.812 537.636 333.305 537.148C334.805 536.402 336.423 535.92 338.087 535.721L338.05 535.728Z" fill="#407BFF"/>
<path d="M332.491 537.508L332.59 537.484C333.969 536.918 336.72 534.54 336.542 533.248C336.468 532.952 336.305 532.56 335.559 532.458C335.022 532.363 334.47 532.5 334.04 532.836C332.58 533.973 332.229 537.036 332.207 537.159C332.185 537.251 332.21 537.348 332.272 537.419C332.327 537.48 332.408 537.513 332.491 537.508ZM335.295 532.981L335.456 532.94C335.947 533.015 335.967 533.206 335.971 533.271C336.088 534.054 334.207 535.925 332.797 536.684C332.932 535.392 333.474 534.179 334.345 533.217C334.629 533.018 334.976 532.931 335.321 532.974L335.295 532.981Z" fill="#407BFF"/>
<path d="M327.367 531.192L317.144 531.616C316.686 531.621 316.307 531.972 316.266 532.427L313.826 546.623C313.769 547.64 314.547 548.511 315.564 548.568C315.634 548.572 315.705 548.572 315.775 548.568C320.212 548.338 322.349 548.008 327.972 547.817C331.418 547.702 342.019 548.949 346.669 547.878C351.32 546.807 350.498 542.144 348.467 542.173C341.926 542.299 334.384 538.041 330.6 533.057C330.039 532.631 328.071 531.149 327.367 531.192Z" fill="#263238"/>
<path d="M207.852 393.536L213.041 384.718C213.285 384.331 213.196 383.822 212.835 383.541L202.231 373.791C201.408 373.192 200.254 373.373 199.654 374.196C199.612 374.253 199.574 374.311 199.54 374.374C197.326 378.225 196.444 380.2 193.554 385.027C191.783 387.984 184.983 396.213 183.36 400.702C181.737 405.191 186.1 407.029 187.178 405.306C190.62 399.743 198.289 395.717 204.528 395.241C205.194 395.001 207.506 394.151 207.852 393.536Z" fill="#263238"/>
<path opacity="0.2" d="M331.502 509.58L329.658 523.067L318.37 521.964L320.201 508.477L331.502 509.58Z" fill="black"/>
<path opacity="0.2" d="M239.638 394.176L234.424 405.946L218.711 399.006L222.719 387.79L239.638 394.176Z" fill="black"/>
<path d="M346.272 244.927C352.723 255.886 344.838 265.142 338.257 297.907L295.739 298.021C296.428 280.363 296.356 266.087 288.818 231.351C288.12 228.189 290.117 225.059 293.279 224.36C293.69 224.27 294.108 224.223 294.528 224.222C298.045 224.226 302.459 224.348 306.943 224.804C314.025 225.379 321.059 226.443 327.996 227.988C333.9 229.408 335.334 230.193 339.07 231.447C341.25 232.192 343.885 238.141 346.272 244.927Z" fill="#263238"/>
<path d="M339.828 300.119C339.828 300.119 363.701 369.151 363.124 402.344C362.797 421.36 361.365 456.794 355.627 481.718C350.944 502.055 331.87 515.043 331.87 515.043L316.569 514.137C316.569 514.137 308.312 483.102 309.748 470.751C312.605 446.168 321.087 427.693 320.065 405.119C318.432 368.149 307.498 299.527 307.498 299.527L339.828 300.119Z" fill="#407BFF"/>
<path d="M313.533 518.121L335.089 519.397L337.058 512.917L312.967 510.69L313.533 518.121Z" fill="#263238"/>
<path opacity="0.2" d="M316.261 439.578C316.287 439.546 316.308 439.451 316.379 439.458C329.927 440.784 339.304 421.234 337.058 394.535L329.866 326.489L316.261 439.578Z" fill="black"/>
<path d="M329.122 299.539C329.122 299.539 348.094 420.928 308.634 434.593C287.817 442.48 270.296 433.928 249.554 424.748C237.561 419.439 222.577 405.082 222.577 405.082L228.337 389.397C228.337 389.397 241.955 384.976 260.095 387.791C280.323 390.929 281.172 396.65 288.362 392.343C303.47 354.986 277.472 325.464 295.142 299.481L329.122 299.539Z" fill="#407BFF"/>
<path d="M229.462 386.425L221.764 406.759L227.438 411.095L236.585 386.895L229.462 386.425Z" fill="#263238"/>
<path d="M226.288 276.733C224.363 279.574 214.624 277.652 214.624 277.652L212.557 265.581L224.516 270.375L226.288 276.733Z" fill="#FFB573"/>
<path d="M214.949 264.951L216.818 277.494L209.623 278.572C208.826 278.639 208.102 278.108 207.928 277.325L205.18 268.341C205.083 267.909 205.347 267.477 205.775 267.364L214.949 264.951Z" fill="#FFB573"/>
<path d="M211.745 270.646L215.85 271.372L219.719 268.453L218.222 267.385C217.207 266.661 216.495 265.59 216.22 264.374C215.925 263.065 215.728 261.653 215.696 260.494L215.683 260.059C215.581 259.272 214.968 258.649 214.184 258.531L213.167 259.286C212.524 260.675 212.983 262.281 212.903 263.364L212.741 265.469L211.098 266.181L211.745 270.646Z" fill="#FFB573"/>
<path d="M290.872 228.961L266.807 262.07L222.577 270.755V278.01C222.577 278.01 264.122 281.09 273.442 275.65C282.762 270.21 298.442 237.281 298.442 237.281L290.872 228.961Z" fill="#FFB573"/>
<path d="M290.588 165.347C280.494 161.957 268.776 168.23 264.152 177.822C259.529 187.414 261.153 199.18 266.353 208.473C267.921 211.275 269.796 213.919 271.072 216.866C272.348 219.813 272.986 223.2 271.95 226.24C270.913 229.281 269.842 231.229 266.076 230.737C266.076 230.737 266.03 228.652 267.512 228.905C267.512 228.905 264.466 230.6 263.27 229.49C264.647 231.634 268.346 230.849 269.533 228.595C271.31 225.219 268.043 220.655 264.229 220.697C260.414 220.739 257.314 224.591 257.436 228.404C257.559 232.218 260.363 235.609 263.844 237.169C261.783 237.577 259.516 236.366 258.709 234.425C260.438 238.955 266.091 240.958 270.858 240.07C275.626 239.182 279.664 236.118 283.399 233.025C288.435 228.856 293.691 223.585 293.533 217.049C293.416 212.181 290.287 207.994 287.656 203.894C285.027 199.794 282.72 194.774 284.39 190.2C285.807 186.32 289.642 183.98 293.033 181.623C295.474 179.926 300.432 176.145 299.848 172.577C299.3 169.233 293.446 166.308 290.588 165.347Z" fill="#263238"/>
<path d="M267.832 278.578L261.169 260.938L262.697 261.064C265.219 261.273 267.627 259.997 268.862 257.787C273.927 248.731 287.091 225.739 290.794 224.597C296.073 223.032 301.504 227.256 303.552 233.488C305.058 238.084 289.587 257.767 282.406 268.964C276.049 278.88 267.832 278.578 267.832 278.578Z" fill="#263238"/>
<path d="M202.815 399.332C202.815 399.332 202.81 399.421 202.806 399.472C202.991 399.971 203.423 400.339 203.945 400.443C204.261 400.545 204.607 400.468 204.85 400.242C205.926 399.274 205.239 395.168 205.174 394.758C205.16 394.649 205.078 394.563 204.971 394.541C204.869 394.521 204.763 394.559 204.697 394.639C203.849 395.863 202.471 398.037 202.815 399.332ZM204.775 395.497C205.01 397.129 205.108 399.339 204.517 399.852C204.402 399.947 204.244 399.973 204.104 399.917C203.758 399.851 203.47 399.613 203.339 399.286C203.112 398.598 203.589 397.199 204.771 395.536L204.775 395.497Z" fill="#407BFF"/>
<path d="M204.749 395.292C205.089 396.663 206.377 399.007 207.519 399.278C207.952 399.364 208.386 399.142 208.57 398.741C208.771 398.374 208.797 397.936 208.641 397.548C208.122 395.976 205.117 394.676 204.992 394.618C204.913 394.563 204.81 394.557 204.725 394.602C204.654 394.665 204.615 394.756 204.621 394.85C204.655 395.001 204.698 395.148 204.749 395.292ZM208.208 397.777C208.269 398.005 208.231 398.248 208.105 398.446C207.934 398.743 207.769 398.745 207.642 398.725C206.861 398.565 205.675 396.646 205.295 395.311C206.273 395.802 207.86 396.737 208.173 397.698C208.178 397.728 208.19 397.754 208.208 397.777Z" fill="#407BFF"/>
<path d="M295.58 295.863L294.405 299.999C294.246 300.321 294.621 300.649 295.157 300.642L339.036 300.584C339.454 300.609 339.8 300.374 339.828 300.121L340.239 295.978C340.256 295.698 339.901 295.449 339.441 295.459L296.327 295.512C296.034 295.488 295.749 295.622 295.58 295.863Z" fill="#407BFF"/>
<path opacity="0.5" d="M295.58 295.863L294.405 299.999C294.246 300.321 294.621 300.649 295.157 300.642L339.036 300.584C339.454 300.609 339.8 300.374 339.828 300.121L340.239 295.978C340.256 295.698 339.901 295.449 339.441 295.459L296.327 295.512C296.034 295.488 295.749 295.622 295.58 295.863Z" fill="white"/>
<path d="M303.958 301.025L302.683 301.026C302.442 301.012 302.245 300.898 302.266 300.747L302.84 295.365C302.849 295.212 303.073 295.085 303.328 295.087L304.603 295.073C304.845 295.087 305.042 295.202 305.019 295.366L304.446 300.735C304.425 300.887 304.2 301.026 303.958 301.025Z" fill="#407BFF"/>
<path d="M335.639 301.019L334.364 301.02C334.122 301.006 333.925 300.893 333.947 300.74L334.519 295.371C334.53 295.206 334.753 295.079 334.995 295.081L336.27 295.08C336.511 295.094 336.708 295.208 336.687 295.36L336.114 300.729C336.104 300.894 335.893 301.021 335.639 301.019Z" fill="#407BFF"/>
<path d="M321.13 300.991L319.855 300.992C319.614 300.978 319.417 300.864 319.438 300.712L320.011 295.343C320.021 295.178 320.245 295.052 320.486 295.053L321.761 295.052C322.003 295.066 322.2 295.18 322.178 295.332L321.606 300.701C321.595 300.865 321.384 300.993 321.13 300.991Z" fill="#407BFF"/>
<path d="M308.925 201.655C310.274 208.577 311.597 221.093 306.9 224.867C306.9 224.867 308.773 231.973 321.353 233.865C335.246 235.962 327.953 228.051 327.953 228.051C320.396 225.055 320.579 219.587 321.885 214.553L308.925 201.655Z" fill="#FFB573"/>
<path d="M306.944 224.806C314.024 225.364 319.947 226.026 326.877 227.579L336.394 230.405C338.091 233.819 335.318 240.829 327.349 242.158C327.349 242.158 307.288 244.927 301.371 224.271L306.944 224.806Z" fill="#FFB573"/>
<path opacity="0.2" d="M314.208 206.925L321.873 214.553C321.55 215.734 321.337 216.941 321.239 218.159C318.346 217.312 313.693 214.12 313.377 211.068C313.367 209.645 313.649 208.234 314.208 206.925Z" fill="black"/>
<path d="M300.436 192.896C303.838 203.661 305.042 208.294 312.015 212.53C322.432 218.893 334.961 212.372 334.792 200.817C334.694 190.413 329.159 174.565 317.334 172.871C308.927 171.616 301.093 177.412 299.837 185.819C299.482 188.192 299.687 190.616 300.436 192.896Z" fill="#FFB573"/>
<path d="M326.108 191.217C327.314 193.115 328.777 194.836 330.455 196.332C329.655 197.177 328.526 197.629 327.365 197.571L326.108 191.217Z" fill="#ED893E"/>
<path d="M324.9 203.323C325.335 203.278 325.767 203.197 326.189 203.081C326.325 203.048 326.41 202.912 326.377 202.775C326.376 202.77 326.375 202.766 326.373 202.761C326.334 202.622 326.195 202.537 326.054 202.563C323.822 203.183 321.428 202.691 319.622 201.239C319.512 201.138 319.341 201.145 319.239 201.255C319.137 201.365 319.145 201.536 319.254 201.637C320.835 202.932 322.869 203.54 324.9 203.323Z" fill="#263238"/>
<path d="M296.734 171.408C293.922 173.196 292.08 176.421 291.968 179.751C291.948 180.385 291.99 181.04 292.263 181.611C292.537 182.183 293.084 182.658 293.717 182.692C294.688 182.746 295.401 181.834 295.933 181.021C296.754 179.767 297.573 178.512 298.393 177.257C299.197 176.027 300.533 174.599 300.969 173.194C301.764 170.638 298.239 170.453 296.734 171.408Z" fill="#407BFF"/>
<path d="M297.943 173.946C291.181 181.752 288.164 203.366 307.947 209.392C311.255 206.776 305.914 202.01 303.647 195.977C302.164 192.03 309.7 184.663 312.645 181.645C315.59 178.628 318.288 174.256 322.444 174.956C323.532 175.139 324.691 175.5 325.696 175.045C328.989 173.553 327.39 171.583 325.734 170.204C323.299 168.176 319.874 167.258 316.769 166.921C309.882 166.174 302.53 168.652 297.943 173.946Z" fill="#263238"/>
<path d="M319.913 171.33C327.854 177.954 317.332 178.121 311.808 182.317C306.472 186.347 310.214 192.952 301.198 196.011C293.83 198.167 292.131 196.873 290.091 195.447C290.091 195.447 298.44 194.396 299.666 185.019C300.297 180.198 310.824 163.643 319.913 171.33Z" fill="#263238"/>
<path d="M299.237 201.939C300.479 203.735 302.38 204.969 304.525 205.375C307.376 205.875 308.474 203.264 307.489 200.72C306.567 198.436 303.981 195.416 301.228 196.069C299.248 196.576 298.055 198.594 298.564 200.574C298.69 201.07 298.92 201.534 299.237 201.939Z" fill="#FFB573"/>
<path d="M318.544 172.001C320.083 175.915 324.522 175.401 327.811 179.495C329.828 181.997 333.795 174.192 328.397 171.094C322.999 167.996 316.128 165.869 318.544 172.001Z" fill="#263238"/>
<path d="M313.871 188.535C314.1 188.561 314.32 188.434 314.412 188.223C315.456 185.899 318.588 185.318 318.617 185.315C318.908 185.26 319.1 184.979 319.046 184.688C318.991 184.397 318.71 184.205 318.418 184.259C318.261 184.281 314.693 185.009 313.427 187.808C313.302 188.075 313.418 188.393 313.685 188.518L313.688 188.519L313.871 188.535Z" fill="#263238"/>
<path d="M330.403 183.857C330.593 183.87 330.774 183.777 330.877 183.618C331.043 183.375 330.981 183.042 330.738 182.875C330.735 182.874 330.733 182.872 330.73 182.87C329.299 181.886 327.48 181.654 325.848 182.25C325.574 182.367 325.446 182.685 325.565 182.959C325.682 183.234 326 183.361 326.275 183.243C327.569 182.784 329.008 182.982 330.129 183.777C330.214 183.822 330.308 183.849 330.403 183.857Z" fill="#263238"/>
<path d="M382.695 253.488L375.253 257.724L367.507 274.383C367.507 274.383 374.987 279.144 380.882 275.29C386.775 271.436 382.695 253.488 382.695 253.488Z" fill="#407BFF"/>
<path opacity="0.5" d="M382.695 253.488L375.253 257.724L367.507 274.383C367.507 274.383 374.987 279.144 380.882 275.29C386.775 271.436 382.695 253.488 382.695 253.488Z" fill="white"/>
<path d="M252.351 258.637L261.168 261.13L269.525 278.422C269.525 278.422 262.803 284.632 255.54 278.696C250.087 274.239 252.351 258.637 252.351 258.637Z" fill="#407BFF"/>
<g opacity="0.5">
<path d="M252.351 258.637L261.168 261.13L269.525 278.422C269.525 278.422 262.803 284.632 255.54 278.696C250.087 274.239 252.351 258.637 252.351 258.637Z" fill="white"/>
</g>
<path d="M329.89 188.168C330.501 188.054 331.137 188.741 331.302 189.682C331.468 190.623 331.099 191.488 330.488 191.59C329.878 191.692 329.242 191.018 329.076 190.076C328.898 189.16 329.28 188.283 329.89 188.168Z" fill="#263238"/>
<path d="M331.773 187.24L329.623 188.295C330.92 189.211 331.773 187.24 331.773 187.24Z" fill="#263238"/>
<path d="M319.241 190.348C319.851 190.234 320.487 190.921 320.653 191.862C320.818 192.803 320.449 193.668 319.839 193.77C319.228 193.872 318.592 193.198 318.427 192.256C318.249 191.341 318.63 190.463 319.241 190.348Z" fill="#263238"/>
<path d="M321.123 189.42L318.974 190.476C320.271 191.391 321.123 189.42 321.123 189.42Z" fill="#263238"/>
<path d="M265.418 239.022C264.205 239.022 263.014 238.809 261.916 238.36C257.975 236.75 256.14 232.645 256.881 227.098C256.927 226.749 257.253 226.504 257.596 226.552C257.943 226.599 258.189 226.918 258.142 227.267C257.484 232.195 259.035 235.808 262.399 237.182C266.036 238.669 270.872 237.182 273.404 233.8C276.591 229.546 275.559 223.518 270.574 217.263C257.55 200.918 258.422 192.225 260.261 185.361C262.935 175.388 270.761 163.96 292.89 166.158C293.239 166.192 293.494 166.504 293.459 166.853C293.424 167.203 293.128 167.452 292.763 167.423C271.537 165.309 264.034 176.194 261.49 185.69C259.649 192.555 258.913 200.587 271.568 216.47C279.201 226.05 276.106 232.314 274.422 234.563C272.316 237.374 268.786 239.02 265.418 239.022Z" fill="#263238"/>
</svg>
