<svg width="24" height="24" viewBox="0 0 24 24" fill="none" xmlns="http://www.w3.org/2000/svg">
<path fill-rule="evenodd" clip-rule="evenodd" d="M17 3.12848C17 2.48539 16.4018 2.00948 15.7751 2.15409L3.77514 4.92332C3.32141 5.02803 3 5.43205 3 5.89771V21H2.5C2.22386 21 2 21.2239 2 21.5C2 21.7761 2.22386 22 2.5 22H3.49803H3.5H3.50197H8V19C8 18.4477 8.44772 18 9 18H11C11.5523 18 12 18.4477 12 19V22H16.498H16.5H16.502H17V3.12848ZM6.5 7.99995C6.22386 7.99995 6 8.22381 6 8.49995V9.49995C6 9.77609 6.22386 9.99995 6.5 9.99995H7.5C7.77614 9.99995 8 9.77609 8 9.49995V8.49995C8 8.22381 7.77614 7.99995 7.5 7.99995H6.5ZM6 11.5C6 11.2239 6.22386 11 6.5 11H7.5C7.77614 11 8 11.2239 8 11.5V12.5C8 12.7761 7.77614 13 7.5 13H6.5C6.22386 13 6 12.7761 6 12.5V11.5ZM6.5 14C6.22386 14 6 14.2239 6 14.5V15.5C6 15.7761 6.22386 16 6.5 16H7.5C7.77614 16 8 15.7761 8 15.5V14.5C8 14.2239 7.77614 14 7.5 14H6.5ZM9 8.49995C9 8.22381 9.22386 7.99995 9.5 7.99995H10.5C10.7761 7.99995 11 8.22381 11 8.49995V9.49995C11 9.77609 10.7761 9.99995 10.5 9.99995H9.5C9.22386 9.99995 9 9.77609 9 9.49995V8.49995ZM9.5 11C9.22386 11 9 11.2239 9 11.5V12.5C9 12.7761 9.22386 13 9.5 13H10.5C10.7761 13 11 12.7761 11 12.5V11.5C11 11.2239 10.7761 11 10.5 11H9.5ZM9 14.5C9 14.2239 9.22386 14 9.5 14H10.5C10.7761 14 11 14.2239 11 14.5V15.5C11 15.7761 10.7761 16 10.5 16H9.5C9.22386 16 9 15.7761 9 15.5V14.5ZM12.5 7.99995C12.2239 7.99995 12 8.22381 12 8.49995V9.49995C12 9.77609 12.2239 9.99995 12.5 9.99995H13.5C13.7761 9.99995 14 9.77609 14 9.49995V8.49995C14 8.22381 13.7761 7.99995 13.5 7.99995H12.5ZM12 11.5C12 11.2239 12.2239 11 12.5 11H13.5C13.7761 11 14 11.2239 14 11.5V12.5C14 12.7761 13.7761 13 13.5 13H12.5C12.2239 13 12 12.7761 12 12.5V11.5ZM12.5 14C12.2239 14 12 14.2239 12 14.5V15.5C12 15.7761 12.2239 16 12.5 16H13.5C13.7761 16 14 15.7761 14 15.5V14.5C14 14.2239 13.7761 14 13.5 14H12.5Z" fill="white"/>
<path d="M18 5.69092V21.9999H20.4986H20.5H20.5014H21.5C21.7761 21.9999 22 21.776 22 21.4999C22 21.2238 21.7761 20.9999 21.5 20.9999H21V7.80895C21 7.43018 20.786 7.08391 20.4472 6.91452L18 5.69092Z" fill="white"/>
<path d="M11 22H9V19H11V22Z" fill="white"/>
</svg>
