<svg width="24" height="24" viewBox="0 0 24 24" fill="none" xmlns="http://www.w3.org/2000/svg">
<path d="M22.5 19.5H17.5V16.62L15.5 14.62V19.5H14.5V13.62L14 13.12L12.5 14.62V19.5H11.5V15.41C11.34 15.465 11.175 15.5 11 15.5C10.6 15.5 10.225 15.345 9.94 15.06L9.5 14.62V19.5H8.5V13.62L6.5 11.62V19.5H5.5V10.62L3.5 8.62V19.5H2V5C2 4.725 1.775 4.5 1.5 4.5C1.225 4.5 1 4.725 1 5V19.5C1 20.05 1.45 20.5 2 20.5H22.5C22.775 20.5 23 20.275 23 20C23 19.725 22.775 19.5 22.5 19.5Z" fill="white"/>
<path d="M10.6452 14.355C10.8402 14.55 11.1552 14.55 11.3502 14.355L13.9952 11.71L19.7902 17.505H18.9952C18.7202 17.505 18.4952 17.73 18.4952 18.005C18.4952 18.28 18.7202 18.505 18.9952 18.505H20.9952C21.2702 18.505 21.4952 18.28 21.4952 18.005V16.005C21.4952 15.73 21.2702 15.505 20.9952 15.505C20.7202 15.505 20.4952 15.73 20.4952 16.005V16.8L14.3502 10.655C14.1552 10.46 13.8402 10.46 13.6452 10.655L11.0002 13.3L3.85516 6.14503C3.66016 5.95003 3.34516 5.95003 3.15016 6.14503C2.95516 6.34003 2.95516 6.65503 3.15016 6.85003L10.6502 14.35L10.6452 14.355Z" fill="white"/>
<path d="M15.06 9.94L17.505 12.385C17.825 12.455 18.155 12.5 18.5 12.5C20.98 12.5 23 10.48 23 8C23 5.52 20.98 3.5 18.5 3.5C16.02 3.5 14 5.52 14 8C14 8.535 14.1 9.05 14.27 9.525C14.565 9.58 14.84 9.72 15.06 9.94ZM19.75 10C19.335 10 19 9.665 19 9.25C19 8.835 19.335 8.5 19.75 8.5C20.165 8.5 20.5 8.835 20.5 9.25C20.5 9.665 20.165 10 19.75 10ZM17.25 6C17.665 6 18 6.335 18 6.75C18 7.165 17.665 7.5 17.25 7.5C16.835 7.5 16.5 7.165 16.5 6.75C16.5 6.335 16.835 6 17.25 6ZM16.645 9.145L19.645 6.145C19.84 5.95 20.155 5.95 20.35 6.145C20.545 6.34 20.545 6.655 20.35 6.85L17.35 9.85C17.25 9.95 17.125 9.995 16.995 9.995C16.865 9.995 16.74 9.945 16.64 9.85C16.445 9.655 16.445 9.34 16.64 9.145H16.645Z" fill="white"/>
</svg>
