<svg width="32" height="32" viewBox="0 0 32 32" fill="none" xmlns="http://www.w3.org/2000/svg">
<g clip-path="url(#clip0_96_9806)">
<path opacity="0.4" d="M5.59234 23.8843C5.28428 23.8825 4.95584 23.8815 4.60422 23.8815C3.62303 23.8815 2.72472 24.3164 2.36222 25.3903C1.12878 25.3903 0.128906 26.3902 0.128906 27.6236C0.128906 28.857 1.12878 29.8568 2.36222 29.8568H5.59228L5.59234 23.8843Z" fill="white"/>
<path opacity="0.4" d="M26.4082 23.8843C26.7163 23.8825 27.0447 23.8815 27.3963 23.8815C28.3775 23.8815 29.2758 24.3164 29.6383 25.3903C30.8718 25.3903 31.8716 26.3902 31.8716 27.6236C31.8716 28.857 30.8718 29.8568 29.6383 29.8568C29.0068 29.8568 27.2157 29.8568 26.4083 29.8568V23.8843H26.4082Z" fill="white"/>
<path d="M27.6047 29.7493H12.7393V9.2185C12.7393 8.75562 13.1145 8.38037 13.5774 8.38037H26.7665C27.2294 8.38037 27.6046 8.75562 27.6046 9.2185L27.6047 29.7493Z" fill="white"/>
<path opacity="0.4" d="M24.874 14.4958H19.7021V11.3087H24.874C25.1113 11.3087 25.3038 11.5012 25.3038 11.7385V14.0661C25.3037 14.3034 25.1113 14.4958 24.874 14.4958Z" fill="#7889B9"/>
<path opacity="0.4" d="M24.874 20.4073H19.7021V17.2202H24.874C25.1113 17.2202 25.3038 17.4127 25.3038 17.65V19.9776C25.3037 20.2149 25.1113 20.4073 24.874 20.4073Z" fill="#7889B9"/>
<path opacity="0.4" d="M24.874 26.3188H19.7021V23.1317H24.874C25.1113 23.1317 25.3038 23.3242 25.3038 23.5615V25.8891C25.3037 26.1264 25.1113 26.3188 24.874 26.3188Z" fill="#7889B9"/>
<path opacity="0.4" d="M26.7666 8.38037H24.4658C24.9287 8.38037 25.3039 8.75562 25.3039 9.2185V29.7493H27.6048V9.2185C27.6048 8.75562 27.2295 8.38037 26.7666 8.38037Z" fill="white"/>
<path d="M20.2333 29.7493H5.24609V0.856619C5.24609 0.393744 5.62134 0.0184937 6.08422 0.0184937H19.3952C19.8581 0.0184937 20.2333 0.393744 20.2333 0.856619V29.7493Z" fill="white"/>
<path d="M19.395 0.0184937H17.0977C17.5605 0.0184937 17.9358 0.393744 17.9358 0.856619V29.7493H20.2332V0.856619C20.2332 0.393744 19.8579 0.0184937 19.395 0.0184937Z" fill="white"/>
<path opacity="0.4" d="M31.3323 29.0568H0.66775C0.298937 29.0568 0 29.3558 0 29.7246V31.3138C0 31.6826 0.298937 31.9815 0.66775 31.9815H31.3323C31.7011 31.9815 32 31.6826 32 31.3138V29.7246C32 29.3558 31.7011 29.0568 31.3323 29.0568Z" fill="white"/>
<path opacity="0.4" d="M14.6073 22.7939H10.8175C10.6627 22.7939 10.5371 22.9194 10.5371 23.0742V29.0568H14.8876V23.0742C14.8876 22.9194 14.7621 22.7939 14.6073 22.7939Z" fill="#7889B9"/>
<g opacity="0.4">
<path d="M13.5199 4.64125H11.9054C11.7506 4.64125 11.625 4.51575 11.625 4.36088V2.74632C11.625 2.5915 11.7505 2.46594 11.9054 2.46594H13.5199C13.6748 2.46594 13.8003 2.59144 13.8003 2.74632V4.36088C13.8002 4.51575 13.6748 4.64125 13.5199 4.64125Z" fill="#7889B9"/>
<path d="M17.6576 4.64125H16.0431C15.8883 4.64125 15.7627 4.51575 15.7627 4.36088V2.74632C15.7627 2.5915 15.8882 2.46594 16.0431 2.46594H17.6576C17.8124 2.46594 17.938 2.59144 17.938 2.74632V4.36088C17.938 4.51575 17.8125 4.64125 17.6576 4.64125Z" fill="#7889B9"/>
<path d="M13.5199 9.72316H11.9054C11.7506 9.72316 11.625 9.59766 11.625 9.44279V7.82823C11.625 7.67341 11.7505 7.54785 11.9054 7.54785H13.5199C13.6748 7.54785 13.8003 7.67335 13.8003 7.82823V9.44279C13.8002 9.59766 13.6748 9.72316 13.5199 9.72316Z" fill="#7889B9"/>
<path d="M17.6576 9.72316H16.0431C15.8883 9.72316 15.7627 9.59766 15.7627 9.44279V7.82823C15.7627 7.67341 15.8882 7.54785 16.0431 7.54785H17.6576C17.8124 7.54785 17.938 7.67335 17.938 7.82823V9.44279C17.938 9.59766 17.8125 9.72316 17.6576 9.72316Z" fill="#7889B9"/>
<path d="M13.5199 14.8052H11.9054C11.7506 14.8052 11.625 14.6797 11.625 14.5248V12.9103C11.625 12.7554 11.7505 12.6299 11.9054 12.6299H13.5199C13.6748 12.6299 13.8003 12.7554 13.8003 12.9103V14.5248C13.8002 14.6797 13.6748 14.8052 13.5199 14.8052Z" fill="#7889B9"/>
<path d="M17.6576 14.8052H16.0431C15.8883 14.8052 15.7627 14.6797 15.7627 14.5248V12.9103C15.7627 12.7554 15.8882 12.6299 16.0431 12.6299H17.6576C17.8124 12.6299 17.938 12.7554 17.938 12.9103V14.5248C17.938 14.6797 17.8125 14.8052 17.6576 14.8052Z" fill="#7889B9"/>
<path d="M13.5199 19.8871H11.9054C11.7506 19.8871 11.625 19.7616 11.625 19.6067V17.9922C11.625 17.8374 11.7505 17.7118 11.9054 17.7118H13.5199C13.6748 17.7118 13.8003 17.8373 13.8003 17.9922V19.6067C13.8002 19.7616 13.6748 19.8871 13.5199 19.8871Z" fill="#7889B9"/>
<path d="M17.6576 19.8871H16.0431C15.8883 19.8871 15.7627 19.7616 15.7627 19.6067V17.9922C15.7627 17.8374 15.8882 17.7118 16.0431 17.7118H17.6576C17.8124 17.7118 17.938 17.8373 17.938 17.9922V19.6067C17.938 19.7616 17.8125 19.8871 17.6576 19.8871Z" fill="#7889B9"/>
<path d="M9.38224 4.64125H7.76768C7.61287 4.64125 7.4873 4.51575 7.4873 4.36088V2.74632C7.4873 2.5915 7.6128 2.46594 7.76768 2.46594H9.38224C9.53706 2.46594 9.66262 2.59144 9.66262 2.74632V4.36088C9.66262 4.51575 9.53706 4.64125 9.38224 4.64125Z" fill="#7889B9"/>
<path d="M9.38224 9.72316H7.76768C7.61287 9.72316 7.4873 9.59766 7.4873 9.44279V7.82823C7.4873 7.67341 7.6128 7.54785 7.76768 7.54785H9.38224C9.53706 7.54785 9.66262 7.67335 9.66262 7.82823V9.44279C9.66262 9.59766 9.53706 9.72316 9.38224 9.72316Z" fill="#7889B9"/>
<path d="M9.38224 14.8052H7.76768C7.61287 14.8052 7.4873 14.6797 7.4873 14.5248V12.9103C7.4873 12.7554 7.6128 12.6299 7.76768 12.6299H9.38224C9.53706 12.6299 9.66262 12.7554 9.66262 12.9103V14.5248C9.66262 14.6797 9.53706 14.8052 9.38224 14.8052Z" fill="#7889B9"/>
<path d="M9.38224 19.8871H7.76768C7.61287 19.8871 7.4873 19.7616 7.4873 19.6067V17.9922C7.4873 17.8374 7.6128 17.7118 7.76768 17.7118H9.38224C9.53706 17.7118 9.66262 17.8373 9.66262 17.9922V19.6067C9.66262 19.7616 9.53706 19.8871 9.38224 19.8871Z" fill="#7889B9"/>
</g>
</g>
<defs>
<clipPath id="clip0_96_9806">
<rect width="32" height="32" fill="white"/>
</clipPath>
</defs>
</svg>
