<svg width="32" height="32" viewBox="0 0 32 32" fill="none" xmlns="http://www.w3.org/2000/svg">
<path fill-rule="evenodd" clip-rule="evenodd" d="M11.0983 9.84942C11.7353 9.70948 12.485 9.6665 13.334 9.6665H18.6673C19.5163 9.6665 20.266 9.70948 20.9031 9.84942C21.5513 9.99184 22.1451 10.248 22.6154 10.7184C23.0858 11.1888 23.342 11.7825 23.4844 12.4308C23.6244 13.0678 23.6673 13.8175 23.6673 14.6665V29.3332C23.6673 29.8855 23.2196 30.3332 22.6673 30.3332H9.33398C8.7817 30.3332 8.33398 29.8855 8.33398 29.3332V14.6665C8.33398 13.8175 8.37696 13.0678 8.5169 12.4308C8.65933 11.7825 8.91548 11.1888 9.38588 10.7184C9.85628 10.248 10.45 9.99184 11.0983 9.84942ZM10.4703 12.8599C10.3773 13.2832 10.334 13.8608 10.334 14.6665V28.3332H21.6673V14.6665C21.6673 13.8608 21.624 13.2832 21.5309 12.8599C21.4405 12.448 21.3172 12.2485 21.2012 12.1326C21.0853 12.0167 20.8859 11.8933 20.4739 11.8028C20.0507 11.7099 19.4731 11.6665 18.6673 11.6665H13.334C12.5283 11.6665 11.9507 11.7099 11.5274 11.8028C11.1155 11.8933 10.916 12.0167 10.8001 12.1326C10.6842 12.2485 10.5608 12.448 10.4703 12.8599Z" fill="#737791"/>
<path fill-rule="evenodd" clip-rule="evenodd" d="M13.667 16C13.667 15.4477 14.1147 15 14.667 15H17.3337C17.8859 15 18.3337 15.4477 18.3337 16C18.3337 16.5523 17.8859 17 17.3337 17H14.667C14.1147 17 13.667 16.5523 13.667 16ZM13.667 20C13.667 19.4477 14.1147 19 14.667 19H17.3337C17.8859 19 18.3337 19.4477 18.3337 20C18.3337 20.5523 17.8859 21 17.3337 21H14.667C14.1147 21 13.667 20.5523 13.667 20ZM13.667 24C13.667 23.4477 14.1147 23 14.667 23H17.3337C17.8859 23 18.3337 23.4477 18.3337 24C18.3337 24.5523 17.8859 25 17.3337 25H14.667C14.1147 25 13.667 24.5523 13.667 24Z" fill="#737791"/>
<path fill-rule="evenodd" clip-rule="evenodd" d="M18.5324 1.726C18.9088 1.81213 19.3113 1.98859 19.7184 2.1964L25.5513 5.17464C26.2309 5.52164 26.8084 5.81643 27.2608 6.11044C27.7433 6.42392 28.1539 6.77919 28.4579 7.28165C28.7612 7.78287 28.8875 8.31295 28.9457 8.88864C29.0007 9.431 29.0007 10.088 29.0007 10.8655V29.3333C29.0007 29.8855 28.5529 30.3333 28.0007 30.3333C27.4484 30.3333 27.0007 29.8855 27.0007 29.3333V10.9141C27.0007 10.0751 26.9995 9.51987 26.956 9.09011C26.9147 8.68241 26.8419 8.47404 26.7469 8.3172C26.6527 8.16161 26.5055 8.00475 26.1712 7.78751C25.8167 7.55713 25.3333 7.30899 24.5977 6.93337L18.8089 3.97765C18.6227 3.88257 18.4728 3.81387 18.3535 3.76535C18.3413 3.90244 18.334 4.07917 18.334 4.30485V10.2712C18.334 10.8235 17.8863 11.2712 17.334 11.2712C16.7817 11.2712 16.334 10.8235 16.334 10.2712V4.30485C16.334 3.8524 16.3573 3.41795 16.4441 3.04641C16.5287 2.68439 16.7132 2.21063 17.1752 1.91163C17.6457 1.60711 18.1592 1.64064 18.5324 1.726ZM18.0355 3.66629C18.0325 3.6662 18.0309 3.66597 18.0309 3.66597L18.0355 3.66629Z" fill="#737791"/>
<path fill-rule="evenodd" clip-rule="evenodd" d="M5.01109 17.0111C5.00448 17.088 5 17.1923 5 17.3333V29.3333C5 29.8856 4.55228 30.3333 4 30.3333C3.44772 30.3333 3 29.8856 3 29.3333V17.3333C3 17.0359 3.0142 16.7287 3.07649 16.4451C3.14128 16.1501 3.27093 15.8208 3.54589 15.5459C3.82085 15.2709 4.15015 15.1412 4.44507 15.0764C4.72864 15.0141 5.03592 15 5.33333 15H9.33333C9.88561 15 10.3333 15.4477 10.3333 16C10.3333 16.5523 9.88561 17 9.33333 17H5.33333C5.19237 17 5.08801 17.0044 5.01109 17.0111Z" fill="#737791"/>
<path fill-rule="evenodd" clip-rule="evenodd" d="M1.66699 29.3333C1.66699 28.781 2.11471 28.3333 2.66699 28.3333H29.3337C29.8859 28.3333 30.3337 28.781 30.3337 29.3333C30.3337 29.8855 29.8859 30.3333 29.3337 30.3333H2.66699C2.11471 30.3333 1.66699 29.8855 1.66699 29.3333Z" fill="#737791"/>
</svg>
