<svg width="25" height="26" viewBox="0 0 25 26" fill="none" xmlns="http://www.w3.org/2000/svg">
<path d="M6.37428 2.62737C5.24218 3.78044 5.24218 5.6463 6.39524 6.79937L8.91102 9.31514C11.28 11.6842 11.28 15.5417 8.91102 17.9107L4.29876 13.2985C3.11425 12.1139 2.51675 10.5521 2.51675 9.00067C2.51675 7.44928 3.11425 5.8874 4.29876 4.70289L6.34283 2.65882C6.35331 2.64833 6.36379 2.63785 6.37428 2.62737Z" fill="#1E3A8A" stroke="white" stroke-width="2" stroke-miterlimit="10"/>
<path d="M8.38697 8.78992L6.39531 6.79826C5.24224 5.6452 5.23176 3.78981 6.37434 2.62627C7.50644 1.51513 9.30942 1.5361 10.431 2.65771C10.9971 3.22376 11.2801 3.96801 11.2801 4.70178C11.2801 5.43555 10.9971 6.1798 10.431 6.74585L9.95933 7.21756" fill="#1E3A8A"/>
<path d="M8.38697 8.78992L6.39531 6.79826C5.24224 5.6452 5.23176 3.78981 6.37434 2.62627C7.50644 1.51513 9.30942 1.5361 10.431 2.65771C10.9971 3.22376 11.2801 3.96801 11.2801 4.70178C11.2801 5.43555 10.9971 6.1798 10.431 6.74585L9.95933 7.21756" stroke="white" stroke-width="2" stroke-miterlimit="10"/>
<path d="M18.2714 23.2246C19.4035 22.0715 19.4035 20.2056 18.2504 19.0526L15.7346 16.5368C13.3656 14.1678 13.3656 10.3102 15.7346 7.94121L20.3469 12.5535C21.5314 13.738 22.1289 15.2999 22.1289 16.8513C22.1289 18.4027 21.5314 19.9645 20.3469 21.149L18.3028 23.1931C18.2819 23.2141 18.2714 23.2246 18.2714 23.2246Z" fill="#1E3A8A" stroke="white" stroke-width="2" stroke-miterlimit="10"/>
<path d="M16.2483 17.0713L18.24 19.063C19.393 20.2161 19.4035 22.0715 18.2609 23.235C17.1288 24.3461 15.3258 24.3252 14.2042 23.2036C13.6382 22.6375 13.3552 21.8933 13.3552 21.1595C13.3552 20.4257 13.6382 19.6815 14.2042 19.1154L14.6864 18.6332" fill="#1E3A8A"/>
<path d="M16.2483 17.0713L18.24 19.063C19.393 20.2161 19.4035 22.0715 18.2609 23.235C17.1288 24.3461 15.3258 24.3252 14.2042 23.2036C13.6382 22.6375 13.3552 21.8933 13.3552 21.1595C13.3552 20.4257 13.6382 19.6815 14.2042 19.1154L14.6864 18.6332" stroke="white" stroke-width="2" stroke-miterlimit="10"/>
</svg>
