<svg width="32" height="32" viewBox="0 0 32 32" fill="none" xmlns="http://www.w3.org/2000/svg">
<g clip-path="url(#clip0_96_9834)">
<path d="M27.6628 16.8096H15.1934V4.3401C15.1934 3.83621 14.7902 3.43311 14.2864 3.43311C6.41234 3.43311 0.00292969 9.84251 0.00292969 17.7165C0.00292969 25.5906 6.41234 32 14.2864 32C22.1604 32 28.5698 25.5906 28.5698 17.7165C28.5698 17.2194 28.16 16.8096 27.6628 16.8096ZM14.2864 30.186C7.41338 30.186 1.81691 24.5895 1.81691 17.7165C1.81691 11.1459 6.92294 5.74425 13.3794 5.28068V17.7165C13.3794 18.2204 13.7825 18.6235 14.2864 18.6235H26.7222C26.2587 25.08 20.857 30.186 14.2864 30.186Z" fill="#737791"/>
<path d="M31.9961 14.2364C31.9827 10.7697 30.7129 7.43061 28.4219 4.83057C25.7076 1.76024 21.8109 0 17.7127 0C17.2088 0 16.8057 0.403107 16.8057 0.906991V14.2834C16.8057 14.7873 17.2088 15.1904 17.7127 15.1904H31.0891C31.593 15.1904 31.9961 14.7873 31.9961 14.2834C31.9961 14.27 31.9961 14.2566 31.9961 14.2364ZM18.6196 13.3832V1.85429C21.8579 2.08944 24.8947 3.58765 27.058 6.03989C28.872 8.08902 29.947 10.6689 30.1485 13.3832H18.6196Z" fill="#737791"/>
</g>
<defs>
<clipPath id="clip0_96_9834">
<rect width="32" height="32" fill="white"/>
</clipPath>
</defs>
</svg>
