<svg width="32" height="32" viewBox="0 0 32 32" fill="none" xmlns="http://www.w3.org/2000/svg">
<path d="M11.57 23C11.3174 22.9991 11.0744 22.9026 10.89 22.73C9.97681 21.863 9.24961 20.8192 8.75268 19.6622C8.25575 18.5052 7.99949 17.2592 7.99949 16C7.99949 14.7408 8.25575 13.4947 8.75268 12.3377C9.24961 11.1807 9.97681 10.137 10.89 9.26996C11.0868 9.11039 11.3368 9.03146 11.5895 9.04912C11.8423 9.06678 12.0789 9.1797 12.2516 9.36508C12.4242 9.55047 12.5201 9.79448 12.5198 10.0478C12.5195 10.3012 12.4231 10.545 12.25 10.73C11.5392 11.4113 10.9735 12.2295 10.5871 13.1351C10.2007 14.0408 10.0014 15.0153 10.0014 16C10.0014 16.9846 10.2007 17.9591 10.5871 18.8648C10.9735 19.7705 11.5392 20.5886 12.25 21.27C12.3962 21.4068 12.498 21.5845 12.542 21.7799C12.5861 21.9753 12.5705 22.1794 12.4972 22.3658C12.424 22.5522 12.2964 22.7123 12.1311 22.8254C11.9658 22.9384 11.7703 22.9993 11.57 23ZM7.57 25.68C7.75625 25.4926 7.86079 25.2391 7.86079 24.975C7.86079 24.7108 7.75625 24.4573 7.57 24.27C6.45124 23.2026 5.56067 21.9194 4.9522 20.4979C4.34373 19.0764 4.02999 17.5462 4.02999 16C4.02999 14.4537 4.34373 12.9235 4.9522 11.5021C5.56067 10.0806 6.45124 8.79731 7.57 7.72996C7.76361 7.54298 7.87501 7.28675 7.8797 7.01764C7.88439 6.74852 7.78198 6.48857 7.595 6.29496C7.40802 6.10135 7.15179 5.98995 6.88268 5.98526C6.61356 5.98057 6.35361 6.08298 6.16 6.26996C4.84273 7.52516 3.79404 9.03477 3.0775 10.7073C2.36097 12.3798 1.9915 14.1804 1.9915 16C1.9915 17.8195 2.36097 19.6201 3.0775 21.2926C3.79404 22.9651 4.84273 24.4748 6.16 25.73C6.25623 25.8205 6.36943 25.8911 6.49309 25.9376C6.61674 25.9841 6.74839 26.0057 6.88043 26.001C7.01246 25.9964 7.14227 25.9656 7.26234 25.9105C7.38242 25.8554 7.49038 25.777 7.58 25.68H7.57ZM21.1 22.73C22.0132 21.863 22.7404 20.8192 23.2373 19.6622C23.7343 18.5052 23.9905 17.2592 23.9905 16C23.9905 14.7408 23.7343 13.4947 23.2373 12.3377C22.7404 11.1807 22.0132 10.137 21.1 9.26996C21.0041 9.18 20.8915 9.10981 20.7685 9.06339C20.6455 9.01697 20.5146 8.99523 20.3832 8.9994C20.2518 9.00358 20.1225 9.0336 20.0027 9.08774C19.8829 9.14189 19.775 9.21909 19.685 9.31496C19.595 9.41082 19.5249 9.52347 19.4784 9.64646C19.432 9.76945 19.4103 9.90038 19.4144 10.0318C19.4186 10.1632 19.4486 10.2925 19.5028 10.4123C19.5569 10.532 19.6341 10.64 19.73 10.73C20.4447 11.4091 21.0138 12.2265 21.4026 13.1325C21.7915 14.0385 21.992 15.0141 21.992 16C21.992 16.9859 21.7915 17.9615 21.4026 18.8674C21.0138 19.7734 20.4447 20.5908 19.73 21.27C19.537 21.4506 19.4233 21.7004 19.414 21.9646C19.4046 22.2289 19.5002 22.4861 19.68 22.68C19.7744 22.7817 19.8889 22.8627 20.0163 22.9178C20.1437 22.9729 20.2812 23.0009 20.42 23C20.6726 22.9991 20.9156 22.9026 21.1 22.73ZM25.82 25.73C27.1411 24.477 28.1933 22.9681 28.9123 21.2953C29.6312 19.6225 30.002 17.8208 30.002 16C30.002 14.1792 29.6312 12.3774 28.9123 10.7046C28.1933 9.0318 27.1411 7.52292 25.82 6.26996C25.6232 6.11039 25.3732 6.03146 25.1205 6.04912C24.8677 6.06678 24.6311 6.1797 24.4584 6.36508C24.2858 6.55047 24.1899 6.79448 24.1902 7.04783C24.1905 7.30118 24.2869 7.54497 24.46 7.72996C25.5788 8.79731 26.4693 10.0806 27.0778 11.5021C27.6863 12.9235 28 14.4537 28 16C28 17.5462 27.6863 19.0764 27.0778 20.4979C26.4693 21.9194 25.5788 23.2026 24.46 24.27C24.267 24.4506 24.1533 24.7004 24.144 24.9646C24.1346 25.2289 24.2302 25.4861 24.41 25.68C24.5032 25.7805 24.6162 25.8608 24.7417 25.9158C24.8673 25.9709 25.0029 25.9995 25.14 26C25.3926 25.9991 25.6356 25.9026 25.82 25.73ZM18 16C18 15.6044 17.8827 15.2177 17.6629 14.8888C17.4432 14.5599 17.1308 14.3036 16.7654 14.1522C16.3999 14.0008 15.9978 13.9612 15.6098 14.0384C15.2219 14.1156 14.8655 14.306 14.5858 14.5857C14.3061 14.8655 14.1156 15.2218 14.0384 15.6098C13.9613 15.9977 14.0009 16.3999 14.1522 16.7653C14.3036 17.1308 14.56 17.4431 14.8889 17.6629C15.2178 17.8827 15.6044 18 16 18C16.5304 18 17.0391 17.7892 17.4142 17.4142C17.7893 17.0391 18 16.5304 18 16Z" fill="#737791"/>
</svg>
