<svg width="32" height="32" viewBox="0 0 32 32" fill="none" xmlns="http://www.w3.org/2000/svg">
<path d="M27.2941 3.76471H20.7059V2.82353C20.7059 2.07468 20.4084 1.35651 19.8789 0.826992C19.3494 0.297478 18.6312 0 17.8824 0H14.1176C13.3688 0 12.6506 0.297478 12.1211 0.826992C11.5916 1.35651 11.2941 2.07468 11.2941 2.82353V3.76471H4.70588C3.4578 3.76471 2.26085 4.2605 1.37832 5.14303C0.495797 6.02555 0 7.22251 0 8.47059V23.5294C0 24.7775 0.495797 25.9744 1.37832 26.857C2.26085 27.7395 3.4578 28.2353 4.70588 28.2353H12.2353C12.4849 28.2353 12.7243 28.1361 12.9008 27.9596C13.0773 27.7831 13.1765 27.5437 13.1765 27.2941C13.1765 27.0445 13.0773 26.8051 12.9008 26.6286C12.7243 26.4521 12.4849 26.3529 12.2353 26.3529H4.70588C3.95704 26.3529 3.23886 26.0555 2.70935 25.5259C2.17983 24.9964 1.88235 24.2783 1.88235 23.5294V19.7421C2.6925 20.3641 3.68453 20.7027 4.70588 20.7059H7.52941V21.6471C7.52941 21.8967 7.62857 22.1361 7.80508 22.3126C7.98158 22.4891 8.22097 22.5882 8.47059 22.5882C8.7202 22.5882 8.9596 22.4891 9.1361 22.3126C9.31261 22.1361 9.41177 21.8967 9.41177 21.6471V20.7059H13.1765C13.4261 20.7059 13.6655 20.6067 13.842 20.4302C14.0185 20.2537 14.1176 20.0143 14.1176 19.7647C14.1176 19.5151 14.0185 19.2757 13.842 19.0992C13.6655 18.9227 13.4261 18.8235 13.1765 18.8235H9.41177V17.8824C9.41177 17.6327 9.31261 17.3933 9.1361 17.2168C8.9596 17.0403 8.7202 16.9412 8.47059 16.9412C8.22097 16.9412 7.98158 17.0403 7.80508 17.2168C7.62857 17.3933 7.52941 17.6327 7.52941 17.8824V18.8235H4.70588C3.95704 18.8235 3.23886 18.5261 2.70935 17.9965C2.17983 17.467 1.88235 16.7488 1.88235 16V8.47059C1.88235 7.72174 2.17983 7.00357 2.70935 6.47405C3.23886 5.94454 3.95704 5.64706 4.70588 5.64706H27.2941C28.043 5.64706 28.7611 5.94454 29.2907 6.47405C29.8202 7.00357 30.1176 7.72174 30.1176 8.47059V16C30.1176 16.2496 30.2168 16.489 30.3933 16.6655C30.5698 16.842 30.8092 16.9412 31.0588 16.9412C31.3084 16.9412 31.5478 16.842 31.7243 16.6655C31.9008 16.489 32 16.2496 32 16V8.47059C32 7.22251 31.5042 6.02555 30.6217 5.14303C29.7392 4.2605 28.5422 3.76471 27.2941 3.76471ZM18.8235 3.76471H13.1765V2.82353C13.1765 2.57391 13.2756 2.33452 13.4521 2.15802C13.6286 1.98151 13.868 1.88235 14.1176 1.88235H17.8824C18.132 1.88235 18.3714 1.98151 18.5479 2.15802C18.7244 2.33452 18.8235 2.57391 18.8235 2.82353V3.76471ZM23.5294 9.41177H8.47059C8.22097 9.41177 7.98158 9.31261 7.80508 9.1361C7.62857 8.9596 7.52941 8.7202 7.52941 8.47059C7.52941 8.22097 7.62857 7.98158 7.80508 7.80508C7.98158 7.62857 8.22097 7.52941 8.47059 7.52941H23.5294C23.779 7.52941 24.0184 7.62857 24.1949 7.80508C24.3714 7.98158 24.4706 8.22097 24.4706 8.47059C24.4706 8.7202 24.3714 8.9596 24.1949 9.1361C24.0184 9.31261 23.779 9.41177 23.5294 9.41177ZM26.6315 15.6649L27.456 14.0179C27.5994 13.7308 27.6671 13.4119 27.6526 13.0913C27.6381 12.7707 27.5418 12.4592 27.373 12.1863C27.2042 11.9134 26.9685 11.6882 26.6881 11.532C26.4078 11.3759 26.0922 11.294 25.7713 11.2941H21.2875C20.9666 11.294 20.651 11.3759 20.3707 11.532C20.0903 11.6882 19.8546 11.9134 19.6858 12.1863C19.517 12.4592 19.4207 12.7707 19.4062 13.0913C19.3917 13.4119 19.4594 13.7308 19.6028 14.0179L20.4273 15.6649C18.8473 16.2868 17.4907 17.3691 16.5334 18.7714C15.5761 20.1738 15.0624 21.8315 15.0588 23.5294V27.2941C15.0588 28.5422 15.5546 29.7392 16.4371 30.6217C17.3197 31.5042 18.5166 32 19.7647 32H27.2941C28.5422 32 29.7392 31.5042 30.6217 30.6217C31.5042 29.7392 32 28.5422 32 27.2941V23.5294C31.9965 21.8315 31.4827 20.1738 30.5254 18.7714C29.5682 17.3691 28.2115 16.2868 26.6315 15.6649ZM25.7713 13.1765L24.768 15.1831C24.3588 15.1111 23.9448 15.0696 23.5294 15.0588C23.114 15.0696 22.7001 15.1111 22.2908 15.1831L21.2875 13.1765H25.7713ZM30.1176 27.2941C30.1176 28.043 29.8202 28.7611 29.2907 29.2907C28.7611 29.8202 28.043 30.1176 27.2941 30.1176H19.7647C19.0159 30.1176 18.2977 29.8202 17.7682 29.2907C17.2387 28.7611 16.9412 28.043 16.9412 27.2941V23.5294C16.9412 21.7821 17.6353 20.1064 18.8708 18.8708C20.1064 17.6353 21.7821 16.9412 23.5294 16.9412C25.2767 16.9412 26.9525 17.6353 28.188 18.8708C29.4235 20.1064 30.1176 21.7821 30.1176 23.5294V27.2941ZM26.3529 24.9412C26.3486 25.4772 26.1587 25.9952 25.8155 26.407C25.4723 26.8189 24.9971 27.0991 24.4706 27.2V27.7647C24.4706 28.0143 24.3714 28.2537 24.1949 28.4302C24.0184 28.6067 23.779 28.7059 23.5294 28.7059C23.2798 28.7059 23.0404 28.6067 22.8639 28.4302C22.6874 28.2537 22.5882 28.0143 22.5882 27.7647V27.2941H22.1176C21.868 27.2941 21.6286 27.195 21.4521 27.0185C21.2756 26.8419 21.1765 26.6026 21.1765 26.3529C21.1765 26.1033 21.2756 25.8639 21.4521 25.6874C21.6286 25.5109 21.868 25.4118 22.1176 25.4118H24C24.1248 25.4118 24.2445 25.3622 24.3328 25.2739C24.421 25.1857 24.4706 25.066 24.4706 24.9412C24.4706 24.8164 24.421 24.6967 24.3328 24.6084C24.2445 24.5202 24.1248 24.4706 24 24.4706H23.0588C22.4351 24.4696 21.8372 24.2214 21.3961 23.7803C20.9551 23.3393 20.7069 22.7414 20.7059 22.1176C20.7102 21.5816 20.9001 21.0636 21.2433 20.6518C21.5865 20.24 22.0618 19.9598 22.5882 19.8588V19.2941C22.5882 19.0445 22.6874 18.8051 22.8639 18.6286C23.0404 18.4521 23.2798 18.3529 23.5294 18.3529C23.779 18.3529 24.0184 18.4521 24.1949 18.6286C24.3714 18.8051 24.4706 19.0445 24.4706 19.2941V19.7647H24.9412C25.1908 19.7647 25.4302 19.8639 25.6067 20.0404C25.7832 20.2169 25.8824 20.4563 25.8824 20.7059C25.8824 20.9555 25.7832 21.1949 25.6067 21.3714C25.4302 21.5479 25.1908 21.6471 24.9412 21.6471H23.0588C22.934 21.6471 22.8143 21.6966 22.7261 21.7849C22.6378 21.8731 22.5882 21.9928 22.5882 22.1176C22.5882 22.2425 22.6378 22.3622 22.7261 22.4504C22.8143 22.5387 22.934 22.5882 23.0588 22.5882H24C24.6237 22.5892 25.2216 22.8375 25.6627 23.2785C26.1037 23.7195 26.3519 24.3174 26.3529 24.9412Z" fill="white"/>
</svg>
