<svg width="32" height="32" viewBox="0 0 32 32" fill="none" xmlns="http://www.w3.org/2000/svg">
<path fill-rule="evenodd" clip-rule="evenodd" d="M26 30H6C4.895 30 4 29.105 4 28V19C4 17.895 4.895 17 6 17H11.333V16C11.333 14.895 12.229 14 13.333 14H18.667V12C18.667 10.895 19.562 10 20.667 10H26C27.105 10 28 10.895 28 12V28C28 29.105 27.105 30 26 30ZM11.333 19H6V28H11.333V19ZM18.667 16H13.333V28H18.667V16ZM20.667 28H26V12H20.667V15V28ZM18.986 5.62201C15.223 11.17 8.248 12.969 8.248 12.969C7.713 13.106 7.168 12.783 7.031 12.248C6.894 11.713 7.217 11.168 7.752 11.031C7.752 11.031 14.394 9.34801 17.641 4.01701L15.674 4.00001C15.122 3.99501 14.678 3.54301 14.683 2.99101C14.688 2.43901 15.14 1.99501 15.692 2.00001L19.972 2.03801C20.518 2.04201 20.959 2.48301 20.963 3.02901L21 7.21001C21.005 7.76201 20.561 8.21401 20.009 8.21901C19.457 8.22401 19.005 7.78001 19 7.22801L18.986 5.62201Z" fill="#737791"/>
</svg>
