<svg width="32" height="32" viewBox="0 0 32 32" fill="none" xmlns="http://www.w3.org/2000/svg">
<path d="M16 10.6665C17.4145 10.6665 18.771 11.2284 19.7712 12.2286C20.7714 13.2288 21.3333 14.5854 21.3333 15.9998C21.3333 17.4143 20.7714 18.7709 19.7712 19.7711C18.771 20.7713 17.4145 21.3332 16 21.3332C14.5855 21.3332 13.229 20.7713 12.2288 19.7711C11.2286 18.7709 10.6667 17.4143 10.6667 15.9998C10.6667 14.5854 11.2286 13.2288 12.2288 12.2286C13.229 11.2284 14.5855 10.6665 16 10.6665ZM16 13.3332C15.2928 13.3332 14.6145 13.6141 14.1144 14.1142C13.6143 14.6143 13.3333 15.2926 13.3333 15.9998C13.3333 16.7071 13.6143 17.3854 14.1144 17.8855C14.6145 18.3856 15.2928 18.6665 16 18.6665C16.7072 18.6665 17.3855 18.3856 17.8856 17.8855C18.3857 17.3854 18.6667 16.7071 18.6667 15.9998C18.6667 15.2926 18.3857 14.6143 17.8856 14.1142C17.3855 13.6141 16.7072 13.3332 16 13.3332ZM13.3333 29.3332C13 29.3332 12.72 29.0932 12.6667 28.7732L12.1733 25.2398C11.3333 24.9065 10.6133 24.4532 9.92 23.9198L6.6 25.2665C6.30666 25.3732 5.94666 25.2665 5.78666 24.9732L3.12 20.3598C3.03839 20.2225 3.00962 20.0601 3.03907 19.903C3.06852 19.7459 3.15417 19.605 3.28 19.5065L6.09333 17.2932L6 15.9998L6.09333 14.6665L3.28 12.4932C3.15417 12.3947 3.06852 12.2537 3.03907 12.0967C3.00962 11.9396 3.03839 11.7772 3.12 11.6398L5.78666 7.0265C5.94666 6.73317 6.30666 6.61317 6.6 6.73317L9.92 8.0665C10.6133 7.5465 11.3333 7.09317 12.1733 6.75984L12.6667 3.2265C12.72 2.9065 13 2.6665 13.3333 2.6665H18.6667C19 2.6665 19.28 2.9065 19.3333 3.2265L19.8267 6.75984C20.6667 7.09317 21.3867 7.5465 22.08 8.0665L25.4 6.73317C25.6933 6.61317 26.0533 6.73317 26.2133 7.0265L28.88 11.6398C29.0533 11.9332 28.9733 12.2932 28.72 12.4932L25.9067 14.6665L26 15.9998L25.9067 17.3332L28.72 19.5065C28.9733 19.7065 29.0533 20.0665 28.88 20.3598L26.2133 24.9732C26.0533 25.2665 25.6933 25.3865 25.4 25.2665L22.08 23.9332C21.3867 24.4532 20.6667 24.9065 19.8267 25.2398L19.3333 28.7732C19.28 29.0932 19 29.3332 18.6667 29.3332H13.3333ZM15 5.33317L14.5067 8.81317C12.9067 9.1465 11.4933 9.99984 10.4667 11.1865L7.25333 9.79984L6.25333 11.5332L9.06666 13.5998C8.53333 15.1554 8.53333 16.8443 9.06666 18.3998L6.24 20.4798L7.24 22.2132L10.48 20.8265C11.5067 21.9998 12.9067 22.8532 14.4933 23.1732L14.9867 26.6665H17.0133L17.5067 23.1865C19.0933 22.8532 20.4933 21.9998 21.52 20.8265L24.76 22.2132L25.76 20.4798L22.9333 18.4132C23.4667 16.8532 23.4667 15.1598 22.9333 13.5998L25.7467 11.5332L24.7467 9.79984L21.5333 11.1865C20.4856 9.9736 19.0644 9.1434 17.4933 8.8265L17 5.33317H15Z" fill="white"/>
</svg>
