<svg width="32" height="32" viewBox="0 0 32 32" fill="none" xmlns="http://www.w3.org/2000/svg">
<path d="M16 10.6666C17.4145 10.6666 18.771 11.2285 19.7712 12.2287C20.7714 13.2289 21.3333 14.5855 21.3333 16C21.3333 17.4144 20.7714 18.771 19.7712 19.7712C18.771 20.7714 17.4145 21.3333 16 21.3333C14.5855 21.3333 13.229 20.7714 12.2288 19.7712C11.2286 18.771 10.6667 17.4144 10.6667 16C10.6667 14.5855 11.2286 13.2289 12.2288 12.2287C13.229 11.2285 14.5855 10.6666 16 10.6666ZM16 13.3333C15.2928 13.3333 14.6145 13.6142 14.1144 14.1143C13.6143 14.6144 13.3333 15.2927 13.3333 16C13.3333 16.7072 13.6143 17.3855 14.1144 17.8856C14.6145 18.3857 15.2928 18.6666 16 18.6666C16.7072 18.6666 17.3855 18.3857 17.8856 17.8856C18.3857 17.3855 18.6667 16.7072 18.6667 16C18.6667 15.2927 18.3857 14.6144 17.8856 14.1143C17.3855 13.6142 16.7072 13.3333 16 13.3333ZM13.3333 29.3333C13 29.3333 12.72 29.0933 12.6667 28.7733L12.1733 25.24C11.3333 24.9066 10.6133 24.4533 9.92 23.92L6.6 25.2666C6.30666 25.3733 5.94666 25.2666 5.78666 24.9733L3.12 20.36C3.03839 20.2226 3.00962 20.0602 3.03907 19.9031C3.06852 19.7461 3.15417 19.6051 3.28 19.5066L6.09333 17.2933L6 16L6.09333 14.6666L3.28 12.4933C3.15417 12.3948 3.06852 12.2539 3.03907 12.0968C3.00962 11.9397 3.03839 11.7773 3.12 11.64L5.78666 7.02663C5.94666 6.73329 6.30666 6.61329 6.6 6.73329L9.92 8.06663C10.6133 7.54663 11.3333 7.09329 12.1733 6.75996L12.6667 3.22663C12.72 2.90663 13 2.66663 13.3333 2.66663H18.6667C19 2.66663 19.28 2.90663 19.3333 3.22663L19.8267 6.75996C20.6667 7.09329 21.3867 7.54663 22.08 8.06663L25.4 6.73329C25.6933 6.61329 26.0533 6.73329 26.2133 7.02663L28.88 11.64C29.0533 11.9333 28.9733 12.2933 28.72 12.4933L25.9067 14.6666L26 16L25.9067 17.3333L28.72 19.5066C28.9733 19.7066 29.0533 20.0666 28.88 20.36L26.2133 24.9733C26.0533 25.2666 25.6933 25.3866 25.4 25.2666L22.08 23.9333C21.3867 24.4533 20.6667 24.9066 19.8267 25.24L19.3333 28.7733C19.28 29.0933 19 29.3333 18.6667 29.3333H13.3333ZM15 5.33329L14.5067 8.81329C12.9067 9.14663 11.4933 9.99996 10.4667 11.1866L7.25333 9.79996L6.25333 11.5333L9.06666 13.6C8.53333 15.1555 8.53333 16.8444 9.06666 18.4L6.24 20.48L7.24 22.2133L10.48 20.8266C11.5067 22 12.9067 22.8533 14.4933 23.1733L14.9867 26.6666H17.0133L17.5067 23.1866C19.0933 22.8533 20.4933 22 21.52 20.8266L24.76 22.2133L25.76 20.48L22.9333 18.4133C23.4667 16.8533 23.4667 15.16 22.9333 13.6L25.7467 11.5333L24.7467 9.79996L21.5333 11.1866C20.4856 9.97372 19.0644 9.14353 17.4933 8.82663L17 5.33329H15Z" fill="#737791"/>
</svg>
