<svg width="24" height="24" viewBox="0 0 24 24" fill="none" xmlns="http://www.w3.org/2000/svg">
<path d="M8.67753 17.25C8.48805 17.2494 8.30585 17.177 8.16753 17.0475C7.48263 16.3973 6.93723 15.6145 6.56454 14.7467C6.19184 13.879 5.99964 12.9444 5.99964 12C5.99964 11.0556 6.19184 10.1211 6.56454 9.25335C6.93723 8.3856 7.48263 7.60277 8.16753 6.95253C8.31512 6.83285 8.50263 6.77366 8.69218 6.7869C8.88173 6.80014 9.05918 6.88484 9.1887 7.02387C9.31821 7.16291 9.39012 7.34592 9.3899 7.53593C9.38969 7.72594 9.31736 7.90879 9.18753 8.04753C8.65439 8.55856 8.23015 9.17216 7.94033 9.85141C7.65052 10.5307 7.50111 11.2615 7.50111 12C7.50111 12.7385 7.65052 13.4694 7.94033 14.1487C8.23015 14.8279 8.65439 15.4415 9.18753 15.9525C9.29719 16.0552 9.37349 16.1884 9.40656 16.335C9.43962 16.4815 9.42792 16.6346 9.37296 16.7744C9.31801 16.9142 9.22234 17.0343 9.09834 17.1191C8.97435 17.2039 8.82775 17.2495 8.67753 17.25ZM5.67753 19.26C5.81722 19.1195 5.89562 18.9294 5.89562 18.7313C5.89562 18.5331 5.81722 18.3431 5.67753 18.2025C4.83846 17.402 4.17053 16.4396 3.71418 15.3735C3.25782 14.3073 3.02252 13.1597 3.02252 12C3.02252 10.8403 3.25782 9.69272 3.71418 8.6266C4.17053 7.56049 4.83846 6.59805 5.67753 5.79753C5.82273 5.6573 5.90629 5.46513 5.9098 5.26329C5.91332 5.06145 5.83651 4.86649 5.69628 4.72128C5.55604 4.57607 5.36387 4.49252 5.16204 4.48901C4.9602 4.48549 4.76523 4.5623 4.62003 4.70253C3.63207 5.64393 2.84556 6.77614 2.30815 8.03053C1.77075 9.28492 1.49365 10.6354 1.49365 12C1.49365 13.3647 1.77075 14.7151 2.30815 15.9695C2.84556 17.2239 3.63207 18.3561 4.62003 19.2975C4.6922 19.3654 4.7771 19.4184 4.86984 19.4532C4.96258 19.4881 5.06132 19.5043 5.16035 19.5008C5.25937 19.4973 5.35673 19.4743 5.44678 19.4329C5.53684 19.3916 5.61781 19.3328 5.68503 19.26H5.67753ZM15.825 17.0475C16.5099 16.3973 17.0553 15.6145 17.428 14.7467C17.8007 13.879 17.9929 12.9444 17.9929 12C17.9929 11.0556 17.8007 10.1211 17.428 9.25335C17.0553 8.3856 16.5099 7.60277 15.825 6.95253C15.7531 6.88506 15.6686 6.83242 15.5764 6.7976C15.4842 6.76279 15.386 6.74648 15.2874 6.74961C15.1889 6.75275 15.0919 6.77526 15.0021 6.81587C14.9122 6.85648 14.8312 6.91438 14.7638 6.98628C14.6963 7.05818 14.6437 7.14266 14.6089 7.23491C14.574 7.32715 14.5577 7.42535 14.5609 7.5239C14.564 7.62244 14.5865 7.71941 14.6271 7.80925C14.6677 7.8991 14.7256 7.98006 14.7975 8.04753C15.3335 8.55689 15.7603 9.16995 16.052 9.84943C16.3436 10.5289 16.494 11.2606 16.494 12C16.494 12.7395 16.3436 13.4712 16.052 14.1506C15.7603 14.8301 15.3335 15.4432 14.7975 15.9525C14.6527 16.088 14.5675 16.2754 14.5605 16.4735C14.5535 16.6717 14.6252 16.8646 14.76 17.01C14.8308 17.0864 14.9167 17.1471 15.0123 17.1884C15.1078 17.2298 15.2109 17.2507 15.315 17.25C15.5045 17.2494 15.6867 17.177 15.825 17.0475ZM19.365 19.2975C20.3559 18.3578 21.145 17.2262 21.6842 15.9715C22.2235 14.7169 22.5016 13.3656 22.5016 12C22.5016 10.6344 22.2235 9.28314 21.6842 8.02853C21.145 6.77391 20.3559 5.64225 19.365 4.70253C19.2174 4.58285 19.0299 4.52366 18.8404 4.5369C18.6508 4.55014 18.4734 4.63484 18.3439 4.77387C18.2143 4.91291 18.1424 5.09592 18.1427 5.28593C18.1429 5.47594 18.2152 5.65879 18.345 5.79753C19.1841 6.59805 19.852 7.56049 20.3084 8.6266C20.7647 9.69272 21 10.8403 21 12C21 13.1597 20.7647 14.3073 20.3084 15.3735C19.852 16.4396 19.1841 17.402 18.345 18.2025C18.2002 18.338 18.115 18.5254 18.108 18.7235C18.101 18.9217 18.1727 19.1146 18.3075 19.26C18.3775 19.3354 18.4621 19.3956 18.5563 19.4369C18.6505 19.4782 18.7522 19.4997 18.855 19.5C19.0445 19.4994 19.2267 19.427 19.365 19.2975ZM13.5 12C13.5 11.7034 13.4121 11.4133 13.2472 11.1667C13.0824 10.92 12.8481 10.7277 12.5741 10.6142C12.3 10.5007 11.9984 10.471 11.7074 10.5289C11.4164 10.5867 11.1491 10.7296 10.9394 10.9394C10.7296 11.1491 10.5867 11.4164 10.5289 11.7074C10.471 11.9984 10.5007 12.3 10.6142 12.5741C10.7277 12.8481 10.92 13.0824 11.1667 13.2472C11.4133 13.4121 11.7034 13.5 12 13.5C12.3979 13.5 12.7794 13.342 13.0607 13.0607C13.342 12.7794 13.5 12.3979 13.5 12Z" fill="white"/>
</svg>
