<svg width="146" height="152" viewBox="0 0 146 152" fill="none" xmlns="http://www.w3.org/2000/svg">
<path d="M143.584 91.3747C140.439 86.4828 137.294 81.7655 134.149 76.8736C133.451 75.8253 133.451 75.1265 134.149 74.0782C137.294 69.361 140.264 64.6437 143.409 59.9265C147.078 54.3357 145.156 48.9196 138.867 46.6483C133.625 44.7264 128.384 42.6299 123.143 40.7081C122.094 40.3587 121.57 39.6598 121.57 38.4368C121.395 32.6713 121.046 26.9058 120.697 21.315C120.347 15.2 115.63 11.7058 109.69 13.2782C104.099 14.6759 98.5081 16.2483 93.092 17.8207C91.869 18.1701 91.1702 17.8207 90.2966 16.9471C86.8024 12.4046 83.1334 8.03679 79.6391 3.66897C75.7955 -1.22299 69.8552 -1.22299 65.8369 3.66897C62.3426 8.03679 58.6736 12.4046 55.3541 16.7724C54.4805 17.9954 53.607 18.1701 52.2093 17.8207C46.7932 16.2483 41.3771 14.8506 37.5334 13.8023C30.0208 12.0552 25.4783 15.0253 25.1288 21.315C24.7794 27.0805 24.43 32.846 24.2552 38.7862C24.2552 40.0092 23.7311 40.5333 22.6828 41.0575C17.2667 43.154 11.8507 45.2506 6.43457 47.3472C0.843766 49.6184 -0.903361 55.0345 2.41617 60.1012C5.561 64.9931 8.70583 69.7104 11.8506 74.6023C12.5495 75.6506 12.5495 76.3494 11.8506 77.5724C8.53111 82.4644 5.38628 87.3564 2.24145 92.423C-0.728664 97.1403 1.19316 102.731 6.43454 104.828C11.8506 106.924 17.4414 109.021 22.8575 111.117C24.0805 111.467 24.4299 112.166 24.4299 113.389C24.6046 118.979 25.3035 124.395 25.3035 129.986C25.3035 135.577 30.1954 140.644 37.0092 138.547C42.4253 136.8 47.8414 135.577 53.2575 134.005C54.3058 133.655 55.0046 133.83 55.7035 134.878C59.3724 139.421 62.8667 143.789 66.5356 148.331C70.554 153.223 76.3196 153.223 80.1632 148.331C83.8322 143.789 87.3265 139.421 90.9954 134.878C91.6943 134.005 92.2184 133.655 93.4414 134.005C99.0322 135.577 104.623 136.975 110.214 138.547C115.979 140.12 120.871 136.625 121.046 130.685C121.395 124.92 121.745 119.154 121.92 113.214C121.92 111.816 122.618 111.292 123.667 110.943C128.908 109.021 134.324 106.924 139.566 104.828C145.156 102.032 146.904 96.4414 143.584 91.3747ZM101.828 62.7219L66.8851 97.6644C66.0116 98.538 64.7886 99.2368 63.5656 99.4115C63.2162 99.4115 62.692 99.5863 62.3426 99.5863C60.7702 99.5863 59.0231 98.8874 57.8001 97.6644L43.4737 83.3379C41.0277 80.892 41.0277 76.8736 43.4737 74.4276C45.9196 71.9816 49.938 71.9816 52.384 74.4276L62.1679 84.2115L92.5679 53.8115C95.0139 51.3656 99.0323 51.3656 101.478 53.8115C104.274 56.2575 104.274 60.2759 101.828 62.7219Z" fill="#00AC4F"/>
</svg>
