<svg width="32" height="32" viewBox="0 0 32 32" fill="none" xmlns="http://www.w3.org/2000/svg">
<g clip-path="url(#clip0_51_1179)">
<path d="M19.1645 28.5115H12.8355C12.1955 28.5115 11.6765 27.9925 11.6765 27.3525C11.6765 26.712 12.1955 26.193 12.8355 26.193H19.164C19.804 26.193 20.323 26.712 20.323 27.3525C20.3235 27.9925 19.8045 28.5115 19.1645 28.5115Z" fill="#737791"/>
<path d="M18.065 32H13.934C13.294 32 12.775 31.481 12.775 30.841C12.775 30.2005 13.294 29.6815 13.934 29.6815H18.065C18.705 29.6815 19.224 30.2005 19.224 30.841C19.2245 31.481 18.7055 32 18.065 32Z" fill="#737791"/>
<path d="M19.503 25.1435H12.497C11.857 25.1435 11.338 24.6245 11.338 23.9845V23.666C11.338 20.7265 10.311 17.7935 8.369 15.1835C7.142 13.5355 6.4935 11.573 6.4935 9.5095C6.493 4.2655 10.7565 0 15.997 0C16.35 0 16.7085 0.0195 17.0625 0.058C21.457 0.5375 24.9855 4.077 25.4525 8.474C25.713 10.9335 25.0345 13.3575 23.543 15.299C21.6855 17.717 20.663 20.687 20.663 23.662V23.9845C20.663 24.6245 20.144 25.1435 19.503 25.1435ZM13.633 22.8245H18.367C18.5415 19.6265 19.711 16.481 21.704 13.8865C22.832 12.4185 23.344 10.5835 23.1465 8.7185C22.7935 5.398 20.129 2.725 16.8105 2.3635C16.54 2.334 16.266 2.319 15.997 2.319C12.035 2.319 8.812 5.5445 8.812 9.51C8.812 11.071 9.302 12.554 10.2285 13.799C12.2885 16.566 13.4565 19.67 13.633 22.8245Z" fill="#737791"/>
<path d="M16 25.1435C15.3595 25.1435 14.841 24.6245 14.841 23.9845V11.8655C14.841 11.5585 14.963 11.2635 15.1805 11.046L17.975 8.25149C18.428 7.79849 19.1615 7.79849 19.6145 8.25149C20.067 8.70399 20.067 9.43799 19.6145 9.89049L17.1595 12.3455V23.9835C17.159 24.6245 16.6405 25.1435 16 25.1435Z" fill="#737791"/>
<path d="M16 13.0255C15.703 13.0255 15.4065 12.912 15.18 12.6855L12.503 10.0085C12.0505 9.55604 12.0505 8.82204 12.503 8.36954C12.956 7.91654 13.69 7.91654 14.1425 8.36954L16.8195 11.0465C17.272 11.499 17.272 12.233 16.8195 12.6855C16.593 12.912 16.2965 13.0255 16 13.0255Z" fill="#737791"/>
</g>
<defs>
<clipPath id="clip0_51_1179">
<rect width="32" height="32" fill="white"/>
</clipPath>
</defs>
</svg>
